STARTFONT 2.1
FONT -HP-Gothic-Medium-R-Normal--16-116-100-100-C-160-JISX0212.1990-0
SIZE 11 100 100
FONTBOUNDINGBOX 16 16 0 -2

STARTPROPERTIES 23
FONTNAME_REGISTRY ""
FOUNDRY "HP"
FAMILY_NAME "Gothic"
WEIGHT_NAME "Medium"
SLANT "R"
SETWIDTH_NAME "Normal"
ADD_STYLE_NAME ""
PIXEL_SIZE 16
POINT_SIZE 116
RESOLUTION_X 100
RESOLUTION_Y 100
SPACING "C"
AVERAGE_WIDTH 160
CHARSET_REGISTRY "JISX0212.1990"
CHARSET_ENCODING "0"
COPYRIGHT "Copyright 1994 by Bridge Inc. All rights reserved. Copyright (c) 1994 Hewlett-Packard Company."
_HP_ASXVERSION "@(#) ASX 3.00 $Revision: 13.9 $ gotX16s"
WEIGHT 10
X_HEIGHT 14
QUAD_WIDTH 16
DEFAULT_CHAR 8481
FONT_DESCENT 2
FONT_ASCENT 14
ENDPROPERTIES

CHARS 6068

STARTCHAR jisx0212_2121
ENCODING 8481
SWIDTH 960 0
DWIDTH 16 0
BBX 16 16 0 -2
BITMAP
0000
0000
2004
0000
0000
0000
0000
0000
0000
0000
0000
0000
0000
2004
0000
0000
ENDCHAR

STARTCHAR jisx0212_222F
ENCODING 8751
SWIDTH 960 0
DWIDTH 16 0
BBX 16 16 0 -2
BITMAP
0810
0420
03C0
0000
0000
0000
0000
0000
0000
0000
0000
0000
0000
0000
0000
0000
ENDCHAR

STARTCHAR jisx0212_2230
ENCODING 8752
SWIDTH 960 0
DWIDTH 16 0
BBX 16 16 0 -2
BITMAP
0420
0240
0180
0000
0000
0000
0000
0000
0000
0000
0000
0000
0000
0000
0000
0000
ENDCHAR

STARTCHAR jisx0212_2231
ENCODING 8753
SWIDTH 960 0
DWIDTH 16 0
BBX 16 16 0 -2
BITMAP
0000
0000
0000
0000
0000
0000
0000
0000
0000
0000
0000
0080
0100
0180
0440
0380
ENDCHAR

STARTCHAR jisx0212_2232
ENCODING 8754
SWIDTH 960 0
DWIDTH 16 0
BBX 16 16 0 -2
BITMAP
0180
03C0
0180
0000
0000
0000
0000
0000
0000
0000
0000
0000
0000
0000
0000
0000
ENDCHAR

STARTCHAR jisx0212_2233
ENCODING 8755
SWIDTH 960 0
DWIDTH 16 0
BBX 16 16 0 -2
BITMAP
0220
0440
0440
0880
0000
0000
0000
0000
0000
0000
0000
0000
0000
0000
0000
0000
ENDCHAR

STARTCHAR jisx0212_2234
ENCODING 8756
SWIDTH 960 0
DWIDTH 16 0
BBX 16 16 0 -2
BITMAP
0FF0
0000
0000
0000
0000
0000
0000
0000
0000
0000
0000
0000
0000
0000
0000
0000
ENDCHAR

STARTCHAR jisx0212_2235
ENCODING 8757
SWIDTH 960 0
DWIDTH 16 0
BBX 16 16 0 -2
BITMAP
0000
0000
0000
0000
0000
0000
0000
0000
0000
0000
0000
0010
0020
0040
0040
0038
ENDCHAR

STARTCHAR jisx0212_2236
ENCODING 8758
SWIDTH 960 0
DWIDTH 16 0
BBX 16 16 0 -2
BITMAP
0180
0240
0240
0180
0000
0000
0000
0000
0000
0000
0000
0000
0000
0000
0000
0000
ENDCHAR

STARTCHAR jisx0212_2237
ENCODING 8759
SWIDTH 960 0
DWIDTH 16 0
BBX 16 16 0 -2
BITMAP
0710
08E0
0000
0000
0000
0000
0000
0000
0000
0000
0000
0000
0000
0000
0000
0000
ENDCHAR

STARTCHAR jisx0212_2238
ENCODING 8760
SWIDTH 960 0
DWIDTH 16 0
BBX 16 16 0 -2
BITMAP
0100
0100
0100
0100
0100
0100
0000
0000
0000
0000
0000
0000
0000
0000
0000
0000
ENDCHAR

STARTCHAR jisx0212_2239
ENCODING 8761
SWIDTH 960 0
DWIDTH 16 0
BBX 16 16 0 -2
BITMAP
0100
0100
0100
0100
0100
0C60
0C60
0000
0000
0000
0000
0000
0000
0000
0000
0000
ENDCHAR

STARTCHAR jisx0212_2242
ENCODING 8770
SWIDTH 960 0
DWIDTH 16 0
BBX 16 16 0 -2
BITMAP
0000
0180
0180
0000
0000
0100
0100
0100
0100
0100
0100
0100
0100
0100
0100
0000
ENDCHAR

STARTCHAR jisx0212_2243
ENCODING 8771
SWIDTH 960 0
DWIDTH 16 0
BBX 16 16 0 -2
BITMAP
0100
0100
0100
0100
0100
0100
0100
0000
0000
0100
0100
0100
0100
0100
0100
0100
ENDCHAR

STARTCHAR jisx0212_2244
ENCODING 8772
SWIDTH 960 0
DWIDTH 16 0
BBX 16 16 0 -2
BITMAP
0000
0180
0180
0000
0000
0080
0080
0080
0100
0200
0410
0810
0810
0420
03C0
0000
ENDCHAR

STARTCHAR jisx0212_226B
ENCODING 8811
SWIDTH 960 0
DWIDTH 16 0
BBX 16 16 0 -2
BITMAP
0000
1C00
2200
4100
4100
4100
4100
2200
1C00
0000
FF80
0000
0000
0000
0000
0000
ENDCHAR

STARTCHAR jisx0212_226C
ENCODING 8812
SWIDTH 960 0
DWIDTH 16 0
BBX 16 16 0 -2
BITMAP
0000
3E00
4100
0100
1F00
2100
4100
4300
3D00
0000
FF80
0000
0000
0000
0000
0000
ENDCHAR

STARTCHAR jisx0212_226D
ENCODING 8813
SWIDTH 960 0
DWIDTH 16 0
BBX 16 16 0 -2
BITMAP
07E0
1818
2004
43C2
4422
8811
8801
8801
8801
8801
8811
4422
43C2
2004
1818
07E0
ENDCHAR

STARTCHAR jisx0212_226E
ENCODING 8814
SWIDTH 960 0
DWIDTH 16 0
BBX 16 16 0 -2
BITMAP
07E0
1818
2004
47E2
4412
8411
8411
87E1
8441
8421
8421
4412
4412
2004
1818
07E0
ENDCHAR

STARTCHAR jisx0212_226F
ENCODING 8815
SWIDTH 960 0
DWIDTH 16 0
BBX 16 16 0 -2
BITMAP
FA08
2318
2318
22A8
22A8
2248
2248
0000
0000
0000
0000
0000
0000
0000
0000
0000
ENDCHAR

STARTCHAR jisx0212_2270
ENCODING 8816
SWIDTH 960 0
DWIDTH 16 0
BBX 16 16 0 -2
BITMAP
0000
0000
2004
13C8
0C30
0810
1008
1008
1008
1008
0810
0C30
13C8
2004
0000
0000
ENDCHAR

STARTCHAR jisx0212_2271
ENCODING 8817
SWIDTH 960 0
DWIDTH 16 0
BBX 16 16 0 -2
BITMAP
0000
408C
6092
60A1
50A1
50A1
48A1
4892
448C
4480
4280
4280
4180
4180
4080
0000
ENDCHAR

STARTCHAR jisx0212_2661
ENCODING 9825
SWIDTH 960 0
DWIDTH 16 0
BBX 16 16 0 -2
BITMAP
1000
1180
1180
1180
1240
0240
0420
0420
0810
0810
0810
1FF8
1008
2004
2004
0000
ENDCHAR

STARTCHAR jisx0212_2662
ENCODING 9826
SWIDTH 960 0
DWIDTH 16 0
BBX 16 16 0 -2
BITMAP
4000
47FE
4400
4400
4400
0400
0400
07FC
0400
0400
0400
0400
0400
0400
07FE
0000
ENDCHAR

STARTCHAR jisx0212_2663
ENCODING 9827
SWIDTH 960 0
DWIDTH 16 0
BBX 16 16 0 -2
BITMAP
4000
4402
4402
4402
4402
0402
0402
07FE
0402
0402
0402
0402
0402
0402
0402
0000
ENDCHAR

STARTCHAR jisx0212_2664
ENCODING 9828
SWIDTH 960 0
DWIDTH 16 0
BBX 16 16 0 -2
BITMAP
0400
0440
0440
0440
0440
0040
0040
0040
0040
0040
0040
0040
0040
0040
0040
0000
ENDCHAR

STARTCHAR jisx0212_2665
ENCODING 9829
SWIDTH 960 0
DWIDTH 16 0
BBX 16 16 0 -2
BITMAP
0CC0
0CC0
0000
0100
0100
0100
0100
0100
0100
0100
0100
0100
0100
0100
0100
0000
ENDCHAR

STARTCHAR jisx0212_2667
ENCODING 9831
SWIDTH 960 0
DWIDTH 16 0
BBX 16 16 0 -2
BITMAP
4000
41E0
4618
4804
4804
1002
1002
1002
1002
1002
1002
0804
0804
0618
01E0
0000
ENDCHAR

STARTCHAR jisx0212_2669
ENCODING 9833
SWIDTH 960 0
DWIDTH 16 0
BBX 16 16 0 -2
BITMAP
4000
471C
48A2
5041
5041
0040
0040
0040
0040
0040
0040
0040
0040
0040
0040
0000
ENDCHAR

STARTCHAR jisx0212_266A
ENCODING 9834
SWIDTH 960 0
DWIDTH 16 0
BBX 16 16 0 -2
BITMAP
0C60
0C60
0000
1C70
2288
4104
4104
0100
0100
0100
0100
0100
0100
0100
0100
0000
ENDCHAR

STARTCHAR jisx0212_266C
ENCODING 9836
SWIDTH 960 0
DWIDTH 16 0
BBX 16 16 0 -2
BITMAP
4000
41E0
4618
4804
4804
1002
1002
1002
1002
0804
0804
0408
0210
0120
1F3E
0000
ENDCHAR

STARTCHAR jisx0212_2671
ENCODING 9841
SWIDTH 960 0
DWIDTH 16 0
BBX 16 16 0 -2
BITMAP
0100
0100
0100
0100
0000
0388
0448
0828
0828
1030
1030
1020
1060
08A4
0718
0000
ENDCHAR

STARTCHAR jisx0212_2672
ENCODING 9842
SWIDTH 960 0
DWIDTH 16 0
BBX 16 16 0 -2
BITMAP
0100
0100
0100
0100
0000
03E0
0410
0400
0400
07C0
0800
1000
1010
1020
0FC0
0000
ENDCHAR

STARTCHAR jisx0212_2673
ENCODING 9843
SWIDTH 960 0
DWIDTH 16 0
BBX 16 16 0 -2
BITMAP
0100
0100
0100
0100
0000
0CF0
1308
0208
0208
0408
0410
0410
0810
0820
0020
0020
ENDCHAR

STARTCHAR jisx0212_2674
ENCODING 9844
SWIDTH 960 0
DWIDTH 16 0
BBX 16 16 0 -2
BITMAP
0100
0100
0100
0100
0000
0100
0100
0100
0200
0200
0200
0400
0440
0480
0300
0000
ENDCHAR

STARTCHAR jisx0212_2675
ENCODING 9845
SWIDTH 960 0
DWIDTH 16 0
BBX 16 16 0 -2
BITMAP
0000
0660
0660
0000
0000
0100
0100
0100
0200
0200
0200
0400
0440
0480
0300
0000
ENDCHAR

STARTCHAR jisx0212_2676
ENCODING 9846
SWIDTH 960 0
DWIDTH 16 0
BBX 16 16 0 -2
BITMAP
0100
0100
0100
0C60
0C60
0100
0100
0100
0200
0200
0200
0400
0440
0480
0300
0000
ENDCHAR

STARTCHAR jisx0212_2677
ENCODING 9847
SWIDTH 960 0
DWIDTH 16 0
BBX 16 16 0 -2
BITMAP
0100
0100
0100
0100
0000
03E0
0410
0808
0808
1008
1008
1010
1010
0820
07C0
0000
ENDCHAR

STARTCHAR jisx0212_2678
ENCODING 9848
SWIDTH 960 0
DWIDTH 16 0
BBX 16 16 0 -2
BITMAP
0000
0000
0000
0000
0000
03E0
0410
0808
0808
0810
0400
0200
0100
0080
0880
0700
ENDCHAR

STARTCHAR jisx0212_2679
ENCODING 9849
SWIDTH 960 0
DWIDTH 16 0
BBX 16 16 0 -2
BITMAP
0100
0100
0100
0100
0000
0820
0810
0810
0810
0810
1010
1020
1020
1040
0F80
0000
ENDCHAR

STARTCHAR jisx0212_267A
ENCODING 9850
SWIDTH 960 0
DWIDTH 16 0
BBX 16 16 0 -2
BITMAP
0000
0660
0660
0000
0000
0820
0810
0810
0810
0810
1010
1020
1020
1040
0F80
0000
ENDCHAR

STARTCHAR jisx0212_267B
ENCODING 9851
SWIDTH 960 0
DWIDTH 16 0
BBX 16 16 0 -2
BITMAP
0100
0100
0100
0C60
0C60
0000
0820
0810
0810
0810
1010
1020
1020
1040
0F80
0000
ENDCHAR

STARTCHAR jisx0212_267C
ENCODING 9852
SWIDTH 960 0
DWIDTH 16 0
BBX 16 16 0 -2
BITMAP
0080
0080
0080
0080
0000
0210
0408
0804
1084
1084
2084
2104
2108
2310
1CE0
0000
ENDCHAR

STARTCHAR jisx0212_2742
ENCODING 10050
SWIDTH 960 0
DWIDTH 16 0
BBX 16 16 0 -2
BITMAP
0000
7FF0
0200
0200
0200
0278
0284
0302
0202
0202
0202
0202
0222
0224
0218
0000
ENDCHAR

STARTCHAR jisx0212_2743
ENCODING 10051
SWIDTH 960 0
DWIDTH 16 0
BBX 16 16 0 -2
BITMAP
00C0
0300
0000
0FF8
0800
0800
0800
0800
0800
0800
0800
0800
0800
0800
0800
0000
ENDCHAR

STARTCHAR jisx0212_2744
ENCODING 10052
SWIDTH 960 0
DWIDTH 16 0
BBX 16 16 0 -2
BITMAP
0000
03C0
0C30
1008
1008
2004
2000
3FE0
2000
2000
2004
1008
1008
0C30
03C0
0000
ENDCHAR

STARTCHAR jisx0212_2745
ENCODING 10053
SWIDTH 960 0
DWIDTH 16 0
BBX 16 16 0 -2
BITMAP
0000
07E0
0810
1008
1008
1000
0C00
0380
0070
0008
0004
1004
1004
0808
07F0
0000
ENDCHAR

STARTCHAR jisx0212_2746
ENCODING 10054
SWIDTH 960 0
DWIDTH 16 0
BBX 16 16 0 -2
BITMAP
0000
0100
0100
0100
0100
0100
0100
0100
0100
0100
0100
0100
0100
0100
0100
0000
ENDCHAR

STARTCHAR jisx0212_2747
ENCODING 10055
SWIDTH 960 0
DWIDTH 16 0
BBX 16 16 0 -2
BITMAP
0CC0
0CC0
0000
0100
0100
0100
0100
0100
0100
0100
0100
0100
0100
0100
0100
0000
ENDCHAR

STARTCHAR jisx0212_2748
ENCODING 10056
SWIDTH 960 0
DWIDTH 16 0
BBX 16 16 0 -2
BITMAP
0000
0020
0020
0020
0020
0020
0020
0020
0020
0020
0020
1020
1020
0840
0780
0000
ENDCHAR

STARTCHAR jisx0212_2749
ENCODING 10057
SWIDTH 960 0
DWIDTH 16 0
BBX 16 16 0 -2
BITMAP
0000
0440
0440
0440
0440
0440
0440
047C
0442
0441
0441
0441
8441
8442
787C
0000
ENDCHAR

STARTCHAR jisx0212_274A
ENCODING 10058
SWIDTH 960 0
DWIDTH 16 0
BBX 16 16 0 -2
BITMAP
0000
4080
4080
4080
4080
4080
4080
7FFC
4082
4081
4081
4081
4081
4082
40FC
0000
ENDCHAR

STARTCHAR jisx0212_274B
ENCODING 10059
SWIDTH 960 0
DWIDTH 16 0
BBX 16 16 0 -2
BITMAP
0000
7FF0
0200
0200
0200
02F8
0304
0204
0204
0204
0204
0204
0204
0204
0204
0000
ENDCHAR

STARTCHAR jisx0212_274C
ENCODING 10060
SWIDTH 960 0
DWIDTH 16 0
BBX 16 16 0 -2
BITMAP
0180
1610
1020
1040
1080
1100
1E00
1100
1080
1080
1040
1020
1020
1010
1008
0000
ENDCHAR

STARTCHAR jisx0212_274D
ENCODING 10061
SWIDTH 960 0
DWIDTH 16 0
BBX 16 16 0 -2
BITMAP
0440
2388
1010
1010
0820
0820
0440
0440
0280
0280
0100
0100
0200
0200
1C00
0000
ENDCHAR

STARTCHAR jisx0212_274E
ENCODING 10062
SWIDTH 960 0
DWIDTH 16 0
BBX 16 16 0 -2
BITMAP
0000
2008
2008
2008
2008
2008
2008
2008
2008
2008
2008
2008
2008
3FF8
0100
0100
ENDCHAR

STARTCHAR jisx0212_2772
ENCODING 10098
SWIDTH 960 0
DWIDTH 16 0
BBX 16 16 0 -2
BITMAP
0000
0800
0800
3E00
0800
0BE0
0C10
0810
0810
0810
0810
0810
0810
0810
0810
00E0
ENDCHAR

STARTCHAR jisx0212_2773
ENCODING 10099
SWIDTH 960 0
DWIDTH 16 0
BBX 16 16 0 -2
BITMAP
0000
0060
0180
0000
0000
07F0
0400
0400
0400
0400
0400
0400
0400
0400
0400
0000
ENDCHAR

STARTCHAR jisx0212_2774
ENCODING 10100
SWIDTH 960 0
DWIDTH 16 0
BBX 16 16 0 -2
BITMAP
0000
0000
0000
0000
0000
03E0
0410
0808
0800
0FE0
0800
0800
0808
0410
03E0
0000
ENDCHAR

STARTCHAR jisx0212_2775
ENCODING 10101
SWIDTH 960 0
DWIDTH 16 0
BBX 16 16 0 -2
BITMAP
0000
0000
0000
0000
0000
07E0
0810
0810
0800
0700
00E0
0010
0810
0810
07E0
0000
ENDCHAR

STARTCHAR jisx0212_2776
ENCODING 10102
SWIDTH 960 0
DWIDTH 16 0
BBX 16 16 0 -2
BITMAP
0000
0300
0300
0000
0000
0100
0100
0100
0100
0100
0100
0100
0100
0100
0100
0000
ENDCHAR

STARTCHAR jisx0212_2777
ENCODING 10103
SWIDTH 960 0
DWIDTH 16 0
BBX 16 16 0 -2
BITMAP
0000
0CC0
0CC0
0000
0000
0100
0100
0100
0100
0100
0100
0100
0100
0100
0100
0000
ENDCHAR

STARTCHAR jisx0212_2778
ENCODING 10104
SWIDTH 960 0
DWIDTH 16 0
BBX 16 16 0 -2
BITMAP
0000
0180
0180
0000
0000
0080
0080
0080
0080
0080
0080
0080
0080
0080
0080
0700
ENDCHAR

STARTCHAR jisx0212_2779
ENCODING 10105
SWIDTH 960 0
DWIDTH 16 0
BBX 16 16 0 -2
BITMAP
0000
0000
0000
0000
0000
0480
0480
0480
0480
04FC
0482
0482
4482
4482
38FC
0000
ENDCHAR

STARTCHAR jisx0212_277A
ENCODING 10106
SWIDTH 960 0
DWIDTH 16 0
BBX 16 16 0 -2
BITMAP
0000
0000
0000
0000
0000
2080
2080
2080
2080
3FFC
2082
2082
2082
2082
20FC
0000
ENDCHAR

STARTCHAR jisx0212_277B
ENCODING 10107
SWIDTH 960 0
DWIDTH 16 0
BBX 16 16 0 -2
BITMAP
0000
0800
0800
3F80
0800
0BE0
0C10
0810
0810
0810
0810
0810
0810
0810
0810
0000
ENDCHAR

STARTCHAR jisx0212_277C
ENCODING 10108
SWIDTH 960 0
DWIDTH 16 0
BBX 16 16 0 -2
BITMAP
0000
00C0
0300
0000
0000
0830
0840
0840
0840
0F80
0840
0820
0820
0810
0810
0000
ENDCHAR

STARTCHAR jisx0212_277D
ENCODING 10109
SWIDTH 960 0
DWIDTH 16 0
BBX 16 16 0 -2
BITMAP
0000
0440
0380
0000
0000
0810
0810
0420
0420
0240
0240
0180
0180
0100
0100
0E00
ENDCHAR

STARTCHAR jisx0212_277E
ENCODING 10110
SWIDTH 960 0
DWIDTH 16 0
BBX 16 16 0 -2
BITMAP
0000
0000
0000
0000
0000
0820
0820
0820
0820
0820
0820
0820
0820
0FE0
0100
0100
ENDCHAR

STARTCHAR jisx0212_2921
ENCODING 10529
SWIDTH 960 0
DWIDTH 16 0
BBX 16 16 0 -2
BITMAP
0000
03FF
0280
0480
0480
0880
0880
10FE
1080
3F80
2080
4080
4080
8080
80FF
0000
ENDCHAR

STARTCHAR jisx0212_2922
ENCODING 10530
SWIDTH 960 0
DWIDTH 16 0
BBX 16 16 0 -2
BITMAP
0000
1FC0
1030
1008
1008
1004
1004
FE04
1004
1004
1004
1008
1008
1030
1FC0
0000
ENDCHAR

STARTCHAR jisx0212_2924
ENCODING 10532
SWIDTH 960 0
DWIDTH 16 0
BBX 16 16 0 -2
BITMAP
0000
1008
1008
FFFF
1008
1008
1008
1FF8
1008
1008
1008
1008
1008
1008
1008
0000
ENDCHAR

STARTCHAR jisx0212_2926
ENCODING 10534
SWIDTH 960 0
DWIDTH 16 0
BBX 16 16 0 -2
BITMAP
0000
1008
1008
1008
1008
1008
1008
1008
1008
1008
1008
1208
1208
1110
10E0
0000
ENDCHAR

STARTCHAR jisx0212_2928
ENCODING 10536
SWIDTH 960 0
DWIDTH 16 0
BBX 16 16 0 -2
BITMAP
0000
0800
0800
0800
0900
0A00
0C00
0800
1800
2800
4800
0800
0800
0800
0FFC
0000
ENDCHAR

STARTCHAR jisx0212_2929
ENCODING 10537
SWIDTH 960 0
DWIDTH 16 0
BBX 16 16 0 -2
BITMAP
0000
0800
0800
0800
0800
0800
0800
0980
0980
0800
0800
0800
0800
0800
0FFC
0000
ENDCHAR

STARTCHAR jisx0212_292B
ENCODING 10539
SWIDTH 960 0
DWIDTH 16 0
BBX 16 16 0 -2
BITMAP
0000
09E0
0A10
0C08
0808
0808
0808
0808
0808
0808
0808
0808
0908
0910
08E0
0000
ENDCHAR

STARTCHAR jisx0212_292C
ENCODING 10540
SWIDTH 960 0
DWIDTH 16 0
BBX 16 16 0 -2
BITMAP
0000
03C2
0C34
1008
1018
2024
2044
2084
2104
2204
2404
1808
1008
2C30
43C0
0000
ENDCHAR

STARTCHAR jisx0212_292D
ENCODING 10541
SWIDTH 960 0
DWIDTH 16 0
BBX 16 16 0 -2
BITMAP
0000
0FFF
3080
4080
4080
8080
8080
80FE
8080
8080
8080
4080
4080
3080
0FFF
0000
ENDCHAR

STARTCHAR jisx0212_292F
ENCODING 10543
SWIDTH 960 0
DWIDTH 16 0
BBX 16 16 0 -2
BITMAP
0000
3FF8
0100
0100
0100
0100
0100
0FE0
0100
0100
0100
0100
0100
0100
0100
0000
ENDCHAR

STARTCHAR jisx0212_2930
ENCODING 10544
SWIDTH 960 0
DWIDTH 16 0
BBX 16 16 0 -2
BITMAP
0000
0800
0800
0800
0FE0
0810
0808
0808
0808
0810
0FE0
0800
0800
0800
0800
0000
ENDCHAR

STARTCHAR jisx0212_2941
ENCODING 10561
SWIDTH 960 0
DWIDTH 16 0
BBX 16 16 0 -2
BITMAP
0000
0000
0000
0000
0000
1C78
2284
4102
0102
0FFE
3100
4100
4102
4284
3C78
0000
ENDCHAR

STARTCHAR jisx0212_2942
ENCODING 10562
SWIDTH 960 0
DWIDTH 16 0
BBX 16 16 0 -2
BITMAP
0000
0010
0010
01FC
0010
03D0
0430
0810
0810
0810
0810
0810
0810
0430
03D0
0000
ENDCHAR

STARTCHAR jisx0212_2943
ENCODING 10563
SWIDTH 960 0
DWIDTH 16 0
BBX 16 16 0 -2
BITMAP
0000
0E60
0180
0680
0040
03E0
0420
0810
0810
0810
0810
0810
0810
0420
03C0
0000
ENDCHAR

STARTCHAR jisx0212_2944
ENCODING 10564
SWIDTH 960 0
DWIDTH 16 0
BBX 16 16 0 -2
BITMAP
0000
0800
0800
3FC0
0800
0BE0
0C10
0810
0810
0810
0810
0810
0810
0810
0810
0000
ENDCHAR

STARTCHAR jisx0212_2945
ENCODING 10565
SWIDTH 960 0
DWIDTH 16 0
BBX 16 16 0 -2
BITMAP
0000
0000
0000
0000
0000
0100
0100
0100
0100
0100
0100
0100
0100
0100
0100
0000
ENDCHAR

STARTCHAR jisx0212_2946
ENCODING 10566
SWIDTH 960 0
DWIDTH 16 0
BBX 16 16 0 -2
BITMAP
0000
0C30
0C30
0000
0000
0410
0410
0410
0410
0410
0410
0410
0410
0410
0410
00E0
ENDCHAR

STARTCHAR jisx0212_2947
ENCODING 10567
SWIDTH 960 0
DWIDTH 16 0
BBX 16 16 0 -2
BITMAP
0000
0000
0000
0000
0000
0410
0420
0440
0480
0500
0680
0440
0420
0410
0408
0000
ENDCHAR

STARTCHAR jisx0212_2948
ENCODING 10568
SWIDTH 960 0
DWIDTH 16 0
BBX 16 16 0 -2
BITMAP
0000
0100
0100
0100
0100
0120
0140
0180
0100
0300
0500
0900
0100
0100
01C0
0000
ENDCHAR

STARTCHAR jisx0212_2949
ENCODING 10569
SWIDTH 960 0
DWIDTH 16 0
BBX 16 16 0 -2
BITMAP
0000
0200
0200
0200
0200
0200
0200
0260
0260
0200
0200
0200
0200
0200
0380
0000
ENDCHAR

STARTCHAR jisx0212_294A
ENCODING 10570
SWIDTH 960 0
DWIDTH 16 0
BBX 16 16 0 -2
BITMAP
0000
0000
0000
0000
2000
22F8
2304
2204
2204
0204
0204
0204
0204
0204
0204
0000
ENDCHAR

STARTCHAR jisx0212_294B
ENCODING 10571
SWIDTH 960 0
DWIDTH 16 0
BBX 16 16 0 -2
BITMAP
0000
0000
0000
0000
0000
0BE0
0C10
0810
0810
0810
0810
0810
0810
0810
0810
00E0
ENDCHAR

STARTCHAR jisx0212_294C
ENCODING 10572
SWIDTH 960 0
DWIDTH 16 0
BBX 16 16 0 -2
BITMAP
0000
0000
0000
0000
0000
07D0
0820
1050
1090
1110
1110
1210
1410
0820
17C0
0000
ENDCHAR

STARTCHAR jisx0212_294D
ENCODING 10573
SWIDTH 960 0
DWIDTH 16 0
BBX 16 16 0 -2
BITMAP
0000
0000
0000
0000
0000
1E38
2144
4082
4082
40FE
4080
4080
4082
2144
1E38
0000
ENDCHAR

STARTCHAR jisx0212_294E
ENCODING 10574
SWIDTH 960 0
DWIDTH 16 0
BBX 16 16 0 -2
BITMAP
0000
03C0
0420
0810
0810
0810
0820
09C0
0820
0810
0808
0808
0A08
0A10
09E0
0000
ENDCHAR

STARTCHAR jisx0212_294F
ENCODING 10575
SWIDTH 960 0
DWIDTH 16 0
BBX 16 16 0 -2
BITMAP
0000
0100
0100
0100
0100
07E0
0100
0100
07C0
0100
0100
0100
0100
0100
00E0
0000
ENDCHAR

STARTCHAR jisx0212_2950
ENCODING 10576
SWIDTH 960 0
DWIDTH 16 0
BBX 16 16 0 -2
BITMAP
0000
0400
0400
0400
0400
05E0
0610
0408
0408
0408
0408
0408
0610
05E0
0400
0400
ENDCHAR

STARTCHAR jisx0212_2A21
ENCODING 10785
SWIDTH 960 0
DWIDTH 16 0
BBX 16 16 0 -2
BITMAP
00C0
0300
0000
0180
0180
0240
0240
0420
0420
0810
0810
1FF8
1008
2004
2004
0000
ENDCHAR

STARTCHAR jisx0212_2A22
ENCODING 10786
SWIDTH 960 0
DWIDTH 16 0
BBX 16 16 0 -2
BITMAP
0300
00C0
0000
0180
0180
0240
0240
0420
0420
0810
0810
1FF8
1008
2004
2004
0000
ENDCHAR

STARTCHAR jisx0212_2A23
ENCODING 10787
SWIDTH 960 0
DWIDTH 16 0
BBX 16 16 0 -2
BITMAP
0660
0660
0000
0180
0180
0240
0240
0420
0420
0810
0810
1FF8
1008
2004
2004
0000
ENDCHAR

STARTCHAR jisx0212_2A24
ENCODING 10788
SWIDTH 960 0
DWIDTH 16 0
BBX 16 16 0 -2
BITMAP
0180
0660
0000
0180
0180
0240
0240
0420
0420
0810
0810
1FF8
1008
2004
2004
0000
ENDCHAR

STARTCHAR jisx0212_2A25
ENCODING 10789
SWIDTH 960 0
DWIDTH 16 0
BBX 16 16 0 -2
BITMAP
0440
0380
0000
0180
0180
0240
0240
0420
0420
0810
0810
1FF8
1008
2004
2004
0000
ENDCHAR

STARTCHAR jisx0212_2A26
ENCODING 10790
SWIDTH 960 0
DWIDTH 16 0
BBX 16 16 0 -2
BITMAP
0660
0180
0000
0180
0180
0240
0240
0420
0420
0810
0810
1FF8
1008
2004
2004
0000
ENDCHAR

STARTCHAR jisx0212_2A27
ENCODING 10791
SWIDTH 960 0
DWIDTH 16 0
BBX 16 16 0 -2
BITMAP
07E0
0000
0000
0180
0180
0240
0240
0420
0420
0810
0810
1FF8
1008
2004
2004
0000
ENDCHAR

STARTCHAR jisx0212_2A28
ENCODING 10792
SWIDTH 960 0
DWIDTH 16 0
BBX 16 16 0 -2
BITMAP
0000
0180
0180
0240
0240
0420
0420
0810
0810
0810
1FF8
1008
2004
200C
0010
000E
ENDCHAR

STARTCHAR jisx0212_2A29
ENCODING 10793
SWIDTH 960 0
DWIDTH 16 0
BBX 16 16 0 -2
BITMAP
0180
0240
0240
0180
0180
0240
0240
0420
0420
0810
0810
1FF8
1008
2004
2004
0000
ENDCHAR

STARTCHAR jisx0212_2A2A
ENCODING 10794
SWIDTH 960 0
DWIDTH 16 0
BBX 16 16 0 -2
BITMAP
0320
04C0
0000
0180
0180
0240
0240
0420
0420
0810
0810
1FF8
1008
2004
2004
0000
ENDCHAR

STARTCHAR jisx0212_2A2B
ENCODING 10795
SWIDTH 960 0
DWIDTH 16 0
BBX 16 16 0 -2
BITMAP
00C0
0300
0000
03E0
0C10
0808
1004
1000
1000
1000
1000
1004
0808
0C10
03E0
0000
ENDCHAR

STARTCHAR jisx0212_2A2C
ENCODING 10796
SWIDTH 960 0
DWIDTH 16 0
BBX 16 16 0 -2
BITMAP
0180
0660
0000
03E0
0C10
0808
1004
1000
1000
1000
1000
1004
0808
0C10
03E0
0000
ENDCHAR

STARTCHAR jisx0212_2A2D
ENCODING 10797
SWIDTH 960 0
DWIDTH 16 0
BBX 16 16 0 -2
BITMAP
0660
0180
0000
03E0
0C10
0808
1004
1000
1000
1000
1000
1004
0808
0C10
03E0
0000
ENDCHAR

STARTCHAR jisx0212_2A2E
ENCODING 10798
SWIDTH 960 0
DWIDTH 16 0
BBX 16 16 0 -2
BITMAP
0000
03E0
0C10
0808
1004
1000
1000
1000
1000
1004
0808
0C10
03E0
0080
0040
0380
ENDCHAR

STARTCHAR jisx0212_2A2F
ENCODING 10799
SWIDTH 960 0
DWIDTH 16 0
BBX 16 16 0 -2
BITMAP
0180
0180
0000
03E0
0C10
0808
1004
1000
1000
1000
1000
1004
0808
0C10
03E0
0000
ENDCHAR

STARTCHAR jisx0212_2A30
ENCODING 10800
SWIDTH 960 0
DWIDTH 16 0
BBX 16 16 0 -2
BITMAP
0660
0180
0000
1FC0
1030
1010
1008
1008
1008
1008
1008
1008
1010
1030
1FC0
0000
ENDCHAR

STARTCHAR jisx0212_2A31
ENCODING 10801
SWIDTH 960 0
DWIDTH 16 0
BBX 16 16 0 -2
BITMAP
00C0
0300
0000
0FF8
0800
0800
0800
0800
0FF0
0800
0800
0800
0800
0800
0FF8
0000
ENDCHAR

STARTCHAR jisx0212_2A32
ENCODING 10802
SWIDTH 960 0
DWIDTH 16 0
BBX 16 16 0 -2
BITMAP
0300
00C0
0000
0FF8
0800
0800
0800
0800
0FF0
0800
0800
0800
0800
0800
0FF8
0000
ENDCHAR

STARTCHAR jisx0212_2A33
ENCODING 10803
SWIDTH 960 0
DWIDTH 16 0
BBX 16 16 0 -2
BITMAP
0660
0660
0000
0FF8
0800
0800
0800
0800
0FF0
0800
0800
0800
0800
0800
0FF8
0000
ENDCHAR

STARTCHAR jisx0212_2A34
ENCODING 10804
SWIDTH 960 0
DWIDTH 16 0
BBX 16 16 0 -2
BITMAP
0180
0660
0000
0FF8
0800
0800
0800
0800
0FF0
0800
0800
0800
0800
0800
0FF8
0000
ENDCHAR

STARTCHAR jisx0212_2A35
ENCODING 10805
SWIDTH 960 0
DWIDTH 16 0
BBX 16 16 0 -2
BITMAP
0660
0180
0000
0FF8
0800
0800
0800
0800
0FF0
0800
0800
0800
0800
0800
0FF8
0000
ENDCHAR

STARTCHAR jisx0212_2A36
ENCODING 10806
SWIDTH 960 0
DWIDTH 16 0
BBX 16 16 0 -2
BITMAP
0180
0180
0000
0FF8
0800
0800
0800
0800
0FF0
0800
0800
0800
0800
0800
0FF8
0000
ENDCHAR

STARTCHAR jisx0212_2A37
ENCODING 10807
SWIDTH 960 0
DWIDTH 16 0
BBX 16 16 0 -2
BITMAP
07E0
0000
0000
0FF8
0800
0800
0800
0800
0FF0
0800
0800
0800
0800
0800
0FF8
0000
ENDCHAR

STARTCHAR jisx0212_2A38
ENCODING 10808
SWIDTH 960 0
DWIDTH 16 0
BBX 16 16 0 -2
BITMAP
0000
0FF8
0800
0800
0800
0800
0FF0
0800
0800
0800
0800
0800
0FF8
0020
0040
0038
ENDCHAR

STARTCHAR jisx0212_2A3A
ENCODING 10810
SWIDTH 960 0
DWIDTH 16 0
BBX 16 16 0 -2
BITMAP
0300
0CC0
0000
07C0
1820
1010
2008
2000
2000
2078
2008
2008
1018
1828
07C8
0000
ENDCHAR

STARTCHAR jisx0212_2A3B
ENCODING 10811
SWIDTH 960 0
DWIDTH 16 0
BBX 16 16 0 -2
BITMAP
0440
0380
0000
07C0
1820
1010
2008
2000
2000
2078
2008
2008
1018
1828
07C8
0000
ENDCHAR

STARTCHAR jisx0212_2A3C
ENCODING 10812
SWIDTH 960 0
DWIDTH 16 0
BBX 16 16 0 -2
BITMAP
0000
07C0
1820
1010
2008
2000
2000
2078
2008
2008
1018
1828
07C8
0100
0080
0700
ENDCHAR

STARTCHAR jisx0212_2A3D
ENCODING 10813
SWIDTH 960 0
DWIDTH 16 0
BBX 16 16 0 -2
BITMAP
0300
0300
0000
07C0
1820
1010
2008
2000
2000
2078
2008
2008
1018
1828
07C8
0000
ENDCHAR

STARTCHAR jisx0212_2A3E
ENCODING 10814
SWIDTH 960 0
DWIDTH 16 0
BBX 16 16 0 -2
BITMAP
0180
0660
1008
1008
1008
1008
1008
1008
1FF8
1008
1008
1008
1008
1008
1008
0000
ENDCHAR

STARTCHAR jisx0212_2A3F
ENCODING 10815
SWIDTH 960 0
DWIDTH 16 0
BBX 16 16 0 -2
BITMAP
0180
0600
0000
0100
0100
0100
0100
0100
0100
0100
0100
0100
0100
0100
0100
0000
ENDCHAR

STARTCHAR jisx0212_2A40
ENCODING 10816
SWIDTH 960 0
DWIDTH 16 0
BBX 16 16 0 -2
BITMAP
0600
0180
0000
0100
0100
0100
0100
0100
0100
0100
0100
0100
0100
0100
0100
0000
ENDCHAR

STARTCHAR jisx0212_2A41
ENCODING 10817
SWIDTH 960 0
DWIDTH 16 0
BBX 16 16 0 -2
BITMAP
0CC0
0CC0
0000
0100
0100
0100
0100
0100
0100
0100
0100
0100
0100
0100
0100
0000
ENDCHAR

STARTCHAR jisx0212_2A42
ENCODING 10818
SWIDTH 960 0
DWIDTH 16 0
BBX 16 16 0 -2
BITMAP
0300
0CC0
0000
0100
0100
0100
0100
0100
0100
0100
0100
0100
0100
0100
0100
0000
ENDCHAR

STARTCHAR jisx0212_2A43
ENCODING 10819
SWIDTH 960 0
DWIDTH 16 0
BBX 16 16 0 -2
BITMAP
0CC0
0300
0000
0100
0100
0100
0100
0100
0100
0100
0100
0100
0100
0100
0100
0000
ENDCHAR

STARTCHAR jisx0212_2A44
ENCODING 10820
SWIDTH 960 0
DWIDTH 16 0
BBX 16 16 0 -2
BITMAP
0300
0300
0000
0100
0100
0100
0100
0100
0100
0100
0100
0100
0100
0100
0100
0000
ENDCHAR

STARTCHAR jisx0212_2A45
ENCODING 10821
SWIDTH 960 0
DWIDTH 16 0
BBX 16 16 0 -2
BITMAP
07C0
0000
0100
0100
0100
0100
0100
0100
0100
0100
0100
0100
0100
0100
0100
0000
ENDCHAR

STARTCHAR jisx0212_2A46
ENCODING 10822
SWIDTH 960 0
DWIDTH 16 0
BBX 16 16 0 -2
BITMAP
0000
0100
0100
0100
0100
0100
0100
0100
0100
0100
0100
0100
0100
0100
0200
01C0
ENDCHAR

STARTCHAR jisx0212_2A47
ENCODING 10823
SWIDTH 960 0
DWIDTH 16 0
BBX 16 16 0 -2
BITMAP
0640
0980
0000
0100
0100
0100
0100
0100
0100
0100
0100
0100
0100
0100
0100
0000
ENDCHAR

STARTCHAR jisx0212_2A48
ENCODING 10824
SWIDTH 960 0
DWIDTH 16 0
BBX 16 16 0 -2
BITMAP
0180
0660
0000
0040
0040
0040
0040
0040
0040
0040
0040
1040
1040
0880
0700
0000
ENDCHAR

STARTCHAR jisx0212_2A49
ENCODING 10825
SWIDTH 960 0
DWIDTH 16 0
BBX 16 16 0 -2
BITMAP
0000
0808
0810
0820
0840
0880
0900
0A80
0C40
0820
0820
0810
0908
0984
0040
0380
ENDCHAR

STARTCHAR jisx0212_2A4A
ENCODING 10826
SWIDTH 960 0
DWIDTH 16 0
BBX 16 16 0 -2
BITMAP
00C0
0300
0800
0800
0800
0800
0800
0800
0800
0800
0800
0800
0800
0800
0FF8
0000
ENDCHAR

STARTCHAR jisx0212_2A4B
ENCODING 10827
SWIDTH 960 0
DWIDTH 16 0
BBX 16 16 0 -2
BITMAP
0660
0180
0800
0800
0800
0800
0800
0800
0800
0800
0800
0800
0800
0800
0FF8
0000
ENDCHAR

STARTCHAR jisx0212_2A4C
ENCODING 10828
SWIDTH 960 0
DWIDTH 16 0
BBX 16 16 0 -2
BITMAP
0000
0800
0800
0800
0800
0800
0800
0800
0800
0800
0800
0800
0FF8
0080
0040
0380
ENDCHAR

STARTCHAR jisx0212_2A4D
ENCODING 10829
SWIDTH 960 0
DWIDTH 16 0
BBX 16 16 0 -2
BITMAP
00C0
0300
1008
1808
1408
1208
1208
1108
1088
1088
1048
1028
1028
1018
1008
0000
ENDCHAR

STARTCHAR jisx0212_2A4E
ENCODING 10830
SWIDTH 960 0
DWIDTH 16 0
BBX 16 16 0 -2
BITMAP
0660
0180
1008
1808
1408
1208
1208
1108
1088
1088
1048
1028
1028
1018
1008
0000
ENDCHAR

STARTCHAR jisx0212_2A4F
ENCODING 10831
SWIDTH 960 0
DWIDTH 16 0
BBX 16 16 0 -2
BITMAP
0000
1008
1808
1408
1208
1208
1108
1088
1088
1048
1028
1028
1118
1188
0040
0380
ENDCHAR

STARTCHAR jisx0212_2A50
ENCODING 10832
SWIDTH 960 0
DWIDTH 16 0
BBX 16 16 0 -2
BITMAP
0320
04C0
1008
1808
1408
1208
1208
1108
1088
1088
1048
1028
1028
1018
1008
0000
ENDCHAR

STARTCHAR jisx0212_2A51
ENCODING 10833
SWIDTH 960 0
DWIDTH 16 0
BBX 16 16 0 -2
BITMAP
0180
0600
0000
07C0
1830
1010
2008
2008
2008
2008
2008
2008
1010
1830
07C0
0000
ENDCHAR

STARTCHAR jisx0212_2A52
ENCODING 10834
SWIDTH 960 0
DWIDTH 16 0
BBX 16 16 0 -2
BITMAP
0600
0180
0000
07C0
1830
1010
2008
2008
2008
2008
2008
2008
1010
1830
07C0
0000
ENDCHAR

STARTCHAR jisx0212_2A53
ENCODING 10835
SWIDTH 960 0
DWIDTH 16 0
BBX 16 16 0 -2
BITMAP
0CC0
0CC0
0000
07C0
1830
1010
2008
2008
2008
2008
2008
2008
1010
1830
07C0
0000
ENDCHAR

STARTCHAR jisx0212_2A54
ENCODING 10836
SWIDTH 960 0
DWIDTH 16 0
BBX 16 16 0 -2
BITMAP
0300
0CC0
0000
07C0
1830
1010
2008
2008
2008
2008
2008
2008
1010
1830
07C0
0000
ENDCHAR

STARTCHAR jisx0212_2A55
ENCODING 10837
SWIDTH 960 0
DWIDTH 16 0
BBX 16 16 0 -2
BITMAP
0CC0
0300
0000
07C0
1830
1010
2008
2008
2008
2008
2008
2008
1010
1830
07C0
0000
ENDCHAR

STARTCHAR jisx0212_2A56
ENCODING 10838
SWIDTH 960 0
DWIDTH 16 0
BBX 16 16 0 -2
BITMAP
0630
18C0
0000
07C0
1830
1010
2008
2008
2008
2008
2008
2008
1010
1830
07C0
0000
ENDCHAR

STARTCHAR jisx0212_2A57
ENCODING 10839
SWIDTH 960 0
DWIDTH 16 0
BBX 16 16 0 -2
BITMAP
0FC0
0000
0000
07C0
1830
1010
2008
2008
2008
2008
2008
2008
1010
1830
07C0
0000
ENDCHAR

STARTCHAR jisx0212_2A58
ENCODING 10840
SWIDTH 960 0
DWIDTH 16 0
BBX 16 16 0 -2
BITMAP
0640
0980
0000
07C0
1830
1010
2008
2008
2008
2008
2008
2008
1010
1830
07C0
0000
ENDCHAR

STARTCHAR jisx0212_2A59
ENCODING 10841
SWIDTH 960 0
DWIDTH 16 0
BBX 16 16 0 -2
BITMAP
00C0
0300
0000
0FE0
0810
0808
0808
0808
0810
0FE0
0810
0808
0808
0804
0804
0000
ENDCHAR

STARTCHAR jisx0212_2A5A
ENCODING 10842
SWIDTH 960 0
DWIDTH 16 0
BBX 16 16 0 -2
BITMAP
0660
0180
0000
0FE0
0810
0808
0808
0808
0810
0FE0
0810
0808
0808
0804
0804
0000
ENDCHAR

STARTCHAR jisx0212_2A5B
ENCODING 10843
SWIDTH 960 0
DWIDTH 16 0
BBX 16 16 0 -2
BITMAP
0000
0FE0
0810
0808
0808
0808
0810
0FE0
0810
0810
0808
0808
0884
08C4
0020
01C0
ENDCHAR

STARTCHAR jisx0212_2A5C
ENCODING 10844
SWIDTH 960 0
DWIDTH 16 0
BBX 16 16 0 -2
BITMAP
00C0
0300
0000
07C0
0820
1010
1010
0C00
0380
0060
0010
1008
1008
0810
07E0
0000
ENDCHAR

STARTCHAR jisx0212_2A5D
ENCODING 10845
SWIDTH 960 0
DWIDTH 16 0
BBX 16 16 0 -2
BITMAP
0180
0660
0000
07C0
0820
1010
1010
0C00
0380
0060
0010
1008
1008
0810
07E0
0000
ENDCHAR

STARTCHAR jisx0212_2A5E
ENCODING 10846
SWIDTH 960 0
DWIDTH 16 0
BBX 16 16 0 -2
BITMAP
0660
0180
0000
07C0
0820
1010
1010
0C00
0380
0060
0010
1008
1008
0810
07E0
0000
ENDCHAR

STARTCHAR jisx0212_2A5F
ENCODING 10847
SWIDTH 960 0
DWIDTH 16 0
BBX 16 16 0 -2
BITMAP
0000
07C0
0820
1010
1010
0C00
0380
0060
0010
1008
1008
0810
07E0
0100
0080
0700
ENDCHAR

STARTCHAR jisx0212_2A60
ENCODING 10848
SWIDTH 960 0
DWIDTH 16 0
BBX 16 16 0 -2
BITMAP
0CC0
0300
0000
3FF8
0100
0100
0100
0100
0100
0100
0100
0100
0100
0100
0100
0000
ENDCHAR

STARTCHAR jisx0212_2A61
ENCODING 10849
SWIDTH 960 0
DWIDTH 16 0
BBX 16 16 0 -2
BITMAP
0000
3FF8
0100
0100
0100
0100
0100
0100
0100
0100
0100
0100
0100
0180
0040
0380
ENDCHAR

STARTCHAR jisx0212_2A62
ENCODING 10850
SWIDTH 960 0
DWIDTH 16 0
BBX 16 16 0 -2
BITMAP
00C0
0300
1008
1008
1008
1008
1008
1008
1008
1008
1008
1008
1008
0810
07E0
0000
ENDCHAR

STARTCHAR jisx0212_2A63
ENCODING 10851
SWIDTH 960 0
DWIDTH 16 0
BBX 16 16 0 -2
BITMAP
0300
00C0
1008
1008
1008
1008
1008
1008
1008
1008
1008
1008
1008
0810
07E0
0000
ENDCHAR

STARTCHAR jisx0212_2A64
ENCODING 10852
SWIDTH 960 0
DWIDTH 16 0
BBX 16 16 0 -2
BITMAP
0660
0660
1008
1008
1008
1008
1008
1008
1008
1008
1008
1008
1008
0810
07E0
0000
ENDCHAR

STARTCHAR jisx0212_2A65
ENCODING 10853
SWIDTH 960 0
DWIDTH 16 0
BBX 16 16 0 -2
BITMAP
0180
0660
1008
1008
1008
1008
1008
1008
1008
1008
1008
1008
1008
0810
07E0
0000
ENDCHAR

STARTCHAR jisx0212_2A66
ENCODING 10854
SWIDTH 960 0
DWIDTH 16 0
BBX 16 16 0 -2
BITMAP
0440
0380
1008
1008
1008
1008
1008
1008
1008
1008
1008
1008
1008
0810
07E0
0000
ENDCHAR

STARTCHAR jisx0212_2A67
ENCODING 10855
SWIDTH 960 0
DWIDTH 16 0
BBX 16 16 0 -2
BITMAP
0660
0180
1008
1008
1008
1008
1008
1008
1008
1008
1008
1008
1008
0810
07E0
0000
ENDCHAR

STARTCHAR jisx0212_2A68
ENCODING 10856
SWIDTH 960 0
DWIDTH 16 0
BBX 16 16 0 -2
BITMAP
0318
0C60
0000
1008
1008
1008
1008
1008
1008
1008
1008
1008
1008
0810
07E0
0000
ENDCHAR

STARTCHAR jisx0212_2A69
ENCODING 10857
SWIDTH 960 0
DWIDTH 16 0
BBX 16 16 0 -2
BITMAP
07E0
0000
1008
1008
1008
1008
1008
1008
1008
1008
1008
1008
1008
0810
07E0
0000
ENDCHAR

STARTCHAR jisx0212_2A6A
ENCODING 10858
SWIDTH 960 0
DWIDTH 16 0
BBX 16 16 0 -2
BITMAP
0000
1008
1008
1008
1008
1008
1008
1008
1008
1008
1008
0810
07E0
0100
0200
01C0
ENDCHAR

STARTCHAR jisx0212_2A6B
ENCODING 10859
SWIDTH 960 0
DWIDTH 16 0
BBX 16 16 0 -2
BITMAP
0180
0240
0240
1188
1008
1008
1008
1008
1008
1008
1008
1008
1008
0810
07E0
0000
ENDCHAR

STARTCHAR jisx0212_2A6C
ENCODING 10860
SWIDTH 960 0
DWIDTH 16 0
BBX 16 16 0 -2
BITMAP
0320
04C0
1008
1008
1008
1008
1008
1008
1008
1008
1008
1008
1008
0810
07E0
0000
ENDCHAR

STARTCHAR jisx0212_2A6D
ENCODING 10861
SWIDTH 960 0
DWIDTH 16 0
BBX 16 16 0 -2
BITMAP
0060
0180
0C30
0C30
0000
1008
1008
1008
1008
1008
1008
1008
1008
0810
07E0
0000
ENDCHAR

STARTCHAR jisx0212_2A6E
ENCODING 10862
SWIDTH 960 0
DWIDTH 16 0
BBX 16 16 0 -2
BITMAP
0600
0180
0C30
0C30
0000
1008
1008
1008
1008
1008
1008
1008
1008
0810
07E0
0000
ENDCHAR

STARTCHAR jisx0212_2A6F
ENCODING 10863
SWIDTH 960 0
DWIDTH 16 0
BBX 16 16 0 -2
BITMAP
0660
0180
0C30
0C30
0000
1008
1008
1008
1008
1008
1008
1008
1008
0810
07E0
0000
ENDCHAR

STARTCHAR jisx0212_2A70
ENCODING 10864
SWIDTH 960 0
DWIDTH 16 0
BBX 16 16 0 -2
BITMAP
07E0
0000
0660
0660
1008
1008
1008
1008
1008
1008
1008
1008
1008
0810
07E0
0000
ENDCHAR

STARTCHAR jisx0212_2A71
ENCODING 10865
SWIDTH 960 0
DWIDTH 16 0
BBX 16 16 0 -2
BITMAP
0180
0660
0000
4182
4182
4182
2244
2244
2244
1428
1428
1428
0810
0810
0810
0000
ENDCHAR

STARTCHAR jisx0212_2A72
ENCODING 10866
SWIDTH 960 0
DWIDTH 16 0
BBX 16 16 0 -2
BITMAP
00C0
0300
2008
1010
1010
0820
0440
0440
0280
0100
0100
0100
0100
0100
0100
0000
ENDCHAR

STARTCHAR jisx0212_2A73
ENCODING 10867
SWIDTH 960 0
DWIDTH 16 0
BBX 16 16 0 -2
BITMAP
0C60
0C60
2008
1010
1010
0820
0440
0440
0280
0100
0100
0100
0100
0100
0100
0000
ENDCHAR

STARTCHAR jisx0212_2A74
ENCODING 10868
SWIDTH 960 0
DWIDTH 16 0
BBX 16 16 0 -2
BITMAP
0300
0CC0
2008
1010
1010
0820
0440
0440
0280
0100
0100
0100
0100
0100
0100
0000
ENDCHAR

STARTCHAR jisx0212_2A75
ENCODING 10869
SWIDTH 960 0
DWIDTH 16 0
BBX 16 16 0 -2
BITMAP
00C0
0300
0000
0FF0
0010
0020
0040
0080
0100
0100
0200
0400
0800
1000
1FF0
0000
ENDCHAR

STARTCHAR jisx0212_2A76
ENCODING 10870
SWIDTH 960 0
DWIDTH 16 0
BBX 16 16 0 -2
BITMAP
0660
0180
0000
0FF0
0010
0020
0040
0080
0100
0100
0200
0400
0800
1000
1FF0
0000
ENDCHAR

STARTCHAR jisx0212_2A77
ENCODING 10871
SWIDTH 960 0
DWIDTH 16 0
BBX 16 16 0 -2
BITMAP
0180
0180
0000
0FF0
0010
0020
0040
0080
0100
0100
0200
0400
0800
1000
1FF0
0000
ENDCHAR

STARTCHAR jisx0212_2B21
ENCODING 11041
SWIDTH 960 0
DWIDTH 16 0
BBX 16 16 0 -2
BITMAP
0000
0180
0600
0000
0000
07C0
0820
1010
0010
07F0
0810
1010
1010
0830
07D0
0000
ENDCHAR

STARTCHAR jisx0212_2B22
ENCODING 11042
SWIDTH 960 0
DWIDTH 16 0
BBX 16 16 0 -2
BITMAP
0000
0600
0180
0000
0000
07C0
0820
1010
0010
07F0
0810
1010
1010
0830
07D0
0000
ENDCHAR

STARTCHAR jisx0212_2B23
ENCODING 11043
SWIDTH 960 0
DWIDTH 16 0
BBX 16 16 0 -2
BITMAP
0000
0CC0
0CC0
0000
0000
07C0
0820
1010
0010
07F0
0810
1010
1010
0830
07D0
0000
ENDCHAR

STARTCHAR jisx0212_2B24
ENCODING 11044
SWIDTH 960 0
DWIDTH 16 0
BBX 16 16 0 -2
BITMAP
0000
0300
0CC0
0000
0000
07C0
0820
1010
0010
07F0
0810
1010
1010
0830
07D0
0000
ENDCHAR

STARTCHAR jisx0212_2B25
ENCODING 11045
SWIDTH 960 0
DWIDTH 16 0
BBX 16 16 0 -2
BITMAP
0000
0440
0380
0000
0000
07C0
0820
1010
0010
07F0
0810
1010
1010
0830
07D0
0000
ENDCHAR

STARTCHAR jisx0212_2B26
ENCODING 11046
SWIDTH 960 0
DWIDTH 16 0
BBX 16 16 0 -2
BITMAP
0000
0CC0
0300
0000
0000
07C0
0820
1010
0010
07F0
0810
1010
1010
0830
07D0
0000
ENDCHAR

STARTCHAR jisx0212_2B27
ENCODING 11047
SWIDTH 960 0
DWIDTH 16 0
BBX 16 16 0 -2
BITMAP
0000
0000
0FC0
0000
0000
07C0
0820
1010
0010
07F0
0810
1010
1010
0830
07D0
0000
ENDCHAR

STARTCHAR jisx0212_2B28
ENCODING 11048
SWIDTH 960 0
DWIDTH 16 0
BBX 16 16 0 -2
BITMAP
0000
0000
0000
0000
0000
07C0
0820
1010
07F0
0810
1010
1010
0830
07D0
0020
0038
ENDCHAR

STARTCHAR jisx0212_2B29
ENCODING 11049
SWIDTH 960 0
DWIDTH 16 0
BBX 16 16 0 -2
BITMAP
0000
0180
0240
0240
0180
07C0
0820
1010
0010
07F0
0810
1010
1010
0830
07D0
0000
ENDCHAR

STARTCHAR jisx0212_2B2A
ENCODING 11050
SWIDTH 960 0
DWIDTH 16 0
BBX 16 16 0 -2
BITMAP
0000
0640
0980
0000
0000
07C0
0820
1010
0010
07F0
0810
1010
1010
0830
07D0
0000
ENDCHAR

STARTCHAR jisx0212_2B2B
ENCODING 11051
SWIDTH 960 0
DWIDTH 16 0
BBX 16 16 0 -2
BITMAP
0000
0180
0600
0000
0000
07C0
0820
1010
1000
1000
1000
1000
1010
0820
07C0
0000
ENDCHAR

STARTCHAR jisx0212_2B2C
ENCODING 11052
SWIDTH 960 0
DWIDTH 16 0
BBX 16 16 0 -2
BITMAP
0000
0300
0CC0
0000
0000
07C0
0820
1010
1000
1000
1000
1000
1010
0820
07C0
0000
ENDCHAR

STARTCHAR jisx0212_2B2D
ENCODING 11053
SWIDTH 960 0
DWIDTH 16 0
BBX 16 16 0 -2
BITMAP
0000
0CC0
0300
0000
0000
07C0
0820
1010
1000
1000
1000
1000
1010
0820
07C0
0000
ENDCHAR

STARTCHAR jisx0212_2B2E
ENCODING 11054
SWIDTH 960 0
DWIDTH 16 0
BBX 16 16 0 -2
BITMAP
0000
0000
0000
0000
0000
07C0
0820
1010
1000
1000
1000
1010
0820
07C0
0080
0380
ENDCHAR

STARTCHAR jisx0212_2B2F
ENCODING 11055
SWIDTH 960 0
DWIDTH 16 0
BBX 16 16 0 -2
BITMAP
0000
0300
0300
0000
0000
07C0
0820
1010
1000
1000
1000
1000
1010
0820
07C0
0000
ENDCHAR

STARTCHAR jisx0212_2B30
ENCODING 11056
SWIDTH 960 0
DWIDTH 16 0
BBX 16 16 0 -2
BITMAP
0660
0180
0010
0010
0010
03D0
0430
0810
0810
0810
0810
0810
0810
0430
03D0
0000
ENDCHAR

STARTCHAR jisx0212_2B31
ENCODING 11057
SWIDTH 960 0
DWIDTH 16 0
BBX 16 16 0 -2
BITMAP
0000
0180
0600
0000
0000
07C0
0820
1010
1010
1FF0
1000
1000
1010
0820
07C0
0000
ENDCHAR

STARTCHAR jisx0212_2B32
ENCODING 11058
SWIDTH 960 0
DWIDTH 16 0
BBX 16 16 0 -2
BITMAP
0000
0600
0180
0000
0000
07C0
0820
1010
1010
1FF0
1000
1000
1010
0820
07C0
0000
ENDCHAR

STARTCHAR jisx0212_2B33
ENCODING 11059
SWIDTH 960 0
DWIDTH 16 0
BBX 16 16 0 -2
BITMAP
0000
0CC0
0CC0
0000
0000
07C0
0820
1010
1010
1FF0
1000
1000
1010
0820
07C0
0000
ENDCHAR

STARTCHAR jisx0212_2B34
ENCODING 11060
SWIDTH 960 0
DWIDTH 16 0
BBX 16 16 0 -2
BITMAP
0000
0300
0CC0
0000
0000
07C0
0820
1010
1010
1FF0
1000
1000
1010
0820
07C0
0000
ENDCHAR

STARTCHAR jisx0212_2B35
ENCODING 11061
SWIDTH 960 0
DWIDTH 16 0
BBX 16 16 0 -2
BITMAP
0000
0CC0
0300
0000
0000
07C0
0820
1010
1010
1FF0
1000
1000
1010
0820
07C0
0000
ENDCHAR

STARTCHAR jisx0212_2B36
ENCODING 11062
SWIDTH 960 0
DWIDTH 16 0
BBX 16 16 0 -2
BITMAP
0000
0300
0300
0000
0000
07C0
0820
1010
1010
1FF0
1000
1000
1010
0820
07C0
0000
ENDCHAR

STARTCHAR jisx0212_2B37
ENCODING 11063
SWIDTH 960 0
DWIDTH 16 0
BBX 16 16 0 -2
BITMAP
0000
0000
0FC0
0000
0000
07C0
0820
1010
1010
1FF0
1000
1000
1010
0820
07C0
0000
ENDCHAR

STARTCHAR jisx0212_2B38
ENCODING 11064
SWIDTH 960 0
DWIDTH 16 0
BBX 16 16 0 -2
BITMAP
0000
0000
0000
0000
0000
07C0
0820
1010
1010
1FF0
1000
1000
0810
07E0
0080
00E0
ENDCHAR

STARTCHAR jisx0212_2B39
ENCODING 11065
SWIDTH 960 0
DWIDTH 16 0
BBX 16 16 0 -2
BITMAP
0000
00C0
0300
0000
0000
03D0
0430
0810
0810
0810
0810
0430
03D0
0810
0420
03C0
ENDCHAR

STARTCHAR jisx0212_2B3A
ENCODING 11066
SWIDTH 960 0
DWIDTH 16 0
BBX 16 16 0 -2
BITMAP
0000
0180
0660
0000
0000
03D0
0430
0810
0810
0810
0810
0430
03D0
0810
0420
03C0
ENDCHAR

STARTCHAR jisx0212_2B3B
ENCODING 11067
SWIDTH 960 0
DWIDTH 16 0
BBX 16 16 0 -2
BITMAP
0000
0440
0380
0000
0000
03D0
0430
0810
0810
0810
0810
0430
03D0
0810
0420
03C0
ENDCHAR

STARTCHAR jisx0212_2B3D
ENCODING 11069
SWIDTH 960 0
DWIDTH 16 0
BBX 16 16 0 -2
BITMAP
0000
0180
0180
0000
0000
03D0
0430
0810
0810
0810
0810
0430
03D0
0810
0420
03C0
ENDCHAR

STARTCHAR jisx0212_2B3E
ENCODING 11070
SWIDTH 960 0
DWIDTH 16 0
BBX 16 16 0 -2
BITMAP
0180
0660
0800
0800
0800
0BE0
0C10
0810
0810
0810
0810
0810
0810
0810
0810
0000
ENDCHAR

STARTCHAR jisx0212_2B3F
ENCODING 11071
SWIDTH 960 0
DWIDTH 16 0
BBX 16 16 0 -2
BITMAP
0000
0180
0600
0000
0000
0100
0100
0100
0100
0100
0100
0100
0100
0100
0100
0000
ENDCHAR

STARTCHAR jisx0212_2B40
ENCODING 11072
SWIDTH 960 0
DWIDTH 16 0
BBX 16 16 0 -2
BITMAP
0000
0600
0180
0000
0000
0100
0100
0100
0100
0100
0100
0100
0100
0100
0100
0000
ENDCHAR

STARTCHAR jisx0212_2B41
ENCODING 11073
SWIDTH 960 0
DWIDTH 16 0
BBX 16 16 0 -2
BITMAP
0000
0CC0
0CC0
0000
0000
0100
0100
0100
0100
0100
0100
0100
0100
0100
0100
0000
ENDCHAR

STARTCHAR jisx0212_2B42
ENCODING 11074
SWIDTH 960 0
DWIDTH 16 0
BBX 16 16 0 -2
BITMAP
0000
0300
0CC0
0000
0000
0100
0100
0100
0100
0100
0100
0100
0100
0100
0100
0000
ENDCHAR

STARTCHAR jisx0212_2B43
ENCODING 11075
SWIDTH 960 0
DWIDTH 16 0
BBX 16 16 0 -2
BITMAP
0000
0CC0
0300
0000
0000
0100
0100
0100
0100
0100
0100
0100
0100
0100
0100
0000
ENDCHAR

STARTCHAR jisx0212_2B45
ENCODING 11077
SWIDTH 960 0
DWIDTH 16 0
BBX 16 16 0 -2
BITMAP
0000
0000
07C0
0000
0000
0100
0100
0100
0100
0100
0100
0100
0100
0100
0100
0000
ENDCHAR

STARTCHAR jisx0212_2B46
ENCODING 11078
SWIDTH 960 0
DWIDTH 16 0
BBX 16 16 0 -2
BITMAP
0000
0300
0300
0000
0000
0100
0100
0100
0100
0100
0100
0100
0100
0100
0200
01C0
ENDCHAR

STARTCHAR jisx0212_2B47
ENCODING 11079
SWIDTH 960 0
DWIDTH 16 0
BBX 16 16 0 -2
BITMAP
0000
0640
0980
0000
0000
0100
0100
0100
0100
0100
0100
0100
0100
0100
0100
0000
ENDCHAR

STARTCHAR jisx0212_2B48
ENCODING 11080
SWIDTH 960 0
DWIDTH 16 0
BBX 16 16 0 -2
BITMAP
0000
0300
0CC0
0000
0000
0100
0100
0100
0100
0100
0100
0100
0100
0100
0100
0E00
ENDCHAR

STARTCHAR jisx0212_2B49
ENCODING 11081
SWIDTH 960 0
DWIDTH 16 0
BBX 16 16 0 -2
BITMAP
0000
0800
0800
0800
0800
0820
0840
0880
0900
0A80
0C40
0840
0920
0910
0080
0380
ENDCHAR

STARTCHAR jisx0212_2B4A
ENCODING 11082
SWIDTH 960 0
DWIDTH 16 0
BBX 16 16 0 -2
BITMAP
0180
0600
0000
0100
0100
0100
0100
0100
0100
0100
0100
0100
0100
0100
01C0
0000
ENDCHAR

STARTCHAR jisx0212_2B4B
ENCODING 11083
SWIDTH 960 0
DWIDTH 16 0
BBX 16 16 0 -2
BITMAP
0CC0
0300
0000
0100
0100
0100
0100
0100
0100
0100
0100
0100
0100
0100
01C0
0000
ENDCHAR

STARTCHAR jisx0212_2B4C
ENCODING 11084
SWIDTH 960 0
DWIDTH 16 0
BBX 16 16 0 -2
BITMAP
0000
0100
0100
0100
0100
0100
0100
0100
0100
0100
0100
0100
0100
01C0
0080
0380
ENDCHAR

STARTCHAR jisx0212_2B4D
ENCODING 11085
SWIDTH 960 0
DWIDTH 16 0
BBX 16 16 0 -2
BITMAP
0000
00C0
0300
0000
0000
0BE0
0C10
0810
0810
0810
0810
0810
0810
0810
0810
0000
ENDCHAR

STARTCHAR jisx0212_2B4E
ENCODING 11086
SWIDTH 960 0
DWIDTH 16 0
BBX 16 16 0 -2
BITMAP
0000
0660
0180
0000
0000
0BE0
0C10
0810
0810
0810
0810
0810
0810
0810
0810
0000
ENDCHAR

STARTCHAR jisx0212_2B4F
ENCODING 11087
SWIDTH 960 0
DWIDTH 16 0
BBX 16 16 0 -2
BITMAP
0000
0000
0000
0000
0000
0BE0
0C10
0810
0810
0810
0810
0810
0910
0910
0080
0380
ENDCHAR

STARTCHAR jisx0212_2B50
ENCODING 11088
SWIDTH 960 0
DWIDTH 16 0
BBX 16 16 0 -2
BITMAP
0000
0320
04C0
0000
0000
0BE0
0C10
0810
0810
0810
0810
0810
0810
0810
0810
0000
ENDCHAR

STARTCHAR jisx0212_2B51
ENCODING 11089
SWIDTH 960 0
DWIDTH 16 0
BBX 16 16 0 -2
BITMAP
0000
0180
0600
0000
0000
07C0
0820
1010
1010
1010
1010
1010
1010
0820
07C0
0000
ENDCHAR

STARTCHAR jisx0212_2B52
ENCODING 11090
SWIDTH 960 0
DWIDTH 16 0
BBX 16 16 0 -2
BITMAP
0000
0600
0180
0000
0000
07C0
0820
1010
1010
1010
1010
1010
1010
0820
07C0
0000
ENDCHAR

STARTCHAR jisx0212_2B53
ENCODING 11091
SWIDTH 960 0
DWIDTH 16 0
BBX 16 16 0 -2
BITMAP
0000
0CC0
0CC0
0000
0000
07C0
0820
1010
1010
1010
1010
1010
1010
0820
07C0
0000
ENDCHAR

STARTCHAR jisx0212_2B54
ENCODING 11092
SWIDTH 960 0
DWIDTH 16 0
BBX 16 16 0 -2
BITMAP
0000
0300
0CC0
0000
0000
07C0
0820
1010
1010
1010
1010
1010
1010
0820
07C0
0000
ENDCHAR

STARTCHAR jisx0212_2B55
ENCODING 11093
SWIDTH 960 0
DWIDTH 16 0
BBX 16 16 0 -2
BITMAP
0000
0CC0
0300
0000
0000
07C0
0820
1010
1010
1010
1010
1010
1010
0820
07C0
0000
ENDCHAR

STARTCHAR jisx0212_2B56
ENCODING 11094
SWIDTH 960 0
DWIDTH 16 0
BBX 16 16 0 -2
BITMAP
0000
0630
18C0
0000
0000
07C0
0820
1010
1010
1010
1010
1010
1010
0820
07C0
0000
ENDCHAR

STARTCHAR jisx0212_2B57
ENCODING 11095
SWIDTH 960 0
DWIDTH 16 0
BBX 16 16 0 -2
BITMAP
0000
0000
0FC0
0000
0000
07C0
0820
1010
1010
1010
1010
1010
1010
0820
07C0
0000
ENDCHAR

STARTCHAR jisx0212_2B58
ENCODING 11096
SWIDTH 960 0
DWIDTH 16 0
BBX 16 16 0 -2
BITMAP
0000
0640
0980
0000
0000
07C0
0820
1010
1010
1010
1010
1010
1010
0820
07C0
0000
ENDCHAR

STARTCHAR jisx0212_2B59
ENCODING 11097
SWIDTH 960 0
DWIDTH 16 0
BBX 16 16 0 -2
BITMAP
0000
00C0
0300
0000
0000
0260
0280
0300
0200
0200
0200
0200
0200
0200
0200
0000
ENDCHAR

STARTCHAR jisx0212_2B5A
ENCODING 11098
SWIDTH 960 0
DWIDTH 16 0
BBX 16 16 0 -2
BITMAP
0000
0660
0180
0000
0000
0260
0280
0300
0200
0200
0200
0200
0200
0200
0200
0000
ENDCHAR

STARTCHAR jisx0212_2B5B
ENCODING 11099
SWIDTH 960 0
DWIDTH 16 0
BBX 16 16 0 -2
BITMAP
0000
0000
0000
0000
0000
0260
0280
0300
0200
0200
0200
0200
0200
0200
0100
0700
ENDCHAR

STARTCHAR jisx0212_2B5C
ENCODING 11100
SWIDTH 960 0
DWIDTH 16 0
BBX 16 16 0 -2
BITMAP
0000
00C0
0300
0000
0000
07E0
0810
0810
0800
0700
00E0
0010
0810
0810
07E0
0000
ENDCHAR

STARTCHAR jisx0212_2B5D
ENCODING 11101
SWIDTH 960 0
DWIDTH 16 0
BBX 16 16 0 -2
BITMAP
0000
0180
0660
0000
0000
07E0
0810
0810
0800
0700
00E0
0010
0810
0810
07E0
0000
ENDCHAR

STARTCHAR jisx0212_2B5E
ENCODING 11102
SWIDTH 960 0
DWIDTH 16 0
BBX 16 16 0 -2
BITMAP
0000
0660
0180
0000
0000
07E0
0810
0810
0800
0700
00E0
0010
0810
0810
07E0
0000
ENDCHAR

STARTCHAR jisx0212_2B5F
ENCODING 11103
SWIDTH 960 0
DWIDTH 16 0
BBX 16 16 0 -2
BITMAP
0000
0000
0000
0000
0000
07E0
0810
0810
0700
00E0
0010
0810
0810
07E0
0080
0380
ENDCHAR

STARTCHAR jisx0212_2B60
ENCODING 11104
SWIDTH 960 0
DWIDTH 16 0
BBX 16 16 0 -2
BITMAP
0660
0180
0000
0100
0100
07E0
0100
0100
0100
0100
0100
0100
0100
0100
00E0
0000
ENDCHAR

STARTCHAR jisx0212_2B61
ENCODING 11105
SWIDTH 960 0
DWIDTH 16 0
BBX 16 16 0 -2
BITMAP
0000
0100
0100
0100
0100
07E0
0100
0100
0100
0100
0100
0100
0100
00E0
0040
01C0
ENDCHAR

STARTCHAR jisx0212_2B62
ENCODING 11106
SWIDTH 960 0
DWIDTH 16 0
BBX 16 16 0 -2
BITMAP
0000
00C0
0300
0000
0000
0810
0810
0810
0810
0810
0810
0810
0810
0830
07D0
0000
ENDCHAR

STARTCHAR jisx0212_2B63
ENCODING 11107
SWIDTH 960 0
DWIDTH 16 0
BBX 16 16 0 -2
BITMAP
0000
0300
00C0
0000
0000
0810
0810
0810
0810
0810
0810
0810
0810
0830
07D0
0000
ENDCHAR

STARTCHAR jisx0212_2B64
ENCODING 11108
SWIDTH 960 0
DWIDTH 16 0
BBX 16 16 0 -2
BITMAP
0000
0660
0660
0000
0000
0810
0810
0810
0810
0810
0810
0810
0810
0830
07D0
0000
ENDCHAR

STARTCHAR jisx0212_2B65
ENCODING 11109
SWIDTH 960 0
DWIDTH 16 0
BBX 16 16 0 -2
BITMAP
0000
0180
0660
0000
0000
0810
0810
0810
0810
0810
0810
0810
0810
0830
07D0
0000
ENDCHAR

STARTCHAR jisx0212_2B66
ENCODING 11110
SWIDTH 960 0
DWIDTH 16 0
BBX 16 16 0 -2
BITMAP
0000
0440
0380
0000
0000
0810
0810
0810
0810
0810
0810
0810
0810
0830
07D0
0000
ENDCHAR

STARTCHAR jisx0212_2B67
ENCODING 11111
SWIDTH 960 0
DWIDTH 16 0
BBX 16 16 0 -2
BITMAP
0000
0660
0180
0000
0000
0810
0810
0810
0810
0810
0810
0810
0810
0830
07D0
0000
ENDCHAR

STARTCHAR jisx0212_2B68
ENCODING 11112
SWIDTH 960 0
DWIDTH 16 0
BBX 16 16 0 -2
BITMAP
0000
0630
18C0
0000
0000
0810
0810
0810
0810
0810
0810
0810
0810
0830
07D0
0000
ENDCHAR

STARTCHAR jisx0212_2B69
ENCODING 11113
SWIDTH 960 0
DWIDTH 16 0
BBX 16 16 0 -2
BITMAP
0000
0000
07E0
0000
0000
0810
0810
0810
0810
0810
0810
0810
0810
0830
07D0
0000
ENDCHAR

STARTCHAR jisx0212_2B6A
ENCODING 11114
SWIDTH 960 0
DWIDTH 16 0
BBX 16 16 0 -2
BITMAP
0000
0000
0000
0000
0000
0810
0810
0810
0810
0810
0810
0810
0830
07D0
0020
0038
ENDCHAR

STARTCHAR jisx0212_2B6B
ENCODING 11115
SWIDTH 960 0
DWIDTH 16 0
BBX 16 16 0 -2
BITMAP
0000
0180
0240
0240
0180
0810
0810
0810
0810
0810
0810
0810
0810
0830
07D0
0000
ENDCHAR

STARTCHAR jisx0212_2B6C
ENCODING 11116
SWIDTH 960 0
DWIDTH 16 0
BBX 16 16 0 -2
BITMAP
0000
0320
04C0
0000
0000
0810
0810
0810
0810
0810
0810
0810
0810
0830
07D0
0000
ENDCHAR

STARTCHAR jisx0212_2B6D
ENCODING 11117
SWIDTH 960 0
DWIDTH 16 0
BBX 16 16 0 -2
BITMAP
00C0
0300
0000
0660
0660
0000
0810
0810
0810
0810
0810
0810
0810
0830
07D0
0000
ENDCHAR

STARTCHAR jisx0212_2B6E
ENCODING 11118
SWIDTH 960 0
DWIDTH 16 0
BBX 16 16 0 -2
BITMAP
0300
00C0
0000
0660
0660
0000
0810
0810
0810
0810
0810
0810
0810
0830
07D0
0000
ENDCHAR

STARTCHAR jisx0212_2B6F
ENCODING 11119
SWIDTH 960 0
DWIDTH 16 0
BBX 16 16 0 -2
BITMAP
0660
0180
0000
0660
0660
0000
0810
0810
0810
0810
0810
0810
0810
0830
07D0
0000
ENDCHAR

STARTCHAR jisx0212_2B70
ENCODING 11120
SWIDTH 960 0
DWIDTH 16 0
BBX 16 16 0 -2
BITMAP
07E0
0000
0660
0660
0000
0810
0810
0810
0810
0810
0810
0810
0810
0830
07D0
0000
ENDCHAR

STARTCHAR jisx0212_2B71
ENCODING 11121
SWIDTH 960 0
DWIDTH 16 0
BBX 16 16 0 -2
BITMAP
0000
0300
0CC0
0000
0000
4104
4104
2288
2288
2288
1450
1450
1450
0820
0820
0000
ENDCHAR

STARTCHAR jisx0212_2B72
ENCODING 11122
SWIDTH 960 0
DWIDTH 16 0
BBX 16 16 0 -2
BITMAP
0000
00C0
0300
0000
0000
0810
0810
0420
0420
0240
0240
0180
0180
0100
0100
0E00
ENDCHAR

STARTCHAR jisx0212_2B73
ENCODING 11123
SWIDTH 960 0
DWIDTH 16 0
BBX 16 16 0 -2
BITMAP
0000
0660
0660
0000
0000
0810
0810
0420
0420
0240
0240
0180
0180
0100
0100
0E00
ENDCHAR

STARTCHAR jisx0212_2B74
ENCODING 11124
SWIDTH 960 0
DWIDTH 16 0
BBX 16 16 0 -2
BITMAP
0000
0180
0660
0000
0000
0810
0810
0420
0420
0240
0240
0180
0180
0100
0100
0E00
ENDCHAR

STARTCHAR jisx0212_2B75
ENCODING 11125
SWIDTH 960 0
DWIDTH 16 0
BBX 16 16 0 -2
BITMAP
0000
00C0
0300
0000
0000
07F0
0010
0020
0040
0080
0100
0200
0400
0800
0FF0
0000
ENDCHAR

STARTCHAR jisx0212_2B76
ENCODING 11126
SWIDTH 960 0
DWIDTH 16 0
BBX 16 16 0 -2
BITMAP
0000
0660
0180
0000
0000
07F0
0010
0020
0040
0080
0100
0200
0400
0800
0FF0
0000
ENDCHAR

STARTCHAR jisx0212_2B77
ENCODING 11127
SWIDTH 960 0
DWIDTH 16 0
BBX 16 16 0 -2
BITMAP
0000
0180
0180
0000
0000
07F0
0010
0020
0040
0080
0100
0200
0400
0800
0FF0
0000
ENDCHAR

STARTCHAR jisx0212_3021
ENCODING 12321
SWIDTH 960 0
DWIDTH 16 0
BBX 16 16 0 -2
BITMAP
0000
7FFE
0400
0400
0400
0800
0800
0FF8
0808
1008
1008
0008
0008
0010
0010
01E0
ENDCHAR

STARTCHAR jisx0212_3022
ENCODING 12322
SWIDTH 960 0
DWIDTH 16 0
BBX 16 16 0 -2
BITMAP
0100
0100
0100
0100
0100
0100
0100
0100
0100
0100
0100
0100
0100
0100
FFFE
0000
ENDCHAR

STARTCHAR jisx0212_3023
ENCODING 12323
SWIDTH 960 0
DWIDTH 16 0
BBX 16 16 0 -2
BITMAP
0000
FFFE
0100
0100
0100
0100
0100
0100
0100
0100
0100
0100
0100
0100
0100
0100
ENDCHAR

STARTCHAR jisx0212_3024
ENCODING 12324
SWIDTH 960 0
DWIDTH 16 0
BBX 16 16 0 -2
BITMAP
0000
FFFF
0820
0820
0820
0820
0820
0820
0820
0820
1020
1020
1020
2020
4020
8020
ENDCHAR

STARTCHAR jisx0212_3025
ENCODING 12325
SWIDTH 960 0
DWIDTH 16 0
BBX 16 16 0 -2
BITMAP
0000
7FFC
0004
0084
0084
3104
0D04
0204
0504
0484
0844
1008
2008
4070
0000
FFFE
ENDCHAR

STARTCHAR jisx0212_3026
ENCODING 12326
SWIDTH 960 0
DWIDTH 16 0
BBX 16 16 0 -2
BITMAP
0000
7FFC
0100
0100
3FF8
0100
0100
FFFE
0200
0440
0420
0810
0808
11F8
FE04
0004
ENDCHAR

STARTCHAR jisx0212_3027
ENCODING 12327
SWIDTH 960 0
DWIDTH 16 0
BBX 16 16 0 -2
BITMAP
0000
FFFF
0240
0240
0240
7E7E
4242
4242
4242
7E7E
4242
0240
0440
0440
1840
6040
ENDCHAR

STARTCHAR jisx0212_3028
ENCODING 12328
SWIDTH 960 0
DWIDTH 16 0
BBX 16 16 0 -2
BITMAP
0000
FFFF
0440
0440
7FFE
4442
4442
4662
4952
4892
508A
610A
4202
4002
4002
400E
ENDCHAR

STARTCHAR jisx0212_3029
ENCODING 12329
SWIDTH 960 0
DWIDTH 16 0
BBX 16 16 0 -2
BITMAP
0100
0100
0100
0100
0100
0100
0100
0100
0100
0100
0100
0100
0100
0100
0100
0100
ENDCHAR

STARTCHAR jisx0212_302A
ENCODING 12330
SWIDTH 960 0
DWIDTH 16 0
BBX 16 16 0 -2
BITMAP
0000
1010
0820
0440
0280
0100
0100
0100
0100
0100
0100
0100
0100
0100
0100
0100
ENDCHAR

STARTCHAR jisx0212_302B
ENCODING 12331
SWIDTH 960 0
DWIDTH 16 0
BBX 16 16 0 -2
BITMAP
0000
FFF8
0008
0408
0408
0408
7FC8
0408
0408
0408
FFE8
0409
0405
0405
0403
0401
ENDCHAR

STARTCHAR jisx0212_302C
ENCODING 12332
SWIDTH 960 0
DWIDTH 16 0
BBX 16 16 0 -2
BITMAP
0100
0118
0160
0780
7900
0118
0160
0780
7900
010C
0170
0780
F900
0100
0100
0100
ENDCHAR

STARTCHAR jisx0212_302D
ENCODING 12333
SWIDTH 960 0
DWIDTH 16 0
BBX 16 16 0 -2
BITMAP
0100
0100
0100
7FFC
0100
0100
0100
3FF8
0100
0100
0100
FFFE
0100
0100
0100
0100
ENDCHAR

STARTCHAR jisx0212_302E
ENCODING 12334
SWIDTH 960 0
DWIDTH 16 0
BBX 16 16 0 -2
BITMAP
0440
2448
2448
2448
2448
FFFE
0820
0420
0440
7FFC
0100
0100
FFFE
0100
0100
0100
ENDCHAR

STARTCHAR jisx0212_302F
ENCODING 12335
SWIDTH 960 0
DWIDTH 16 0
BBX 16 16 0 -2
BITMAP
0000
0000
0800
0800
1800
1400
2400
4200
0200
0100
0080
0040
0030
000C
0003
0000
ENDCHAR

STARTCHAR jisx0212_3030
ENCODING 12336
SWIDTH 960 0
DWIDTH 16 0
BBX 16 16 0 -2
BITMAP
0000
1FE0
0020
0020
0020
0020
0020
0020
0010
0010
0010
0008
0008
0004
0002
0001
ENDCHAR

STARTCHAR jisx0212_3031
ENCODING 12337
SWIDTH 960 0
DWIDTH 16 0
BBX 16 16 0 -2
BITMAP
0010
0010
0010
0020
1820
0620
0140
00C0
00A0
0110
0108
0204
4400
4800
5000
6000
ENDCHAR

STARTCHAR jisx0212_3032
ENCODING 12338
SWIDTH 960 0
DWIDTH 16 0
BBX 16 16 0 -2
BITMAP
0018
00E0
0F00
F200
0200
0200
0200
027E
FF80
0200
0200
0200
0202
0202
0202
01FE
ENDCHAR

STARTCHAR jisx0212_3033
ENCODING 12339
SWIDTH 960 0
DWIDTH 16 0
BBX 16 16 0 -2
BITMAP
0018
03E0
7D00
0100
0904
1188
1190
2160
4540
8920
0910
1108
2106
4101
8100
0100
ENDCHAR

STARTCHAR jisx0212_3034
ENCODING 12340
SWIDTH 960 0
DWIDTH 16 0
BBX 16 16 0 -2
BITMAP
0000
2000
2000
2000
2000
2000
2000
2000
2000
2000
2000
2004
2004
2004
1FFC
0000
ENDCHAR

STARTCHAR jisx0212_3035
ENCODING 12341
SWIDTH 960 0
DWIDTH 16 0
BBX 16 16 0 -2
BITMAP
0800
0800
0800
080C
0874
0B84
1C04
E804
0808
0808
0830
0800
0802
0802
0802
07FE
ENDCHAR

STARTCHAR jisx0212_3036
ENCODING 12342
SWIDTH 960 0
DWIDTH 16 0
BBX 16 16 0 -2
BITMAP
0820
0820
1020
1020
2020
A220
4220
2420
1420
0820
1220
1220
2121
4F21
F0A1
009F
ENDCHAR

STARTCHAR jisx0212_3037
ENCODING 12343
SWIDTH 960 0
DWIDTH 16 0
BBX 16 16 0 -2
BITMAP
0820
1020
1020
2220
2120
4F20
F0A0
00A0
0020
7F20
4120
4120
4121
4121
7F21
411F
ENDCHAR

STARTCHAR jisx0212_3038
ENCODING 12344
SWIDTH 960 0
DWIDTH 16 0
BBX 16 16 0 -2
BITMAP
0820
0820
0820
0820
0FA0
0820
0820
0820
0820
7F20
4120
4120
4121
4121
7F21
411F
ENDCHAR

STARTCHAR jisx0212_3039
ENCODING 12345
SWIDTH 960 0
DWIDTH 16 0
BBX 16 16 0 -2
BITMAP
1006
10F8
FE80
1080
1EFF
F088
1088
1108
7608
0008
7F80
0100
0201
0401
0801
07FE
ENDCHAR

STARTCHAR jisx0212_303A
ENCODING 12346
SWIDTH 960 0
DWIDTH 16 0
BBX 16 16 0 -2
BITMAP
0820
0820
0820
7F20
2220
2220
1420
1420
FFA0
0820
0820
7F20
0821
0821
0821
081F
ENDCHAR

STARTCHAR jisx0212_303B
ENCODING 12347
SWIDTH 960 0
DWIDTH 16 0
BBX 16 16 0 -2
BITMAP
0820
0820
FFA0
0820
0820
7F20
4120
7F20
4120
7F20
0820
0820
FFA1
0821
0821
081F
ENDCHAR

STARTCHAR jisx0212_303C
ENCODING 12348
SWIDTH 960 0
DWIDTH 16 0
BBX 16 16 0 -2
BITMAP
0320
3C20
4120
48A0
84A0
0820
5220
2420
1A20
1120
FEA0
08A0
2A21
2921
4921
881F
ENDCHAR

STARTCHAR jisx0212_303D
ENCODING 12349
SWIDTH 960 0
DWIDTH 16 0
BBX 16 16 0 -2
BITMAP
0000
7FFC
0000
0000
0000
0000
FFFE
0100
0100
0100
0100
0100
0100
0100
0100
0F00
ENDCHAR

STARTCHAR jisx0212_303E
ENCODING 12350
SWIDTH 960 0
DWIDTH 16 0
BBX 16 16 0 -2
BITMAP
0000
3FF8
0000
0000
0000
0000
7FFE
0000
0000
0000
3FFC
0000
0000
0000
0000
FFFF
ENDCHAR

STARTCHAR jisx0212_303F
ENCODING 12351
SWIDTH 960 0
DWIDTH 16 0
BBX 16 16 0 -2
BITMAP
0100
0100
4104
4104
4104
4104
7FFC
4004
0000
0000
3FF8
0000
0000
0000
0000
FFFE
ENDCHAR

STARTCHAR jisx0212_3040
ENCODING 12352
SWIDTH 960 0
DWIDTH 16 0
BBX 16 16 0 -2
BITMAP
0100
0220
0210
04F8
3F04
1010
1414
2222
2F2E
F0F1
0000
0000
1FF8
0000
0000
7FFE
ENDCHAR

STARTCHAR jisx0212_3041
ENCODING 12353
SWIDTH 960 0
DWIDTH 16 0
BBX 16 16 0 -2
BITMAP
0100
0100
FFFE
0000
1FF0
1010
1010
1FF0
0000
7FFC
4004
4004
7FFC
4004
4004
7FFC
ENDCHAR

STARTCHAR jisx0212_3042
ENCODING 12354
SWIDTH 960 0
DWIDTH 16 0
BBX 16 16 0 -2
BITMAP
0100
FFFE
1000
67DC
4444
775C
4444
775C
4544
FFFE
9012
9FF2
1010
1FF0
1010
FFFE
ENDCHAR

STARTCHAR jisx0212_3043
ENCODING 12355
SWIDTH 960 0
DWIDTH 16 0
BBX 16 16 0 -2
BITMAP
1000
1000
17FF
2020
2020
6020
6020
A020
2020
2020
2020
2020
2020
2020
2020
20E0
ENDCHAR

STARTCHAR jisx0212_3044
ENCODING 12356
SWIDTH 960 0
DWIDTH 16 0
BBX 16 16 0 -2
BITMAP
0100
0280
0440
0820
1010
610C
8102
0100
0100
7FFC
0100
0100
0100
0100
0100
0100
ENDCHAR

STARTCHAR jisx0212_3045
ENCODING 12357
SWIDTH 960 0
DWIDTH 16 0
BBX 16 16 0 -2
BITMAP
0100
0280
0440
0820
1010
600C
8102
0100
0100
4104
4104
4104
4104
4104
7FFC
4004
ENDCHAR

STARTCHAR jisx0212_3046
ENCODING 12358
SWIDTH 960 0
DWIDTH 16 0
BBX 16 16 0 -2
BITMAP
1000
100C
1070
2780
2080
6080
6080
A0BE
2FC0
2080
2080
2080
2080
2082
2082
207E
ENDCHAR

STARTCHAR jisx0212_3047
ENCODING 12359
SWIDTH 960 0
DWIDTH 16 0
BBX 16 16 0 -2
BITMAP
1000
13FE
1020
2020
2020
6020
6020
A7FF
2020
2020
2020
2020
2020
2020
2020
2020
ENDCHAR

STARTCHAR jisx0212_3048
ENCODING 12360
SWIDTH 960 0
DWIDTH 16 0
BBX 16 16 0 -2
BITMAP
1080
1080
1100
21FF
2200
6200
6400
ABE0
2020
2040
2080
2100
2101
2201
2201
21FE
ENDCHAR

STARTCHAR jisx0212_3049
ENCODING 12361
SWIDTH 960 0
DWIDTH 16 0
BBX 16 16 0 -2
BITMAP
1080
1080
1100
21FE
2202
6202
6402
A882
2042
2022
2022
2002
2002
2004
2004
2038
ENDCHAR

STARTCHAR jisx0212_304A
ENCODING 12362
SWIDTH 960 0
DWIDTH 16 0
BBX 16 16 0 -2
BITMAP
1000
17FE
1000
2000
2000
6000
6000
A3FC
2000
2000
2000
2000
2000
2000
2FFF
2000
ENDCHAR

STARTCHAR jisx0212_304B
ENCODING 12363
SWIDTH 960 0
DWIDTH 16 0
BBX 16 16 0 -2
BITMAP
1020
1020
1020
2128
2124
6122
6222
A221
2425
2425
28E8
2008
2010
2060
2180
2E00
ENDCHAR

STARTCHAR jisx0212_304C
ENCODING 12364
SWIDTH 960 0
DWIDTH 16 0
BBX 16 16 0 -2
BITMAP
10C0
10A0
1110
2108
2204
6402
69F1
A000
2000
27FC
2004
2008
2008
2010
2010
2020
ENDCHAR

STARTCHAR jisx0212_304D
ENCODING 12365
SWIDTH 960 0
DWIDTH 16 0
BBX 16 16 0 -2
BITMAP
1210
1210
1210
2210
2211
6212
63D4
A218
2210
2210
2210
2210
2210
2251
2391
2E0F
ENDCHAR

STARTCHAR jisx0212_304E
ENCODING 12366
SWIDTH 960 0
DWIDTH 16 0
BBX 16 16 0 -2
BITMAP
1100
1100
1100
23FE
2220
6220
6420
A820
2020
2FFF
2020
2020
2020
2020
2020
2020
ENDCHAR

STARTCHAR jisx0212_304F
ENCODING 12367
SWIDTH 960 0
DWIDTH 16 0
BBX 16 16 0 -2
BITMAP
11F8
1008
1108
2108
2204
6204
6402
ABFD
2084
2084
2084
2104
2104
2208
2408
2870
ENDCHAR

STARTCHAR jisx0212_3050
ENCODING 12368
SWIDTH 960 0
DWIDTH 16 0
BBX 16 16 0 -2
BITMAP
1000
17FE
1100
2100
2100
63FC
6204
A204
2204
2408
27F8
2408
2408
2010
2010
2FFF
ENDCHAR

STARTCHAR jisx0212_3051
ENCODING 12369
SWIDTH 960 0
DWIDTH 16 0
BBX 16 16 0 -2
BITMAP
1040
1040
1040
2FFF
2080
6080
6080
A0FC
2084
2104
2104
2104
2204
2208
2408
2870
ENDCHAR

STARTCHAR jisx0212_3052
ENCODING 12370
SWIDTH 960 0
DWIDTH 16 0
BBX 16 16 0 -2
BITMAP
10F8
1008
1108
2104
2204
6202
6442
A841
2080
2080
2088
2104
2102
223E
2FC1
2001
ENDCHAR

STARTCHAR jisx0212_3053
ENCODING 12371
SWIDTH 960 0
DWIDTH 16 0
BBX 16 16 0 -2
BITMAP
1020
1020
1020
27FF
2020
6020
63FE
A222
2222
2222
2222
2222
2222
222E
2020
2020
ENDCHAR

STARTCHAR jisx0212_3054
ENCODING 12372
SWIDTH 960 0
DWIDTH 16 0
BBX 16 16 0 -2
BITMAP
1000
17FE
1004
2108
2090
6060
6020
AFFF
2021
2022
2024
2020
2020
2020
2020
21E0
ENDCHAR

STARTCHAR jisx0212_3055
ENCODING 12373
SWIDTH 960 0
DWIDTH 16 0
BBX 16 16 0 -2
BITMAP
1000
1060
1018
2004
2080
6080
6084
A482
2482
2481
2481
2881
2881
2084
2084
207C
ENDCHAR

STARTCHAR jisx0212_3056
ENCODING 12374
SWIDTH 960 0
DWIDTH 16 0
BBX 16 16 0 -2
BITMAP
1000
17FC
1084
2084
2088
6088
61FE
A142
2142
2124
2124
2218
2218
2424
24C2
2B01
ENDCHAR

STARTCHAR jisx0212_3057
ENCODING 12375
SWIDTH 960 0
DWIDTH 16 0
BBX 16 16 0 -2
BITMAP
1000
13FF
1200
2200
2200
627E
6242
A242
2242
2242
224E
2240
2440
2441
2441
283F
ENDCHAR

STARTCHAR jisx0212_3058
ENCODING 12376
SWIDTH 960 0
DWIDTH 16 0
BBX 16 16 0 -2
BITMAP
1002
101C
11E0
2100
2100
6100
61FF
A108
2108
2108
2108
2208
2208
2208
2408
2808
ENDCHAR

STARTCHAR jisx0212_3059
ENCODING 12377
SWIDTH 960 0
DWIDTH 16 0
BBX 16 16 0 -2
BITMAP
1020
1020
1020
23FE
2020
6020
6020
A7FF
2020
2020
2050
2050
2088
2104
2202
2C01
ENDCHAR

STARTCHAR jisx0212_305A
ENCODING 12378
SWIDTH 960 0
DWIDTH 16 0
BBX 16 16 0 -2
BITMAP
1080
1080
1080
2FFF
2080
6080
60FC
A084
2184
2148
2148
2230
2230
2448
2986
2601
ENDCHAR

STARTCHAR jisx0212_305B
ENCODING 12379
SWIDTH 960 0
DWIDTH 16 0
BBX 16 16 0 -2
BITMAP
0180
0240
0420
0810
1008
6006
8001
0820
0820
0820
0820
1450
1250
2288
4104
8603
ENDCHAR

STARTCHAR jisx0212_305C
ENCODING 12380
SWIDTH 960 0
DWIDTH 16 0
BBX 16 16 0 -2
BITMAP
1020
1020
1020
2021
2222
6224
6228
A220
2460
2450
2050
2088
2088
2104
2202
2C01
ENDCHAR

STARTCHAR jisx0212_305D
ENCODING 12381
SWIDTH 960 0
DWIDTH 16 0
BBX 16 16 0 -2
BITMAP
1200
127E
1222
2222
2FA2
64A2
64A2
A4A2
2494
2494
2E94
2908
2988
2254
2422
2841
ENDCHAR

STARTCHAR jisx0212_305E
ENCODING 12382
SWIDTH 960 0
DWIDTH 16 0
BBX 16 16 0 -2
BITMAP
1020
1050
1088
2104
2202
6421
6820
A020
2124
2122
2222
2221
2421
2821
2020
20E0
ENDCHAR

STARTCHAR jisx0212_305F
ENCODING 12383
SWIDTH 960 0
DWIDTH 16 0
BBX 16 16 0 -2
BITMAP
1100
1100
1100
23FF
2221
6222
6420
A928
2124
2122
2222
2221
2421
2821
2020
21E0
ENDCHAR

STARTCHAR jisx0212_3060
ENCODING 12384
SWIDTH 960 0
DWIDTH 16 0
BBX 16 16 0 -2
BITMAP
1048
1248
1248
2248
2248
6FFF
6248
A248
2248
2248
2278
2248
2200
2200
23FF
2200
ENDCHAR

STARTCHAR jisx0212_3061
ENCODING 12385
SWIDTH 960 0
DWIDTH 16 0
BBX 16 16 0 -2
BITMAP
1000
17FE
1492
2492
2492
6492
6492
A492
2492
2512
251E
2602
2402
2402
27FE
2402
ENDCHAR

STARTCHAR jisx0212_3062
ENCODING 12386
SWIDTH 960 0
DWIDTH 16 0
BBX 16 16 0 -2
BITMAP
1020
1020
1020
2020
23FE
6222
6222
A222
2222
23FE
2222
2222
2222
2222
23FE
2202
ENDCHAR

STARTCHAR jisx0212_3063
ENCODING 12387
SWIDTH 960 0
DWIDTH 16 0
BBX 16 16 0 -2
BITMAP
1000
13FC
1204
2204
2204
63FC
6204
A204
2204
23FC
2204
2204
2204
2204
2FFF
2000
ENDCHAR

STARTCHAR jisx0212_3064
ENCODING 12388
SWIDTH 960 0
DWIDTH 16 0
BBX 16 16 0 -2
BITMAP
1000
13FE
1020
2124
2122
6222
6221
A421
2020
2FFF
2020
2020
2020
2020
2020
2020
ENDCHAR

STARTCHAR jisx0212_3065
ENCODING 12389
SWIDTH 960 0
DWIDTH 16 0
BBX 16 16 0 -2
BITMAP
1000
17FE
1020
2040
2040
6080
60D0
A148
2244
2442
2841
2040
2040
2040
2000
2FFF
ENDCHAR

STARTCHAR jisx0212_3066
ENCODING 12390
SWIDTH 960 0
DWIDTH 16 0
BBX 16 16 0 -2
BITMAP
1000
13FC
1204
2204
2204
6204
63FC
A200
2200
23FE
2202
2202
2202
2202
23FE
2202
ENDCHAR

STARTCHAR jisx0212_3067
ENCODING 12391
SWIDTH 960 0
DWIDTH 16 0
BBX 16 16 0 -2
BITMAP
1000
17FF
1020
2020
2020
6020
6220
A23E
2220
2220
2220
2220
2220
2220
2FFF
2000
ENDCHAR

STARTCHAR jisx0212_3068
ENCODING 12392
SWIDTH 960 0
DWIDTH 16 0
BBX 16 16 0 -2
BITMAP
1080
1080
1080
2FFF
2100
6120
6220
A3FE
2622
2A22
3222
2222
2222
222E
2020
2020
ENDCHAR

STARTCHAR jisx0212_3069
ENCODING 12393
SWIDTH 960 0
DWIDTH 16 0
BBX 16 16 0 -2
BITMAP
1020
1020
1020
23FE
2020
6020
6020
A7FF
2020
2040
2048
2084
2082
213E
27C1
2001
ENDCHAR

STARTCHAR jisx0212_306A
ENCODING 12394
SWIDTH 960 0
DWIDTH 16 0
BBX 16 16 0 -2
BITMAP
1000
17FE
1082
2082
2082
6102
6104
A238
2C00
23FE
2202
2202
2202
2202
23FE
2202
ENDCHAR

STARTCHAR jisx0212_306B
ENCODING 12395
SWIDTH 960 0
DWIDTH 16 0
BBX 16 16 0 -2
BITMAP
1088
1088
1088
2088
2489
648A
64EC
A488
2488
2488
2488
2488
2488
24E9
2789
2C0F
ENDCHAR

STARTCHAR jisx0212_306C
ENCODING 12396
SWIDTH 960 0
DWIDTH 16 0
BBX 16 16 0 -2
BITMAP
1020
1020
1020
23FE
2222
6222
6222
A222
2222
2FFF
2020
2050
2050
2088
2306
2C01
ENDCHAR

STARTCHAR jisx0212_306D
ENCODING 12397
SWIDTH 960 0
DWIDTH 16 0
BBX 16 16 0 -2
BITMAP
1040
1040
1040
2040
207F
6040
6040
A040
2040
23FE
2202
2202
2202
2202
23FE
2202
ENDCHAR

STARTCHAR jisx0212_306E
ENCODING 12398
SWIDTH 960 0
DWIDTH 16 0
BBX 16 16 0 -2
BITMAP
1080
1040
1024
2104
2108
6108
6110
A514
2522
2522
2941
2981
2108
2308
24F8
2800
ENDCHAR

STARTCHAR jisx0212_306F
ENCODING 12399
SWIDTH 960 0
DWIDTH 16 0
BBX 16 16 0 -2
BITMAP
0100
0280
0440
0820
1010
600C
9FF2
0000
0000
7FFC
0100
0920
1118
6104
8102
0700
ENDCHAR

STARTCHAR jisx0212_3070
ENCODING 12400
SWIDTH 960 0
DWIDTH 16 0
BBX 16 16 0 -2
BITMAP
1080
1080
10FC
2104
2108
6288
6450
A860
2090
230C
2CC3
2030
2000
2006
2078
2380
ENDCHAR

STARTCHAR jisx0212_3071
ENCODING 12401
SWIDTH 960 0
DWIDTH 16 0
BBX 16 16 0 -2
BITMAP
1000
17FE
1442
2442
2442
67FE
6442
A442
2442
27FE
2442
2442
2442
2442
2842
280E
ENDCHAR

STARTCHAR jisx0212_3072
ENCODING 12402
SWIDTH 960 0
DWIDTH 16 0
BBX 16 16 0 -2
BITMAP
1000
17FE
1402
2402
24F2
6492
6492
A492
2492
2492
2492
24F2
2402
2402
27FE
2402
ENDCHAR

STARTCHAR jisx0212_3073
ENCODING 12403
SWIDTH 960 0
DWIDTH 16 0
BBX 16 16 0 -2
BITMAP
1080
1082
17F4
2084
2088
6090
6FFF
A020
2140
2184
2318
2DE0
2100
2102
2102
20FE
ENDCHAR

STARTCHAR jisx0212_3074
ENCODING 12404
SWIDTH 960 0
DWIDTH 16 0
BBX 16 16 0 -2
BITMAP
1060
1090
1090
2108
2108
6204
65FA
A801
2000
23FC
2204
2204
2204
2204
23FC
2204
ENDCHAR

STARTCHAR jisx0212_3075
ENCODING 12405
SWIDTH 960 0
DWIDTH 16 0
BBX 16 16 0 -2
BITMAP
0180
0240
0420
0810
1008
67E6
8001
0000
7FFE
0080
1080
10FC
1080
1080
1080
FFFF
ENDCHAR

STARTCHAR jisx0212_3076
ENCODING 12406
SWIDTH 960 0
DWIDTH 16 0
BBX 16 16 0 -2
BITMAP
1000
13FE
1202
2202
23FE
6202
6202
A3FE
2220
2221
2212
2214
2208
2264
2382
2C01
ENDCHAR

STARTCHAR jisx0212_3077
ENCODING 12407
SWIDTH 960 0
DWIDTH 16 0
BBX 16 16 0 -2
BITMAP
1000
100E
13F0
2020
2020
67FF
6020
A020
2020
23FE
2202
2202
2202
2202
23FE
2202
ENDCHAR

STARTCHAR jisx0212_3078
ENCODING 12408
SWIDTH 960 0
DWIDTH 16 0
BBX 16 16 0 -2
BITMAP
1080
1080
11F8
2108
2210
67FF
6A00
A27C
2244
2244
2244
225C
2440
2441
2441
283F
ENDCHAR

STARTCHAR jisx0212_3079
ENCODING 12409
SWIDTH 960 0
DWIDTH 16 0
BBX 16 16 0 -2
BITMAP
1000
13E0
1050
2088
2104
6202
6401
ABFE
2020
2020
2020
21FC
2020
2020
2020
27FF
ENDCHAR

STARTCHAR jisx0212_307A
ENCODING 12410
SWIDTH 960 0
DWIDTH 16 0
BBX 16 16 0 -2
BITMAP
1020
1020
1020
2F40
207F
6091
6092
A112
2094
2310
2C28
2028
2044
2084
2302
2C01
ENDCHAR

STARTCHAR jisx0212_307B
ENCODING 12411
SWIDTH 960 0
DWIDTH 16 0
BBX 16 16 0 -2
BITMAP
11F8
1008
1204
2204
2402
6BFD
6204
A204
23FC
2204
2204
23FC
2204
2204
2404
281C
ENDCHAR

STARTCHAR jisx0212_307C
ENCODING 12412
SWIDTH 960 0
DWIDTH 16 0
BBX 16 16 0 -2
BITMAP
1040
1240
1240
27FE
2440
6840
6040
AFFF
2110
2110
2110
2110
2210
2211
2411
280F
ENDCHAR

STARTCHAR jisx0212_307D
ENCODING 12413
SWIDTH 960 0
DWIDTH 16 0
BBX 16 16 0 -2
BITMAP
1020
1020
17FF
2400
2404
6438
65E0
A420
2420
243E
25E0
2420
2420
2421
2821
281F
ENDCHAR

STARTCHAR jisx0212_307E
ENCODING 12414
SWIDTH 960 0
DWIDTH 16 0
BBX 16 16 0 -2
BITMAP
1000
17FE
1040
2040
2088
6084
613A
A7C1
2020
2020
2020
23FE
2020
2020
2020
27FF
ENDCHAR

STARTCHAR jisx0212_3121
ENCODING 12577
SWIDTH 960 0
DWIDTH 16 0
BBX 16 16 0 -2
BITMAP
1020
1020
1020
27FF
2020
6040
6288
A110
20A2
2044
2088
2310
2428
2044
2182
2601
ENDCHAR

STARTCHAR jisx0212_3122
ENCODING 12578
SWIDTH 960 0
DWIDTH 16 0
BBX 16 16 0 -2
BITMAP
1080
1080
1FFE
2120
2210
63E8
6406
A801
37FC
2100
2100
23FC
2204
2204
2008
2070
ENDCHAR

STARTCHAR jisx0212_3123
ENCODING 12579
SWIDTH 960 0
DWIDTH 16 0
BBX 16 16 0 -2
BITMAP
1040
1042
1442
2444
2244
6248
6040
AFFF
2110
2110
2110
2110
2210
2211
2411
280F
ENDCHAR

STARTCHAR jisx0212_3124
ENCODING 12580
SWIDTH 960 0
DWIDTH 16 0
BBX 16 16 0 -2
BITMAP
0180
0240
0420
0810
37CC
C003
1FF0
0010
0020
3FFC
0000
FFFF
0220
0418
09F4
7E02
ENDCHAR

STARTCHAR jisx0212_3125
ENCODING 12581
SWIDTH 960 0
DWIDTH 16 0
BBX 16 16 0 -2
BITMAP
1040
1442
1442
2244
2244
6248
6040
AFFF
20E0
2150
2148
2244
2442
2841
2040
2040
ENDCHAR

STARTCHAR jisx0212_3126
ENCODING 12582
SWIDTH 960 0
DWIDTH 16 0
BBX 16 16 0 -2
BITMAP
1040
1040
1080
27FE
2492
6492
6492
A492
2492
2492
2492
2492
2492
2492
2492
2FFF
ENDCHAR

STARTCHAR jisx0212_3127
ENCODING 12583
SWIDTH 960 0
DWIDTH 16 0
BBX 16 16 0 -2
BITMAP
1040
1040
17FE
2402
2442
6040
6080
AFFF
2108
2108
2210
23D0
2430
2048
2184
2E02
ENDCHAR

STARTCHAR jisx0212_3128
ENCODING 12584
SWIDTH 960 0
DWIDTH 16 0
BBX 16 16 0 -2
BITMAP
1040
1040
17FC
2044
2FFF
6044
67FC
A040
2040
27FE
2040
2040
2FFF
2040
2040
2040
ENDCHAR

STARTCHAR jisx0212_3129
ENCODING 12585
SWIDTH 960 0
DWIDTH 16 0
BBX 16 16 0 -2
BITMAP
1040
1088
1084
213A
27C1
6020
6220
A3FE
2420
2420
2020
2FFF
2020
2020
2020
2020
ENDCHAR

STARTCHAR jisx0212_312A
ENCODING 12586
SWIDTH 960 0
DWIDTH 16 0
BBX 16 16 0 -2
BITMAP
1000
17FE
1402
2402
25FA
6402
6402
A4F2
2492
2492
2492
24F2
2482
2482
2402
240E
ENDCHAR

STARTCHAR jisx0212_312B
ENCODING 12587
SWIDTH 960 0
DWIDTH 16 0
BBX 16 16 0 -2
BITMAP
1010
1014
1012
2010
2FFF
6010
6010
A010
27D0
2108
2108
2108
2125
21C5
2E03
2001
ENDCHAR

STARTCHAR jisx0212_312C
ENCODING 12588
SWIDTH 960 0
DWIDTH 16 0
BBX 16 16 0 -2
BITMAP
1100
1100
1200
23FE
2402
6402
6BE2
A222
2222
23E2
2222
2222
23E2
2204
2004
2038
ENDCHAR

STARTCHAR jisx0212_312D
ENCODING 12589
SWIDTH 960 0
DWIDTH 16 0
BBX 16 16 0 -2
BITMAP
1200
1200
123E
2222
2FA2
64A2
64A2
A4A2
24A2
28A2
2D22
2B22
2122
22BE
2422
2820
ENDCHAR

STARTCHAR jisx0212_312E
ENCODING 12590
SWIDTH 960 0
DWIDTH 16 0
BBX 16 16 0 -2
BITMAP
1080
1080
1100
2FFE
2100
6200
62FE
A604
2618
2A10
32FF
2210
2210
2210
2210
2270
ENDCHAR

STARTCHAR jisx0212_312F
ENCODING 12591
SWIDTH 960 0
DWIDTH 16 0
BBX 16 16 0 -2
BITMAP
1000
17FF
1400
2400
24FC
6400
6400
A7FF
2490
2491
2492
248C
2488
2484
28F2
2B81
ENDCHAR

STARTCHAR jisx0212_3130
ENCODING 12592
SWIDTH 960 0
DWIDTH 16 0
BBX 16 16 0 -2
BITMAP
1000
13FE
1202
2202
23FE
6200
6200
A3FF
2201
22F9
2289
2289
24F9
2481
2402
281C
ENDCHAR

STARTCHAR jisx0212_3131
ENCODING 12593
SWIDTH 960 0
DWIDTH 16 0
BBX 16 16 0 -2
BITMAP
1000
1703
113C
2108
2208
6208
67BF
A488
2088
2488
2488
2B08
213F
2280
2460
281F
ENDCHAR

STARTCHAR jisx0212_3132
ENCODING 12594
SWIDTH 960 0
DWIDTH 16 0
BBX 16 16 0 -2
BITMAP
11F8
1008
1108
2104
2204
67FE
6A05
A204
2204
23FC
2090
2090
2090
2111
2211
2C0F
ENDCHAR

STARTCHAR jisx0212_3133
ENCODING 12595
SWIDTH 960 0
DWIDTH 16 0
BBX 16 16 0 -2
BITMAP
1020
1020
17FF
2020
2020
67FF
6401
A5FD
2008
2030
2020
27FF
2020
2020
2020
20E0
ENDCHAR

STARTCHAR jisx0212_3134
ENCODING 12596
SWIDTH 960 0
DWIDTH 16 0
BBX 16 16 0 -2
BITMAP
1000
17FE
1442
2442
27FE
6442
6442
A7FE
2040
2040
2FFF
2081
2081
2101
2202
2C1C
ENDCHAR

STARTCHAR jisx0212_3135
ENCODING 12597
SWIDTH 960 0
DWIDTH 16 0
BBX 16 16 0 -2
BITMAP
1080
1082
17F4
2088
2090
6FFF
6040
A0FC
2108
2630
3820
27FF
2020
2020
2020
20E0
ENDCHAR

STARTCHAR jisx0212_3136
ENCODING 12598
SWIDTH 960 0
DWIDTH 16 0
BBX 16 16 0 -2
BITMAP
100E
13F0
1208
2244
2222
6411
6400
A840
2040
2FFF
2084
2104
21E8
221C
2062
2F81
ENDCHAR

STARTCHAR jisx0212_3137
ENCODING 12599
SWIDTH 960 0
DWIDTH 16 0
BBX 16 16 0 -2
BITMAP
1000
10FC
1484
2484
2484
64FC
6400
A400
27FC
2044
2044
2FFF
2060
2090
230C
2C03
ENDCHAR

STARTCHAR jisx0212_3138
ENCODING 12600
SWIDTH 960 0
DWIDTH 16 0
BBX 16 16 0 -2
BITMAP
1048
1044
1040
2FFE
2040
6442
6464
A268
2250
2050
2148
2244
2442
2841
2040
21C0
ENDCHAR

STARTCHAR jisx0212_3139
ENCODING 12601
SWIDTH 960 0
DWIDTH 16 0
BBX 16 16 0 -2
BITMAP
1020
1050
1088
2104
2202
6401
69FC
A020
2020
27FF
2020
2224
2222
2421
2821
20E0
ENDCHAR

STARTCHAR jisx0212_313A
ENCODING 12602
SWIDTH 960 0
DWIDTH 16 0
BBX 16 16 0 -2
BITMAP
1020
1120
1120
23FE
2220
6420
6020
A7FF
2020
2000
23FE
2202
2202
2202
23FE
2202
ENDCHAR

STARTCHAR jisx0212_313B
ENCODING 12603
SWIDTH 960 0
DWIDTH 16 0
BBX 16 16 0 -2
BITMAP
1000
17FE
1080
2080
27F8
6108
6108
AFFF
2000
2000
23FC
2204
2204
2204
23FC
2204
ENDCHAR

STARTCHAR jisx0212_313C
ENCODING 12604
SWIDTH 960 0
DWIDTH 16 0
BBX 16 16 0 -2
BITMAP
1000
13FC
1204
2204
23FC
6000
67FE
A442
2442
2442
27FE
2402
2400
2401
2401
23FF
ENDCHAR

STARTCHAR jisx0212_313D
ENCODING 12605
SWIDTH 960 0
DWIDTH 16 0
BBX 16 16 0 -2
BITMAP
1048
1044
1FFF
2040
2040
67FE
6442
A442
27FE
2442
2442
27FE
2442
2442
2442
244E
ENDCHAR

STARTCHAR jisx0212_313E
ENCODING 12606
SWIDTH 960 0
DWIDTH 16 0
BBX 16 16 0 -2
BITMAP
1020
1020
13FE
2202
2202
63FE
6202
A202
23FE
2221
2222
2214
2218
2208
22E4
2F03
ENDCHAR

STARTCHAR jisx0212_313F
ENCODING 12607
SWIDTH 960 0
DWIDTH 16 0
BBX 16 16 0 -2
BITMAP
1040
1148
1244
2242
2441
6BFD
6204
A204
23FC
2204
2204
23FC
2204
2204
2204
221C
ENDCHAR

STARTCHAR jisx0212_3140
ENCODING 12608
SWIDTH 960 0
DWIDTH 16 0
BBX 16 16 0 -2
BITMAP
1020
1020
17FF
2401
2401
61FC
6000
A000
27FF
2090
2090
2090
2110
2111
2211
2C0F
ENDCHAR

STARTCHAR jisx0212_3141
ENCODING 12609
SWIDTH 960 0
DWIDTH 16 0
BBX 16 16 0 -2
BITMAP
1040
17FE
1442
2442
27FE
6442
6442
A7FE
2000
2FFF
2100
21FE
2202
2202
2004
2038
ENDCHAR

STARTCHAR jisx0212_3142
ENCODING 12610
SWIDTH 960 0
DWIDTH 16 0
BBX 16 16 0 -2
BITMAP
1040
1040
1040
2FFF
2040
6244
6244
A244
254A
254A
2850
20A0
2090
2108
2206
2C01
ENDCHAR

STARTCHAR jisx0212_3143
ENCODING 12611
SWIDTH 960 0
DWIDTH 16 0
BBX 16 16 0 -2
BITMAP
1100
1100
13FF
2308
2490
6860
6090
A30C
2C43
2088
2310
2C62
2184
2618
20E0
2700
ENDCHAR

STARTCHAR jisx0212_3144
ENCODING 12612
SWIDTH 960 0
DWIDTH 16 0
BBX 16 16 0 -2
BITMAP
1000
1180
163E
2222
2222
6FA2
6222
A222
2722
26A2
26A2
2A22
2A22
223E
2222
2220
ENDCHAR

STARTCHAR jisx0212_3145
ENCODING 12613
SWIDTH 960 0
DWIDTH 16 0
BBX 16 16 0 -2
BITMAP
1108
1108
1108
2FC8
203F
6489
6449
A849
2089
2489
2311
2111
2291
24A2
2842
208C
ENDCHAR

STARTCHAR jisx0212_3146
ENCODING 12614
SWIDTH 960 0
DWIDTH 16 0
BBX 16 16 0 -2
BITMAP
1040
1040
17FF
2080
2088
613C
67C2
A001
23FC
2204
23FC
2204
23FC
2204
2204
221C
ENDCHAR

STARTCHAR jisx0212_3147
ENCODING 12615
SWIDTH 960 0
DWIDTH 16 0
BBX 16 16 0 -2
BITMAP
1008
10C8
1710
2410
241F
6429
67E9
A48A
248A
2488
2488
2494
2494
2492
28A2
28A1
ENDCHAR

STARTCHAR jisx0212_3148
ENCODING 12616
SWIDTH 960 0
DWIDTH 16 0
BBX 16 16 0 -2
BITMAP
1040
107C
1040
27FF
2441
6442
67F8
A442
247E
2400
2490
2490
2490
2891
2911
2A0F
ENDCHAR

STARTCHAR jisx0212_3149
ENCODING 12617
SWIDTH 960 0
DWIDTH 16 0
BBX 16 16 0 -2
BITMAP
1000
13FE
1200
23FC
2200
63FC
6200
A200
2FFF
2220
2222
2214
2218
2208
22E4
2F03
ENDCHAR

STARTCHAR jisx0212_314A
ENCODING 12618
SWIDTH 960 0
DWIDTH 16 0
BBX 16 16 0 -2
BITMAP
1200
1200
121E
27D2
2512
6512
6912
A112
2FD2
2112
2112
2192
2252
225E
2412
2810
ENDCHAR

STARTCHAR jisx0212_314B
ENCODING 12619
SWIDTH 960 0
DWIDTH 16 0
BBX 16 16 0 -2
BITMAP
1304
10C8
1070
2788
2044
6FFF
6080
A100
21FC
2304
25FC
2904
21FC
2104
2104
211C
ENDCHAR

STARTCHAR jisx0212_314C
ENCODING 12620
SWIDTH 960 0
DWIDTH 16 0
BBX 16 16 0 -2
BITMAP
1040
1040
1FFF
2801
2A01
6200
63BE
A4A2
24A2
24A2
2AA2
312E
2120
2221
2421
281F
ENDCHAR

STARTCHAR jisx0212_314D
ENCODING 12621
SWIDTH 960 0
DWIDTH 16 0
BBX 16 16 0 -2
BITMAP
11F8
1008
1108
2244
2244
6492
6889
A13C
27C2
2000
2040
2124
2512
2501
2909
28F8
ENDCHAR

STARTCHAR jisx0212_314E
ENCODING 12622
SWIDTH 960 0
DWIDTH 16 0
BBX 16 16 0 -2
BITMAP
1020
1020
17FF
2401
2401
61FC
6104
A104
21FC
2100
2100
21FE
2102
2102
21FE
2102
ENDCHAR

STARTCHAR jisx0212_314F
ENCODING 12623
SWIDTH 960 0
DWIDTH 16 0
BBX 16 16 0 -2
BITMAP
1090
1090
17FE
2492
2492
6492
67FE
A492
2492
2492
2FFF
2000
2108
2204
2402
2801
ENDCHAR

STARTCHAR jisx0212_3150
ENCODING 12624
SWIDTH 960 0
DWIDTH 16 0
BBX 16 16 0 -2
BITMAP
1020
1040
107E
24C2
2524
6418
646C
A583
2410
2491
2492
2494
2510
2028
20C6
2301
ENDCHAR

STARTCHAR jisx0212_3151
ENCODING 12625
SWIDTH 960 0
DWIDTH 16 0
BBX 16 16 0 -2
BITMAP
1020
1122
1124
2228
2450
6050
608C
A323
2C20
2122
2124
2258
2450
2088
2306
2C01
ENDCHAR

STARTCHAR jisx0212_3152
ENCODING 12626
SWIDTH 960 0
DWIDTH 16 0
BBX 16 16 0 -2
BITMAP
1000
179E
1492
2492
2492
669A
6596
A492
2492
269A
2596
2492
2492
28A2
28A2
2BAE
ENDCHAR

STARTCHAR jisx0212_3153
ENCODING 12627
SWIDTH 960 0
DWIDTH 16 0
BBX 16 16 0 -2
BITMAP
1040
1248
1244
2442
2441
6FFE
6402
A402
24F2
2492
2492
2492
24F2
2482
2402
240E
ENDCHAR

STARTCHAR jisx0212_3154
ENCODING 12628
SWIDTH 960 0
DWIDTH 16 0
BBX 16 16 0 -2
BITMAP
1108
1108
17FE
2108
2108
61F8
6108
A108
21F8
2108
2108
2FFF
2000
2118
2204
2C02
ENDCHAR

STARTCHAR jisx0212_3155
ENCODING 12629
SWIDTH 960 0
DWIDTH 16 0
BBX 16 16 0 -2
BITMAP
1000
17FE
1402
2442
25FA
6442
6442
A5FA
2442
2402
25F2
2512
2512
29F2
2902
280E
ENDCHAR

STARTCHAR jisx0212_3156
ENCODING 12630
SWIDTH 960 0
DWIDTH 16 0
BBX 16 16 0 -2
BITMAP
0810
0810
FF90
0810
0810
7F10
4110
7F10
4110
7F28
0828
0828
FFC4
0844
0882
0B01
ENDCHAR

STARTCHAR jisx0212_3157
ENCODING 12631
SWIDTH 960 0
DWIDTH 16 0
BBX 16 16 0 -2
BITMAP
1020
1020
17FF
2000
2000
63FE
6202
A202
2202
23FE
2020
2124
2222
2421
2821
20E0
ENDCHAR

STARTCHAR jisx0212_3158
ENCODING 12632
SWIDTH 960 0
DWIDTH 16 0
BBX 16 16 0 -2
BITMAP
1020
1020
17FF
2020
23FE
6022
67FF
A022
23FE
2020
2120
213E
2220
2320
24A0
287F
ENDCHAR

STARTCHAR jisx0212_3159
ENCODING 12633
SWIDTH 960 0
DWIDTH 16 0
BBX 16 16 0 -2
BITMAP
1020
1020
17FF
2401
2401
6000
61FC
A000
2000
27FF
2020
2124
2222
2421
2821
20E0
ENDCHAR

STARTCHAR jisx0212_315A
ENCODING 12634
SWIDTH 960 0
DWIDTH 16 0
BBX 16 16 0 -2
BITMAP
1000
13FE
1222
2222
23FE
6222
6222
A3FE
2020
2020
27FF
2070
20A8
2326
2C21
2020
ENDCHAR

STARTCHAR jisx0212_315B
ENCODING 12635
SWIDTH 960 0
DWIDTH 16 0
BBX 16 16 0 -2
BITMAP
1020
1020
13FE
2020
2020
67FF
6090
A091
215F
2680
20FC
2184
2248
2430
20CC
2703
ENDCHAR

STARTCHAR jisx0212_315C
ENCODING 12636
SWIDTH 960 0
DWIDTH 16 0
BBX 16 16 0 -2
BITMAP
1020
1020
17FF
2020
2020
63FE
6222
A3FE
2222
23FE
2070
20A8
2124
2622
2821
2020
ENDCHAR

STARTCHAR jisx0212_315D
ENCODING 12637
SWIDTH 960 0
DWIDTH 16 0
BBX 16 16 0 -2
BITMAP
1040
1040
1FFE
2040
27FC
6444
67FC
A040
27FC
2044
2FFF
2044
27FC
2040
2040
21C0
ENDCHAR

STARTCHAR jisx0212_315E
ENCODING 12638
SWIDTH 960 0
DWIDTH 16 0
BBX 16 16 0 -2
BITMAP
1010
1014
17D2
2011
2010
6FFF
6090
A090
2490
24E8
2488
2489
2485
24B5
25C3
2E01
ENDCHAR

STARTCHAR jisx0212_315F
ENCODING 12639
SWIDTH 960 0
DWIDTH 16 0
BBX 16 16 0 -2
BITMAP
1088
1088
17FF
2088
20A8
6020
63FE
A222
2222
2222
27FF
2020
2050
2088
2306
2C01
ENDCHAR

STARTCHAR jisx0212_3160
ENCODING 12640
SWIDTH 960 0
DWIDTH 16 0
BBX 16 16 0 -2
BITMAP
100C
13F0
1244
2222
2411
6420
6BFE
A222
2222
27FF
2222
2222
27FF
2202
2202
220E
ENDCHAR

STARTCHAR jisx0212_3161
ENCODING 12641
SWIDTH 960 0
DWIDTH 16 0
BBX 16 16 0 -2
BITMAP
1208
1108
1110
2FFF
2000
6000
6782
A492
2692
2592
2492
2692
2592
2482
2482
258E
ENDCHAR

STARTCHAR jisx0212_3162
ENCODING 12642
SWIDTH 960 0
DWIDTH 16 0
BBX 16 16 0 -2
BITMAP
100E
13F0
1020
27FF
2020
63FE
6222
A3FE
2222
23FE
2020
2020
23FE
2020
2020
27FF
ENDCHAR

STARTCHAR jisx0212_3163
ENCODING 12643
SWIDTH 960 0
DWIDTH 16 0
BBX 16 16 0 -2
BITMAP
1040
1040
17FF
2040
23FE
6090
6088
A7FF
2104
23FE
2505
29FC
2104
2104
21FC
2104
ENDCHAR

STARTCHAR jisx0212_3164
ENCODING 12644
SWIDTH 960 0
DWIDTH 16 0
BBX 16 16 0 -2
BITMAP
101E
13E0
1020
23FE
2222
6222
63FE
A020
2020
27FF
2421
2429
243D
25C5
2401
2407
ENDCHAR

STARTCHAR jisx0212_3165
ENCODING 12645
SWIDTH 960 0
DWIDTH 16 0
BBX 16 16 0 -2
BITMAP
1108
1108
1FFF
2108
2108
6080
6080
AFFF
2100
2100
23FE
2502
2902
2102
21FE
2102
ENDCHAR

STARTCHAR jisx0212_3166
ENCODING 12646
SWIDTH 960 0
DWIDTH 16 0
BBX 16 16 0 -2
BITMAP
1000
13FE
1222
2222
23FE
6222
6222
A3FE
2000
2FFF
2222
2224
2218
2208
22E6
2F01
ENDCHAR

STARTCHAR jisx0212_3167
ENCODING 12647
SWIDTH 960 0
DWIDTH 16 0
BBX 16 16 0 -2
BITMAP
1000
17FC
1404
2434
25C4
6444
65F4
A554
2554
2554
25F4
2445
2455
286B
2B8B
2801
ENDCHAR

STARTCHAR jisx0212_3168
ENCODING 12648
SWIDTH 960 0
DWIDTH 16 0
BBX 16 16 0 -2
BITMAP
1000
13FC
1204
23FC
2204
63FC
6000
AFFF
2200
23FE
2492
2892
2122
2622
28C4
2318
ENDCHAR

STARTCHAR jisx0212_3169
ENCODING 12649
SWIDTH 960 0
DWIDTH 16 0
BBX 16 16 0 -2
BITMAP
1000
17FE
1402
2402
27FE
6400
67FF
A440
2488
27FC
2402
2420
2BFE
2820
3020
27FF
ENDCHAR

STARTCHAR jisx0212_316A
ENCODING 12650
SWIDTH 960 0
DWIDTH 16 0
BBX 16 16 0 -2
BITMAP
1020
1128
1124
2222
2225
64E8
6010
A060
23FE
2D02
21FE
2102
21FE
2102
21FE
2102
ENDCHAR

STARTCHAR jisx0212_316B
ENCODING 12651
SWIDTH 960 0
DWIDTH 16 0
BBX 16 16 0 -2
BITMAP
1020
1020
17FF
2104
2084
6088
67FF
A421
2421
23FE
2222
2222
2222
2222
222E
2020
ENDCHAR

STARTCHAR jisx0212_316C
ENCODING 12652
SWIDTH 960 0
DWIDTH 16 0
BBX 16 16 0 -2
BITMAP
1040
1080
13FE
2202
23FE
6202
63FE
A000
2000
27FF
2020
2020
23FE
2020
2020
2FFF
ENDCHAR

STARTCHAR jisx0212_316D
ENCODING 12653
SWIDTH 960 0
DWIDTH 16 0
BBX 16 16 0 -2
BITMAP
1000
1FFF
1090
27FE
2492
6492
64F2
A402
2080
2FFF
2108
2208
23D0
242C
20C2
2F01
ENDCHAR

STARTCHAR jisx0212_316E
ENCODING 12654
SWIDTH 960 0
DWIDTH 16 0
BBX 16 16 0 -2
BITMAP
1088
1308
1E08
2209
2229
6FAA
622A
A24C
2708
2688
2A94
2A14
3214
2222
2242
2281
ENDCHAR

STARTCHAR jisx0212_316F
ENCODING 12655
SWIDTH 960 0
DWIDTH 16 0
BBX 16 16 0 -2
BITMAP
1040
1040
17FE
2208
2108
6110
6FFF
A000
23FC
2204
2204
23FC
2204
2204
23FC
2204
ENDCHAR

STARTCHAR jisx0212_3170
ENCODING 12656
SWIDTH 960 0
DWIDTH 16 0
BBX 16 16 0 -2
BITMAP
1000
17FF
1022
2120
213C
62A0
647F
A800
23FE
2202
23FE
2202
23FE
2202
2202
220E
ENDCHAR

STARTCHAR jisx0212_3171
ENCODING 12657
SWIDTH 960 0
DWIDTH 16 0
BBX 16 16 0 -2
BITMAP
1080
1080
17FE
2120
2210
648C
79F3
A210
2D20
20D0
233E
2C42
21A4
2018
2070
2780
ENDCHAR

STARTCHAR jisx0212_3172
ENCODING 12658
SWIDTH 960 0
DWIDTH 16 0
BBX 16 16 0 -2
BITMAP
1000
13FF
1000
21FE
2102
6102
61FE
A000
23FF
2221
2221
23FF
2221
2221
23FF
2201
ENDCHAR

STARTCHAR jisx0212_3173
ENCODING 12659
SWIDTH 960 0
DWIDTH 16 0
BBX 16 16 0 -2
BITMAP
1000
1FFF
1040
2040
2080
67FE
6492
A492
24F2
2492
2492
24F2
2492
2492
27FE
2402
ENDCHAR

STARTCHAR jisx0212_3174
ENCODING 12660
SWIDTH 960 0
DWIDTH 16 0
BBX 16 16 0 -2
BITMAP
1200
125F
1389
2E49
2389
6E49
6391
AE11
2226
2240
2040
2FFF
2060
2090
230C
2C03
ENDCHAR

STARTCHAR jisx0212_3175
ENCODING 12661
SWIDTH 960 0
DWIDTH 16 0
BBX 16 16 0 -2
BITMAP
100E
13F0
1210
2210
23FF
6220
6220
A2FE
2282
22FE
2282
24FE
2482
2482
28FE
2082
ENDCHAR

STARTCHAR jisx0212_3176
ENCODING 12662
SWIDTH 960 0
DWIDTH 16 0
BBX 16 16 0 -2
BITMAP
1000
1FDF
1491
2492
2792
6494
6494
A492
2792
2491
2491
2491
2796
3C90
2090
2090
ENDCHAR

STARTCHAR jisx0212_3177
ENCODING 12663
SWIDTH 960 0
DWIDTH 16 0
BBX 16 16 0 -2
BITMAP
1140
165E
1442
2442
275E
6442
6442
A75E
2442
2000
27FC
2104
2088
2070
218C
2E03
ENDCHAR

STARTCHAR jisx0212_3178
ENCODING 12664
SWIDTH 960 0
DWIDTH 16 0
BBX 16 16 0 -2
BITMAP
1020
17FF
1020
23FE
2020
67FF
6048
A290
2124
20DE
27E1
2020
2124
2222
2C21
2020
ENDCHAR

STARTCHAR jisx0212_3179
ENCODING 12665
SWIDTH 960 0
DWIDTH 16 0
BBX 16 16 0 -2
BITMAP
1040
1040
1FFF
20A0
2492
6314
620C
A7FE
2A05
23FC
2204
23FC
2204
2204
23FC
2204
ENDCHAR

STARTCHAR jisx0212_317A
ENCODING 12666
SWIDTH 960 0
DWIDTH 16 0
BBX 16 16 0 -2
BITMAP
1000
17FF
1410
2420
24FE
6482
6482
A4FE
2482
2482
24FE
2410
2494
2912
2A11
2870
ENDCHAR

STARTCHAR jisx0212_317B
ENCODING 12667
SWIDTH 960 0
DWIDTH 16 0
BBX 16 16 0 -2
BITMAP
13FC
1204
1204
23FC
2000
67FE
6402
A7FE
2402
27FE
2402
27FE
2000
2098
2306
2C01
ENDCHAR

STARTCHAR jisx0212_317C
ENCODING 12668
SWIDTH 960 0
DWIDTH 16 0
BBX 16 16 0 -2
BITMAP
1106
11F8
1101
21FF
2000
60FE
6482
A4FE
2482
24FE
2482
24FE
2400
27FF
218C
2E03
ENDCHAR

STARTCHAR jisx0212_317D
ENCODING 12669
SWIDTH 960 0
DWIDTH 16 0
BBX 16 16 0 -2
BITMAP
1020
1020
13FF
2210
22FE
6212
63FF
A212
22FE
2210
2200
22FE
2482
2482
28FE
2082
ENDCHAR

STARTCHAR jisx0212_317E
ENCODING 12670
SWIDTH 960 0
DWIDTH 16 0
BBX 16 16 0 -2
BITMAP
1020
1020
17FF
2000
21FC
6104
6104
A1FC
2000
27FF
2401
24F9
2489
2489
24F9
2407
ENDCHAR

STARTCHAR jisx0212_3221
ENCODING 12833
SWIDTH 960 0
DWIDTH 16 0
BBX 16 16 0 -2
BITMAP
100E
13F0
1244
2222
2421
6548
6090
A064
205E
27E1
2020
27FF
2020
2050
218C
2E03
ENDCHAR

STARTCHAR jisx0212_3222
ENCODING 12834
SWIDTH 960 0
DWIDTH 16 0
BBX 16 16 0 -2
BITMAP
100E
17F0
1400
27FE
2402
6402
67FE
A400
27DF
24C5
2549
2653
28C5
2949
3251
24C7
ENDCHAR

STARTCHAR jisx0212_3223
ENCODING 12835
SWIDTH 960 0
DWIDTH 16 0
BBX 16 16 0 -2
BITMAP
1044
13B8
1090
2FFF
2090
67FE
6092
AFFF
2092
27FE
2090
2198
2294
2492
2891
2090
ENDCHAR

STARTCHAR jisx0212_3224
ENCODING 12836
SWIDTH 960 0
DWIDTH 16 0
BBX 16 16 0 -2
BITMAP
1060
1090
1108
22F6
2401
6BFC
6204
A3FC
2204
23FC
2200
23FE
2502
2502
29FE
2102
ENDCHAR

STARTCHAR jisx0212_3225
ENCODING 12837
SWIDTH 960 0
DWIDTH 16 0
BBX 16 16 0 -2
BITMAP
1020
1020
17FF
2401
2491
6108
6264
A492
2108
2204
25FE
2905
2104
2104
21FC
2104
ENDCHAR

STARTCHAR jisx0212_3226
ENCODING 12838
SWIDTH 960 0
DWIDTH 16 0
BBX 16 16 0 -2
BITMAP
1020
1040
10FC
2184
2648
6130
61C0
A6FE
2120
2220
27FF
2020
2222
2222
23FE
2202
ENDCHAR

STARTCHAR jisx0212_3227
ENCODING 12839
SWIDTH 960 0
DWIDTH 16 0
BBX 16 16 0 -2
BITMAP
1208
1110
17FE
2040
2040
63FC
6040
A040
2FFF
2100
2100
23FE
2220
2420
2820
27FF
ENDCHAR

STARTCHAR jisx0212_3228
ENCODING 12840
SWIDTH 960 0
DWIDTH 16 0
BBX 16 16 0 -2
BITMAP
11F8
1008
1244
2452
2889
63F4
6000
A000
2F9F
2285
2489
2993
2285
2489
2891
2387
ENDCHAR

STARTCHAR jisx0212_3229
ENCODING 12841
SWIDTH 960 0
DWIDTH 16 0
BBX 16 16 0 -2
BITMAP
1002
1782
1002
2FC2
203F
6782
6002
A7A2
2012
200A
278A
2482
2482
2482
2782
240E
ENDCHAR

STARTCHAR jisx0212_322A
ENCODING 12842
SWIDTH 960 0
DWIDTH 16 0
BBX 16 16 0 -2
BITMAP
1208
1208
1208
2208
2FBF
6000
68A2
A8A2
2492
2512
2514
2514
2254
2388
3C7F
2000
ENDCHAR

STARTCHAR jisx0212_322B
ENCODING 12843
SWIDTH 960 0
DWIDTH 16 0
BBX 16 16 0 -2
BITMAP
1020
1020
17FF
2401
2401
63FE
6040
A082
2344
2C68
2090
2338
2C54
2092
2311
2C60
ENDCHAR

STARTCHAR jisx0212_322C
ENCODING 12844
SWIDTH 960 0
DWIDTH 16 0
BBX 16 16 0 -2
BITMAP
1040
1088
17FC
2002
2208
6552
7FBF
A111
2248
2C86
3311
2C62
2184
2618
20E0
2700
ENDCHAR

STARTCHAR jisx0212_322D
ENCODING 12845
SWIDTH 960 0
DWIDTH 16 0
BBX 16 16 0 -2
BITMAP
1040
1080
17FE
2422
257A
64CA
6532
A472
258A
27FE
2040
2124
2522
2509
2909
20F8
ENDCHAR

STARTCHAR jisx0212_322E
ENCODING 12846
SWIDTH 960 0
DWIDTH 16 0
BBX 16 16 0 -2
BITMAP
1020
1222
1222
23FE
2202
6000
679F
A491
2699
2595
2491
2699
2595
2891
28A1
2BA7
ENDCHAR

STARTCHAR jisx0212_322F
ENCODING 12847
SWIDTH 960 0
DWIDTH 16 0
BBX 16 16 0 -2
BITMAP
1020
1020
13FE
2104
2088
67FF
6000
A3FE
2202
23FE
2202
23FE
2090
2091
2111
2E0F
ENDCHAR

STARTCHAR jisx0212_3230
ENCODING 12848
SWIDTH 960 0
DWIDTH 16 0
BBX 16 16 0 -2
BITMAP
1100
1110
13DF
2249
258A
6C84
6304
A2FA
2401
2000
27FF
2020
2124
2222
2C21
20E0
ENDCHAR

STARTCHAR jisx0212_3231
ENCODING 12849
SWIDTH 960 0
DWIDTH 16 0
BBX 16 16 0 -2
BITMAP
1020
1020
13FE
2104
2088
67FF
6000
A3FE
2202
23FE
2202
23FE
2020
27FF
2020
2020
ENDCHAR

STARTCHAR jisx0212_3232
ENCODING 12850
SWIDTH 960 0
DWIDTH 16 0
BBX 16 16 0 -2
BITMAP
1154
1154
17FF
2154
2255
6477
6000
A7FF
2421
2421
23FE
2222
2222
2222
222E
2020
ENDCHAR

STARTCHAR jisx0212_3233
ENCODING 12851
SWIDTH 960 0
DWIDTH 16 0
BBX 16 16 0 -2
BITMAP
1110
1110
1FFF
2110
2200
67FE
6402
AFF2
3492
27F2
2492
27F2
2492
2492
24B2
200C
ENDCHAR

STARTCHAR jisx0212_3234
ENCODING 12852
SWIDTH 960 0
DWIDTH 16 0
BBX 16 16 0 -2
BITMAP
1000
1FFF
1090
27FE
2492
6492
67FE
A000
27FE
2000
2FFF
2020
2124
2222
2C21
20E0
ENDCHAR

STARTCHAR jisx0212_3235
ENCODING 12853
SWIDTH 960 0
DWIDTH 16 0
BBX 16 16 0 -2
BITMAP
1000
1FBE
128A
2492
29A6
628A
64F2
A090
232C
2C43
2190
2622
20C4
2718
2060
2780
ENDCHAR

STARTCHAR jisx0212_3236
ENCODING 12854
SWIDTH 960 0
DWIDTH 16 0
BBX 16 16 0 -2
BITMAP
1208
1208
1FC8
2210
221F
6FB2
6AB2
AFD2
2A92
2F92
2214
220C
3FC8
2214
2222
2241
ENDCHAR

STARTCHAR jisx0212_3237
ENCODING 12855
SWIDTH 960 0
DWIDTH 16 0
BBX 16 16 0 -2
BITMAP
179E
1492
179E
2410
2451
67DF
6000
A108
27FE
2108
2108
2FFF
2000
2098
2306
2C01
ENDCHAR

STARTCHAR jisx0212_3238
ENCODING 12856
SWIDTH 960 0
DWIDTH 16 0
BBX 16 16 0 -2
BITMAP
1104
1088
17FF
2020
23FE
6020
67FF
A124
20A8
27FF
2000
23FE
2202
2202
23FE
2202
ENDCHAR

STARTCHAR jisx0212_3239
ENCODING 12857
SWIDTH 960 0
DWIDTH 16 0
BBX 16 16 0 -2
BITMAP
1020
13FE
1222
23FE
2020
67FF
6000
A3FE
2202
23FE
2202
23FE
2202
23FE
218C
2E03
ENDCHAR

STARTCHAR jisx0212_323A
ENCODING 12858
SWIDTH 960 0
DWIDTH 16 0
BBX 16 16 0 -2
BITMAP
10FC
1204
12FA
2451
2BFE
6252
629E
A202
23FE
2202
23FE
2004
2FFF
2104
2084
201C
ENDCHAR

STARTCHAR jisx0212_323B
ENCODING 12859
SWIDTH 960 0
DWIDTH 16 0
BBX 16 16 0 -2
BITMAP
1108
1108
1588
2548
293F
7112
6FD2
A872
2F52
2952
294A
294C
2F44
284C
2852
29E1
ENDCHAR

STARTCHAR jisx0212_323C
ENCODING 12860
SWIDTH 960 0
DWIDTH 16 0
BBX 16 16 0 -2
BITMAP
1020
17A4
1098
2491
230A
63F4
6402
A801
23FC
2204
2204
23FC
2108
2088
2090
2FFF
ENDCHAR

STARTCHAR jisx0212_323D
ENCODING 12861
SWIDTH 960 0
DWIDTH 16 0
BBX 16 16 0 -2
BITMAP
17FE
1402
17FE
2400
24FC
6408
65FF
A410
2470
2400
27EF
2842
28E4
2B9F
3084
238C
ENDCHAR

STARTCHAR jisx0212_323E
ENCODING 12862
SWIDTH 960 0
DWIDTH 16 0
BBX 16 16 0 -2
BITMAP
1144
1248
1CF2
2554
2248
64D2
6FFE
A049
2044
2FFF
2422
2624
2518
2919
3065
2383
ENDCHAR

STARTCHAR jisx0212_323F
ENCODING 12863
SWIDTH 960 0
DWIDTH 16 0
BBX 16 16 0 -2
BITMAP
100E
17F0
1242
2122
2124
6FFF
6801
AA05
2384
24BF
24A4
2B24
317F
2204
2404
2804
ENDCHAR

STARTCHAR jisx0212_3240
ENCODING 12864
SWIDTH 960 0
DWIDTH 16 0
BBX 16 16 0 -2
BITMAP
1000
17DF
1451
2451
27DF
6000
63FE
A222
23FE
2222
23FE
2020
27FF
2020
2020
2020
ENDCHAR

STARTCHAR jisx0212_3241
ENCODING 12865
SWIDTH 960 0
DWIDTH 16 0
BBX 16 16 0 -2
BITMAP
1108
110A
1109
2FC8
203F
67C8
6448
A448
27CC
210C
2594
2554
2954
2925
3125
2747
ENDCHAR

STARTCHAR jisx0212_3242
ENCODING 12866
SWIDTH 960 0
DWIDTH 16 0
BBX 16 16 0 -2
BITMAP
1020
13FE
1020
2088
27FF
6088
6000
A3FE
2202
23FE
2202
23FE
2202
23FE
218C
2E03
ENDCHAR

STARTCHAR jisx0212_3243
ENCODING 12867
SWIDTH 960 0
DWIDTH 16 0
BBX 16 16 0 -2
BITMAP
1000
17DF
1451
27DF
2451
67DF
6401
A4F9
2489
24F9
2489
24F9
2489
2509
2539
2407
ENDCHAR

STARTCHAR jisx0212_3244
ENCODING 12868
SWIDTH 960 0
DWIDTH 16 0
BBX 16 16 0 -2
BITMAP
0020
1222
1124
17FF
2070
20A8
6324
6C23
A204
2384
24BF
24A4
2B24
317F
2204
2404
ENDCHAR

STARTCHAR jisx0212_3245
ENCODING 12869
SWIDTH 960 0
DWIDTH 16 0
BBX 16 16 0 -2
BITMAP
100E
17F0
1400
27FE
2402
67FE
6444
A488
24FF
2588
26FE
2488
24FE
2888
28FF
2880
ENDCHAR

STARTCHAR jisx0212_3246
ENCODING 12870
SWIDTH 960 0
DWIDTH 16 0
BBX 16 16 0 -2
BITMAP
1000
17FE
1492
2492
279E
6090
679E
A492
2492
279E
2492
2492
279E
2491
2081
207F
ENDCHAR

STARTCHAR jisx0212_3247
ENCODING 12871
SWIDTH 960 0
DWIDTH 16 0
BBX 16 16 0 -2
BITMAP
11FC
1104
1104
21FC
2000
67DF
6451
A451
27DF
2020
27FF
2070
20A8
2326
2C21
2020
ENDCHAR

STARTCHAR jisx0212_3248
ENCODING 12872
SWIDTH 960 0
DWIDTH 16 0
BBX 16 16 0 -2
BITMAP
100E
17F0
1242
2122
2124
67FF
6441
A4A5
228A
24F9
2040
20FC
2184
2648
2078
2F87
ENDCHAR

STARTCHAR jisx0212_3249
ENCODING 12873
SWIDTH 960 0
DWIDTH 16 0
BBX 16 16 0 -2
BITMAP
1020
17FF
1000
23FE
228A
62FA
6202
A3FE
2000
21FC
2104
21FC
2104
21FC
2000
2FFF
ENDCHAR

STARTCHAR jisx0212_324A
ENCODING 12874
SWIDTH 960 0
DWIDTH 16 0
BBX 16 16 0 -2
BITMAP
1488
1488
1FE8
2488
249F
6412
6FD2
A872
2F52
354A
254A
254C
2744
204C
2092
2321
ENDCHAR

STARTCHAR jisx0212_324B
ENCODING 12875
SWIDTH 960 0
DWIDTH 16 0
BBX 16 16 0 -2
BITMAP
13FE
1252
1252
23FE
2000
67FF
6000
A3FE
2202
2202
23FE
2091
2312
2D0C
2164
2783
ENDCHAR

STARTCHAR jisx0212_324C
ENCODING 12876
SWIDTH 960 0
DWIDTH 16 0
BBX 16 16 0 -2
BITMAP
1060
1090
1108
2206
2DF9
6000
67FE
A54A
24D2
27FE
2000
23FC
2204
23FC
2204
23FC
ENDCHAR

STARTCHAR jisx0212_324D
ENCODING 12877
SWIDTH 960 0
DWIDTH 16 0
BBX 16 16 0 -2
BITMAP
1100
11F8
1210
23FF
2652
6A9E
6300
A2FE
2200
23FF
2200
22FE
2200
24FE
2482
28FE
ENDCHAR

STARTCHAR jisx0212_324E
ENCODING 12878
SWIDTH 960 0
DWIDTH 16 0
BBX 16 16 0 -2
BITMAP
1108
1208
17C8
2448
27DF
6452
67D2
A132
2112
2FCA
220A
23CC
2244
244C
2452
2BA1
ENDCHAR

STARTCHAR jisx0212_324F
ENCODING 12879
SWIDTH 960 0
DWIDTH 16 0
BBX 16 16 0 -2
BITMAP
1048
1592
1666
2492
254A
67FE
6090
A091
231F
2C80
20FC
2184
2248
2430
20CC
2F03
ENDCHAR

STARTCHAR jisx0212_3250
ENCODING 12880
SWIDTH 960 0
DWIDTH 16 0
BBX 16 16 0 -2
BITMAP
1108
17CA
1109
2FFF
2108
6FE8
6109
AFE9
2929
2FEA
292A
2FE4
2105
3FED
2113
2121
ENDCHAR

STARTCHAR jisx0212_3251
ENCODING 12881
SWIDTH 960 0
DWIDTH 16 0
BBX 16 16 0 -2
BITMAP
1000
1FFF
1090
27FE
2492
6492
67FE
A200
2204
27BF
2484
2D24
337F
2244
2404
2804
ENDCHAR

STARTCHAR jisx0212_3252
ENCODING 12882
SWIDTH 960 0
DWIDTH 16 0
BBX 16 16 0 -2
BITMAP
1020
17FF
1401
25FD
2020
61A4
6628
A3FE
2E02
23FE
2202
23FE
2202
23FE
218C
2E03
ENDCHAR

STARTCHAR jisx0212_3253
ENCODING 12883
SWIDTH 960 0
DWIDTH 16 0
BBX 16 16 0 -2
BITMAP
1400
14BE
1702
2414
2488
6784
607F
A409
2F8A
2A28
222E
2FA8
2228
2568
2558
288F
ENDCHAR

STARTCHAR jisx0212_3254
ENCODING 12884
SWIDTH 960 0
DWIDTH 16 0
BBX 16 16 0 -2
BITMAP
1010
18FE
1492
22FE
2010
69FF
6400
A27E
2042
2E7E
2240
227E
2242
227E
2500
28FF
ENDCHAR

STARTCHAR jisx0212_3255
ENCODING 12885
SWIDTH 960 0
DWIDTH 16 0
BBX 16 16 0 -2
BITMAP
1200
1200
17FE
2AA4
2FFF
62A4
62A4
A7FE
2204
2384
24BF
24A4
2B24
217F
2204
2C04
ENDCHAR

STARTCHAR jisx0212_3256
ENCODING 12886
SWIDTH 960 0
DWIDTH 16 0
BBX 16 16 0 -2
BITMAP
1040
17FE
1442
2124
250A
69F9
6000
A7FE
2492
2492
2FFF
2000
27FE
2020
2020
20E0
ENDCHAR

STARTCHAR jisx0212_3257
ENCODING 12887
SWIDTH 960 0
DWIDTH 16 0
BBX 16 16 0 -2
BITMAP
1104
1555
1596
2924
228A
6451
6820
A7FF
2401
2020
27FF
2070
20A8
2326
2C21
2020
ENDCHAR

STARTCHAR jisx0212_3258
ENCODING 12888
SWIDTH 960 0
DWIDTH 16 0
BBX 16 16 0 -2
BITMAP
1000
17FF
1124
2222
2C21
67FF
6421
A6B5
2529
26B5
2421
26B5
2529
26B5
2421
2427
ENDCHAR

STARTCHAR jisx0212_3259
ENCODING 12889
SWIDTH 960 0
DWIDTH 16 0
BBX 16 16 0 -2
BITMAP
1020
17FF
1488
27FF
2488
64F8
6400
A7FF
2420
25FE
2522
25FE
2922
29FE
30CC
2703
ENDCHAR

STARTCHAR jisx0212_325A
ENCODING 12890
SWIDTH 960 0
DWIDTH 16 0
BBX 16 16 0 -2
BITMAP
1108
17FF
1108
27FF
2108
6294
6C62
A3FF
2202
23FE
2202
23FE
2202
23FE
218C
2E03
ENDCHAR

STARTCHAR jisx0212_325B
ENCODING 12891
SWIDTH 960 0
DWIDTH 16 0
BBX 16 16 0 -2
BITMAP
1082
171C
1410
27FF
2492
6492
6820
A3FE
2202
23FE
2202
23FE
2202
23FE
218C
2E03
ENDCHAR

STARTCHAR jisx0212_325C
ENCODING 12892
SWIDTH 960 0
DWIDTH 16 0
BBX 16 16 0 -2
BITMAP
1200
123E
1FA2
2222
2FBE
6222
6FA2
A03E
2FA2
2AA2
2ABE
2F94
2894
2895
28A5
2BA7
ENDCHAR

STARTCHAR jisx0212_325D
ENCODING 12893
SWIDTH 960 0
DWIDTH 16 0
BBX 16 16 0 -2
BITMAP
1200
123E
1FA2
28A2
24BE
6522
6FA2
A03E
2222
2FA2
223E
2714
2694
2A25
3245
2287
ENDCHAR

STARTCHAR jisx0212_325E
ENCODING 12894
SWIDTH 960 0
DWIDTH 16 0
BBX 16 16 0 -2
BITMAP
1040
124C
15F2
20A0
2FFE
6110
63F8
A646
2BF9
2240
23F8
2240
23FE
2552
2542
281C
ENDCHAR

STARTCHAR jisx0212_325F
ENCODING 12895
SWIDTH 960 0
DWIDTH 16 0
BBX 16 16 0 -2
BITMAP
1110
1110
1FDF
2490
229F
6281
6FDF
A010
27DF
2450
27DF
2450
27DF
2450
2451
25CF
ENDCHAR

STARTCHAR jisx0212_3260
ENCODING 12896
SWIDTH 960 0
DWIDTH 16 0
BBX 16 16 0 -2
BITMAP
1100
11F0
1220
27FE
2A02
63FE
6211
AF9F
21E0
2220
27FE
2A22
23FE
2068
21A5
2E3F
ENDCHAR

STARTCHAR jisx0212_3261
ENCODING 12897
SWIDTH 960 0
DWIDTH 16 0
BBX 16 16 0 -2
BITMAP
1020
17FF
1000
23DE
2252
63DE
6088
A7FE
2088
27FE
2088
2FFF
2122
2714
39CC
2703
ENDCHAR

STARTCHAR jisx0212_3262
ENCODING 12898
SWIDTH 960 0
DWIDTH 16 0
BBX 16 16 0 -2
BITMAP
1040
10FE
1088
2950
2A30
68CC
6B03
A9FE
29AA
2932
29FE
2820
2BFF
2292
2249
2449
ENDCHAR

STARTCHAR jisx0212_3263
ENCODING 12899
SWIDTH 960 0
DWIDTH 16 0
BBX 16 16 0 -2
BITMAP
17FE
1492
1492
27FE
2200
6424
7948
AAFF
2448
297E
3EC8
227E
2B48
2AC8
327F
2240
ENDCHAR

STARTCHAR jisx0212_3264
ENCODING 12900
SWIDTH 960 0
DWIDTH 16 0
BBX 16 16 0 -2
BITMAP
1514
17DE
1924
2FFF
2514
6595
6A27
A3FC
2204
23FC
2204
23FC
2204
23FC
218C
2E03
ENDCHAR

STARTCHAR jisx0212_3265
ENCODING 12901
SWIDTH 960 0
DWIDTH 16 0
BBX 16 16 0 -2
BITMAP
0080
0080
0080
1FFE
1080
1080
1080
1080
FFFF
0080
0140
0140
0240
0441
1841
E03F
ENDCHAR

STARTCHAR jisx0212_3266
ENCODING 12902
SWIDTH 960 0
DWIDTH 16 0
BBX 16 16 0 -2
BITMAP
0000
03E0
0820
0910
1108
2246
C221
04F0
3F08
0000
0440
0440
0442
0842
3042
C03E
ENDCHAR

STARTCHAR jisx0212_3267
ENCODING 12903
SWIDTH 960 0
DWIDTH 16 0
BBX 16 16 0 -2
BITMAP
000C
00F0
3F00
2080
2080
20FC
2080
2080
3FFE
2220
2220
2220
2220
4421
4821
B01F
ENDCHAR

STARTCHAR jisx0212_3268
ENCODING 12904
SWIDTH 960 0
DWIDTH 16 0
BBX 16 16 0 -2
BITMAP
0808
0808
0808
7F7F
4848
4848
4848
4848
FFFF
1010
1818
1818
2928
2929
4749
8087
ENDCHAR

STARTCHAR jisx0212_3269
ENCODING 12905
SWIDTH 960 0
DWIDTH 16 0
BBX 16 16 0 -2
BITMAP
0000
7C7C
4444
4444
4444
4444
47C4
4004
4004
7FFC
0440
0440
0440
0842
3042
C03E
ENDCHAR

STARTCHAR jisx0212_326A
ENCODING 12906
SWIDTH 960 0
DWIDTH 16 0
BBX 16 16 0 -2
BITMAP
0100
0100
FFFE
0000
03E0
0820
1010
3FF8
D016
1010
1FF0
0440
0440
0842
3042
C03E
ENDCHAR

STARTCHAR jisx0212_326B
ENCODING 12907
SWIDTH 960 0
DWIDTH 16 0
BBX 16 16 0 -2
BITMAP
0010
7E10
0020
0024
0042
FF4F
24F1
2400
247E
2442
2442
2442
447E
4441
4401
83FF
ENDCHAR

STARTCHAR jisx0212_326C
ENCODING 12908
SWIDTH 960 0
DWIDTH 16 0
BBX 16 16 0 -2
BITMAP
0810
2850
2850
7FFE
4890
8910
0810
FFFF
2448
2448
2448
2448
2588
4689
5909
8207
ENDCHAR

STARTCHAR jisx0212_326D
ENCODING 12909
SWIDTH 960 0
DWIDTH 16 0
BBX 16 16 0 -2
BITMAP
1010
95FF
5528
55FE
5928
1128
FFFF
2910
297E
2952
297E
2A52
4A7E
4C48
4885
87FF
ENDCHAR

STARTCHAR jisx0212_326E
ENCODING 12910
SWIDTH 960 0
DWIDTH 16 0
BBX 16 16 0 -2
BITMAP
0000
47C0
4040
4040
4040
40A0
40A0
40A0
4110
4110
4208
4404
4802
5001
4000
3FFF
ENDCHAR

STARTCHAR jisx0212_326F
ENCODING 12911
SWIDTH 960 0
DWIDTH 16 0
BBX 16 16 0 -2
BITMAP
03E0
0810
300C
DFFB
1108
1FF8
1108
1FF8
0420
7FFE
0420
0420
FFFF
0430
180C
6002
ENDCHAR

STARTCHAR jisx0212_3270
ENCODING 12912
SWIDTH 960 0
DWIDTH 16 0
BBX 16 16 0 -2
BITMAP
0000
7FFE
4002
4002
4002
4FF2
4002
4002
4002
5FFA
4002
4002
4002
4002
4002
401E
ENDCHAR

STARTCHAR jisx0212_3271
ENCODING 12913
SWIDTH 960 0
DWIDTH 16 0
BBX 16 16 0 -2
BITMAP
0000
1FF8
1008
1008
1008
FFFF
1008
1008
1008
FFFF
1008
1008
1008
1008
1008
1078
ENDCHAR

STARTCHAR jisx0212_3272
ENCODING 12914
SWIDTH 960 0
DWIDTH 16 0
BBX 16 16 0 -2
BITMAP
0000
7FFE
4002
4002
4002
47E2
4422
4422
4422
4422
47E2
4402
4402
4002
4002
401E
ENDCHAR

STARTCHAR jisx0212_3273
ENCODING 12915
SWIDTH 960 0
DWIDTH 16 0
BBX 16 16 0 -2
BITMAP
0000
1FF8
1008
1008
10F8
1088
1088
1088
7FFE
4002
4002
4002
4002
4002
4002
401E
ENDCHAR

STARTCHAR jisx0212_3274
ENCODING 12916
SWIDTH 960 0
DWIDTH 16 0
BBX 16 16 0 -2
BITMAP
0100
0100
0100
7FFE
4102
4102
4182
0280
0280
0280
0480
0480
0880
1082
6082
807E
ENDCHAR

STARTCHAR jisx0212_3275
ENCODING 12917
SWIDTH 960 0
DWIDTH 16 0
BBX 16 16 0 -2
BITMAP
0000
7FFE
4002
4002
0000
1FF8
1008
1008
1FF8
1008
1008
1FF8
1008
1008
1008
FFFF
ENDCHAR

STARTCHAR jisx0212_3276
ENCODING 12918
SWIDTH 960 0
DWIDTH 16 0
BBX 16 16 0 -2
BITMAP
0000
7FFE
4002
4002
1FF8
0000
7FFE
0200
0D06
7298
0CE0
7150
0648
1846
E081
0700
ENDCHAR

STARTCHAR jisx0212_3277
ENCODING 12919
SWIDTH 960 0
DWIDTH 16 0
BBX 16 16 0 -2
BITMAP
0000
7FFE
4002
4002
FF80
2200
22FE
3E42
2242
2224
3E24
2218
2218
2E24
F242
0281
ENDCHAR

STARTCHAR jisx0212_3278
ENCODING 12920
SWIDTH 960 0
DWIDTH 16 0
BBX 16 16 0 -2
BITMAP
0100
0100
0200
FFFF
0440
0420
0810
1008
6306
80C1
0000
0008
0030
00C0
0700
1800
ENDCHAR

STARTCHAR jisx0212_3279
ENCODING 12921
SWIDTH 960 0
DWIDTH 16 0
BBX 16 16 0 -2
BITMAP
0020
8128
4124
2222
0222
0421
0BFE
0020
2020
2020
4FFF
4020
4020
8020
8020
0020
ENDCHAR

STARTCHAR jisx0212_327A
ENCODING 12922
SWIDTH 960 0
DWIDTH 16 0
BBX 16 16 0 -2
BITMAP
0000
43FE
2202
1202
0202
03FE
0210
0210
13FF
1210
2210
2208
4209
4235
83C3
0E01
ENDCHAR

STARTCHAR jisx0212_327B
ENCODING 12923
SWIDTH 960 0
DWIDTH 16 0
BBX 16 16 0 -2
BITMAP
0020
8120
4120
23FE
0220
0420
0020
07FF
2090
2090
4090
4110
4110
8211
8411
080F
ENDCHAR

STARTCHAR jisx0212_327C
ENCODING 12924
SWIDTH 960 0
DWIDTH 16 0
BBX 16 16 0 -2
BITMAP
00C0
8120
4110
2210
0208
0404
0BFA
1001
0000
27FC
2404
4404
4404
8404
87FC
0404
ENDCHAR

STARTCHAR jisx0212_327D
ENCODING 12925
SWIDTH 960 0
DWIDTH 16 0
BBX 16 16 0 -2
BITMAP
0040
87FC
4044
2044
0FFF
0044
0044
07FC
2040
2040
4FFE
4040
4040
9FFF
8040
0040
ENDCHAR

STARTCHAR jisx0212_327E
ENCODING 12926
SWIDTH 960 0
DWIDTH 16 0
BBX 16 16 0 -2
BITMAP
0080
8080
41F8
2108
0210
07FE
0A22
0222
2222
23FE
4240
4060
40A0
8121
8621
181F
ENDCHAR

STARTCHAR jisx0212_3321
ENCODING 13089
SWIDTH 960 0
DWIDTH 16 0
BBX 16 16 0 -2
BITMAP
001C
83E0
4244
2222
0421
0400
0BFC
0044
2044
2FFF
4044
4044
47FC
8044
8040
01C0
ENDCHAR

STARTCHAR jisx0212_3322
ENCODING 13090
SWIDTH 960 0
DWIDTH 16 0
BBX 16 16 0 -2
BITMAP
0014
8012
4010
27FF
0410
0410
05D2
0412
25D4
2554
4548
4948
49D5
8925
9043
2081
ENDCHAR

STARTCHAR jisx0212_3323
ENCODING 13091
SWIDTH 960 0
DWIDTH 16 0
BBX 16 16 0 -2
BITMAP
0040
8040
4FFE
2080
07FC
0110
1FFF
0208
2234
25C2
4841
57FC
4040
80A0
8318
1C07
ENDCHAR

STARTCHAR jisx0212_3324
ENCODING 13092
SWIDTH 960 0
DWIDTH 16 0
BBX 16 16 0 -2
BITMAP
0020
8222
4222
2222
03FE
0000
07FF
0000
23FE
2202
4202
43FE
4104
8084
8088
0FFF
ENDCHAR

STARTCHAR jisx0212_3325
ENCODING 13093
SWIDTH 960 0
DWIDTH 16 0
BBX 16 16 0 -2
BITMAP
0000
8FFF
4090
2090
07FE
0492
0492
07FE
2040
2040
4FFF
40E0
4150
864C
9843
0040
ENDCHAR

STARTCHAR jisx0212_3326
ENCODING 13094
SWIDTH 960 0
DWIDTH 16 0
BBX 16 16 0 -2
BITMAP
0000
87FE
4402
2402
03FC
0204
03FC
0204
23FC
2040
4040
4FFE
4000
8118
8606
1801
ENDCHAR

STARTCHAR jisx0212_3327
ENCODING 13095
SWIDTH 960 0
DWIDTH 16 0
BBX 16 16 0 -2
BITMAP
0483
849C
4490
2FD0
0490
0790
049F
0492
2792
2492
4492
5FF2
4012
8522
88A2
1042
ENDCHAR

STARTCHAR jisx0212_3328
ENCODING 13096
SWIDTH 960 0
DWIDTH 16 0
BBX 16 16 0 -2
BITMAP
0000
8BDE
4A92
2A92
0BD2
0A5E
0A50
0BD0
2A91
2A91
53CF
5000
4924
8922
8891
1091
ENDCHAR

STARTCHAR jisx0212_3329
ENCODING 13097
SWIDTH 960 0
DWIDTH 16 0
BBX 16 16 0 -2
BITMAP
0100
0100
0200
0FE0
0820
0820
0820
0820
0820
0820
0820
0820
1021
1021
2021
C01F
ENDCHAR

STARTCHAR jisx0212_332A
ENCODING 13098
SWIDTH 960 0
DWIDTH 16 0
BBX 16 16 0 -2
BITMAP
0000
3FFE
2002
2002
3FFE
2000
2000
23F0
2210
2210
2210
2210
4411
4411
4811
900F
ENDCHAR

STARTCHAR jisx0212_332B
ENCODING 13099
SWIDTH 960 0
DWIDTH 16 0
BBX 16 16 0 -2
BITMAP
0000
3FFC
2004
2004
2FF4
2104
2204
27E4
2424
2424
27E4
2425
4425
47E3
4423
8001
ENDCHAR

STARTCHAR jisx0212_332C
ENCODING 13100
SWIDTH 960 0
DWIDTH 16 0
BBX 16 16 0 -2
BITMAP
0000
3FFC
2124
26C4
2FF4
2284
2FE4
22A4
3FFC
22A4
2FE4
22C5
46A5
4A93
528B
8281
ENDCHAR

STARTCHAR jisx0212_332D
ENCODING 13101
SWIDTH 960 0
DWIDTH 16 0
BBX 16 16 0 -2
BITMAP
3E88
0252
2424
1BD8
300C
CFF3
0810
0FF0
0420
0240
FFFF
0000
0FE0
0821
1021
E01F
ENDCHAR

STARTCHAR jisx0212_332E
ENCODING 13102
SWIDTH 960 0
DWIDTH 16 0
BBX 16 16 0 -2
BITMAP
0000
43FE
2220
13FC
0220
13FC
1220
23FE
2552
4952
800C
0FE0
0820
0821
1021
E01F
ENDCHAR

STARTCHAR jisx0212_332F
ENCODING 13103
SWIDTH 960 0
DWIDTH 16 0
BBX 16 16 0 -2
BITMAP
0100
8102
8102
8102
9FF2
8102
8102
8102
8102
8102
8102
BFFA
8002
8002
FFFE
8002
ENDCHAR

STARTCHAR jisx0212_3330
ENCODING 13104
SWIDTH 960 0
DWIDTH 16 0
BBX 16 16 0 -2
BITMAP
0000
7FFE
0002
0002
0002
0002
0002
0072
0782
7802
0002
0002
0004
0004
0008
00F0
ENDCHAR

STARTCHAR jisx0212_3331
ENCODING 13105
SWIDTH 960 0
DWIDTH 16 0
BBX 16 16 0 -2
BITMAP
0020
0020
0820
0820
0820
0820
0820
0820
0820
0820
0820
0820
0820
0020
0020
01E0
ENDCHAR

STARTCHAR jisx0212_3332
ENCODING 13106
SWIDTH 960 0
DWIDTH 16 0
BBX 16 16 0 -2
BITMAP
0000
7FF8
0208
0208
220C
220A
220A
2209
4409
4409
8408
0808
0808
1010
2010
C1E0
ENDCHAR

STARTCHAR jisx0212_3333
ENCODING 13107
SWIDTH 960 0
DWIDTH 16 0
BBX 16 16 0 -2
BITMAP
1001
1401
1211
1391
FC11
1011
1111
1111
0911
0A11
0A11
0411
0C01
1241
6141
80C7
ENDCHAR

STARTCHAR jisx0212_3334
ENCODING 13108
SWIDTH 960 0
DWIDTH 16 0
BBX 16 16 0 -2
BITMAP
0001
7F81
0011
0011
0011
0011
FFD1
1211
1211
1211
1211
1211
2201
2261
4381
8C07
ENDCHAR

STARTCHAR jisx0212_3335
ENCODING 13109
SWIDTH 960 0
DWIDTH 16 0
BBX 16 16 0 -2
BITMAP
0000
1FFC
0104
0104
0204
0408
1808
6070
0000
7F7F
1111
1111
2121
2222
4242
8C8C
ENDCHAR

STARTCHAR jisx0212_3336
ENCODING 13110
SWIDTH 960 0
DWIDTH 16 0
BBX 16 16 0 -2
BITMAP
0001
3F01
2111
2111
2111
3F11
2111
2111
2111
3F11
2111
2111
2101
4101
4101
8707
ENDCHAR

STARTCHAR jisx0212_3337
ENCODING 13111
SWIDTH 960 0
DWIDTH 16 0
BBX 16 16 0 -2
BITMAP
0801
0801
0811
FF91
0011
0111
0111
6211
1A11
0411
0611
0911
1081
2081
4001
8007
ENDCHAR

STARTCHAR jisx0212_3338
ENCODING 13112
SWIDTH 960 0
DWIDTH 16 0
BBX 16 16 0 -2
BITMAP
0801
0E01
1111
1091
2051
7F51
8011
0011
FF91
0891
0891
0891
0881
0B81
0801
0807
ENDCHAR

STARTCHAR jisx0212_3339
ENCODING 13113
SWIDTH 960 0
DWIDTH 16 0
BBX 16 16 0 -2
BITMAP
2001
2001
3F91
4091
4091
FC91
4491
4491
4491
7C91
4091
4711
4001
4041
4041
3FC7
ENDCHAR

STARTCHAR jisx0212_333A
ENCODING 13114
SWIDTH 960 0
DWIDTH 16 0
BBX 16 16 0 -2
BITMAP
2400
24FC
2424
2424
FFA4
24A4
24A4
2526
2425
FF25
2445
2444
2444
4488
4488
8530
ENDCHAR

STARTCHAR jisx0212_333B
ENCODING 13115
SWIDTH 960 0
DWIDTH 16 0
BBX 16 16 0 -2
BITMAP
0801
0801
7F91
0811
0811
0811
FF91
0811
0811
0811
7F91
0811
0801
09C1
1E01
E007
ENDCHAR

STARTCHAR jisx0212_333C
ENCODING 13116
SWIDTH 960 0
DWIDTH 16 0
BBX 16 16 0 -2
BITMAP
0001
FFC1
2111
2111
3F11
2111
2111
3F11
2111
2111
2111
2711
3901
C101
0101
0107
ENDCHAR

STARTCHAR jisx0212_333D
ENCODING 13117
SWIDTH 960 0
DWIDTH 16 0
BBX 16 16 0 -2
BITMAP
1000
11FE
1012
FE12
1092
1092
1152
FE52
1032
1012
242A
2226
2243
5D44
E084
0118
ENDCHAR

STARTCHAR jisx0212_333E
ENCODING 13118
SWIDTH 960 0
DWIDTH 16 0
BBX 16 16 0 -2
BITMAP
0001
FFC1
0011
0011
7F91
4091
4091
4091
7F91
0011
4111
2211
2201
2401
07C1
F807
ENDCHAR

STARTCHAR jisx0212_333F
ENCODING 13119
SWIDTH 960 0
DWIDTH 16 0
BBX 16 16 0 -2
BITMAP
0401
2481
2489
2489
2489
5549
5549
9649
8409
0409
7FC9
0409
0401
04E1
0F01
F007
ENDCHAR

STARTCHAR jisx0212_3340
ENCODING 13120
SWIDTH 960 0
DWIDTH 16 0
BBX 16 16 0 -2
BITMAP
0901
0901
0909
79E9
0909
0909
0909
79E9
0909
0909
3909
C9E9
1101
1101
2101
4107
ENDCHAR

STARTCHAR jisx0212_3341
ENCODING 13121
SWIDTH 960 0
DWIDTH 16 0
BBX 16 16 0 -2
BITMAP
1201
1101
1FC9
E809
0509
0649
1949
60C9
1209
1109
1FC9
E809
0501
0641
1941
60C7
ENDCHAR

STARTCHAR jisx0212_3342
ENCODING 13122
SWIDTH 960 0
DWIDTH 16 0
BBX 16 16 0 -2
BITMAP
2101
2101
FFD1
2111
2111
3F11
2111
2111
3F11
2111
2111
FFD1
0001
1301
6081
8047
ENDCHAR

STARTCHAR jisx0212_3343
ENCODING 13123
SWIDTH 960 0
DWIDTH 16 0
BBX 16 16 0 -2
BITMAP
0401
0401
FFE9
0409
3F89
2489
3F89
0409
7F89
0489
FFE9
0489
7F81
0401
0401
1C07
ENDCHAR

STARTCHAR jisx0212_3344
ENCODING 13124
SWIDTH 960 0
DWIDTH 16 0
BBX 16 16 0 -2
BITMAP
0801
0801
FFC9
8049
A049
2009
3BC9
4A49
4A49
4A49
AA49
92C9
1201
2221
4221
81E7
ENDCHAR

STARTCHAR jisx0212_3345
ENCODING 13125
SWIDTH 960 0
DWIDTH 16 0
BBX 16 16 0 -2
BITMAP
0001
7BC1
0849
4A49
3189
1089
2949
4A49
8409
7BC9
0849
4A49
3181
3081
4941
8A27
ENDCHAR

STARTCHAR jisx0212_3346
ENCODING 13126
SWIDTH 960 0
DWIDTH 16 0
BBX 16 16 0 -2
BITMAP
0801
0801
FF91
0011
0011
7F11
4111
4111
4111
7F11
0811
4911
4901
8881
8881
3807
ENDCHAR

STARTCHAR jisx0212_3347
ENCODING 13127
SWIDTH 960 0
DWIDTH 16 0
BBX 16 16 0 -2
BITMAP
0401
2441
2491
2711
4411
0A11
1191
6451
8411
2451
2491
2511
4401
0A01
3181
C067
ENDCHAR

STARTCHAR jisx0212_3348
ENCODING 13128
SWIDTH 960 0
DWIDTH 16 0
BBX 16 16 0 -2
BITMAP
0801
0801
FFD1
1211
2911
4891
FFD1
4891
4891
7F91
4891
4891
7F81
0841
0841
07C7
ENDCHAR

STARTCHAR jisx0212_3349
ENCODING 13129
SWIDTH 960 0
DWIDTH 16 0
BBX 16 16 0 -2
BITMAP
0001
3F81
2089
2089
2789
2489
2489
FFC9
8049
9E49
9249
9249
9E41
9041
8041
81C7
ENDCHAR

STARTCHAR jisx0212_334A
ENCODING 13130
SWIDTH 960 0
DWIDTH 16 0
BBX 16 16 0 -2
BITMAP
0401
0401
7FE9
0909
0609
1989
7FE9
4A09
4A09
5FC9
5209
6209
5FC1
4201
83C1
BC07
ENDCHAR

STARTCHAR jisx0212_334B
ENCODING 13131
SWIDTH 960 0
DWIDTH 16 0
BBX 16 16 0 -2
BITMAP
0401
FFE1
0409
7FC9
4449
7FC9
4449
7FC9
0489
07C9
F8A9
0089
FFE1
2081
1081
0387
ENDCHAR

STARTCHAR jisx0212_334C
ENCODING 13132
SWIDTH 960 0
DWIDTH 16 0
BBX 16 16 0 -2
BITMAP
0001
FFC1
2949
4A49
98C9
2949
4C49
9309
6489
8949
3209
C449
1881
E301
0C01
F007
ENDCHAR

STARTCHAR jisx0212_334D
ENCODING 13133
SWIDTH 960 0
DWIDTH 16 0
BBX 16 16 0 -2
BITMAP
7F81
1101
0A09
FFC9
0C49
3489
CC09
0009
7FC9
4A49
53C9
6049
5E41
5241
5E41
40C7
ENDCHAR

STARTCHAR jisx0212_334E
ENCODING 13134
SWIDTH 960 0
DWIDTH 16 0
BBX 16 16 0 -2
BITMAP
0001
7FF1
4041
6245
5285
54F5
7F55
4465
5545
5545
5545
5F45
44A1
44A1
8911
9217
ENDCHAR

STARTCHAR jisx0212_334F
ENCODING 13135
SWIDTH 960 0
DWIDTH 16 0
BBX 16 16 0 -2
BITMAP
0001
7FC1
4A49
4A49
7FC9
1009
3FC9
4049
8849
7F49
4949
7F49
0A41
0F41
F141
0387
ENDCHAR

STARTCHAR jisx0212_3350
ENCODING 13136
SWIDTH 960 0
DWIDTH 16 0
BBX 16 16 0 -2
BITMAP
0801
0E01
1189
3F49
4029
FFC9
4449
6549
5649
7FC9
0009
3F89
2081
3F81
2081
3F87
ENDCHAR

STARTCHAR jisx0212_3351
ENCODING 13137
SWIDTH 960 0
DWIDTH 16 0
BBX 16 16 0 -2
BITMAP
0401
27C1
2409
FFE9
0049
0129
7FE9
4109
7F49
4949
5949
6A89
5CA1
89A1
9261
A427
ENDCHAR

STARTCHAR jisx0212_3352
ENCODING 13138
SWIDTH 960 0
DWIDTH 16 0
BBX 16 16 0 -2
BITMAP
0401
0801
3F89
2089
3F89
2089
7FC9
4449
7FC9
4449
7FC9
0009
FFE1
1101
2101
C107
ENDCHAR

STARTCHAR jisx0212_3353
ENCODING 13139
SWIDTH 960 0
DWIDTH 16 0
BBX 16 16 0 -2
BITMAP
0841
7381
4209
7FE9
4A49
4A49
8409
7FC9
4049
7FC9
4049
7FC9
4041
7FC1
3181
C067
ENDCHAR

STARTCHAR jisx0212_3354
ENCODING 13140
SWIDTH 960 0
DWIDTH 16 0
BBX 16 16 0 -2
BITMAP
1001
3F01
4209
FFC9
4049
7FC9
4229
F3E9
3C09
4409
FFC9
4449
7FC1
0D01
34A1
C7E7
ENDCHAR

STARTCHAR jisx0212_3355
ENCODING 13141
SWIDTH 960 0
DWIDTH 16 0
BBX 16 16 0 -2
BITMAP
5281
7BC1
9489
FFE9
5289
5AA9
A4E9
7FC9
4049
7FC9
4049
7FC9
4041
7FC1
3181
C067
ENDCHAR

STARTCHAR jisx0212_3356
ENCODING 13142
SWIDTH 960 0
DWIDTH 16 0
BBX 16 16 0 -2
BITMAP
0201
7FF1
4889
7FF9
4889
5AA9
6AA9
48B9
4509
7DE9
4509
7DE9
4701
7DF1
8901
B107
ENDCHAR

STARTCHAR jisx0212_3357
ENCODING 13143
SWIDTH 960 0
DWIDTH 16 0
BBX 16 16 0 -2
BITMAP
7FE1
4021
7FE9
4209
5AC9
4209
5FC9
5549
5FC9
4809
5FE9
7529
5F29
8521
BEA1
80C7
ENDCHAR

STARTCHAR jisx0212_3358
ENCODING 13144
SWIDTH 960 0
DWIDTH 16 0
BBX 16 16 0 -2
BITMAP
1020
1020
1020
1020
FF20
1120
1120
1120
1120
1120
2120
2120
2121
4221
4221
9C1F
ENDCHAR

STARTCHAR jisx0212_3359
ENCODING 13145
SWIDTH 960 0
DWIDTH 16 0
BBX 16 16 0 -2
BITMAP
0190
3E10
2010
2010
207F
3F91
2211
2211
2211
2211
2221
2221
4221
4242
4242
829C
ENDCHAR

STARTCHAR jisx0212_335A
ENCODING 13146
SWIDTH 960 0
DWIDTH 16 0
BBX 16 16 0 -2
BITMAP
0810
0810
0810
FF90
007F
0011
3E11
2211
2211
2211
2211
22A1
22A1
43A2
4042
809C
ENDCHAR

STARTCHAR jisx0212_335B
ENCODING 13147
SWIDTH 960 0
DWIDTH 16 0
BBX 16 16 0 -2
BITMAP
0100
0100
3FFC
0104
0204
0404
1808
6070
0808
0808
7F7F
1111
1111
2121
4242
8C8C
ENDCHAR

STARTCHAR jisx0212_335C
ENCODING 13148
SWIDTH 960 0
DWIDTH 16 0
BBX 16 16 0 -2
BITMAP
0110
0E10
7810
0810
087F
7F11
0811
0811
0811
FF91
0821
0821
0821
0842
0882
391C
ENDCHAR

STARTCHAR jisx0212_335D
ENCODING 13149
SWIDTH 960 0
DWIDTH 16 0
BBX 16 16 0 -2
BITMAP
0010
FF10
1010
1010
10FF
2011
3E11
6211
6211
A211
2221
2221
2221
3E42
2082
211C
ENDCHAR

STARTCHAR jisx0212_335E
ENCODING 13150
SWIDTH 960 0
DWIDTH 16 0
BBX 16 16 0 -2
BITMAP
0810
0810
1010
7F10
417F
4111
4111
4111
7F11
4111
4121
4121
4121
7F42
4082
411C
ENDCHAR

STARTCHAR jisx0212_335F
ENCODING 13151
SWIDTH 960 0
DWIDTH 16 0
BBX 16 16 0 -2
BITMAP
0190
7E10
4010
4010
407F
7F91
4011
4011
5F91
5091
5091
50A1
50A1
9FA2
9042
909C
ENDCHAR

STARTCHAR jisx0212_3360
ENCODING 13152
SWIDTH 960 0
DWIDTH 16 0
BBX 16 16 0 -2
BITMAP
4210
2210
2410
FF90
087F
0811
0811
7F11
0811
0811
0BA1
FC21
1021
1042
2082
411C
ENDCHAR

STARTCHAR jisx0212_3361
ENCODING 13153
SWIDTH 960 0
DWIDTH 16 0
BBX 16 16 0 -2
BITMAP
0810
0810
0810
7F10
087F
0811
0811
FF91
0811
0811
7F21
0821
0821
0F42
F882
011C
ENDCHAR

STARTCHAR jisx0212_3362
ENCODING 13154
SWIDTH 960 0
DWIDTH 16 0
BBX 16 16 0 -2
BITMAP
0810
1010
1210
2110
FFFF
0091
2811
2811
7F11
4811
8821
FFA1
0821
0842
0882
091C
ENDCHAR

STARTCHAR jisx0212_3363
ENCODING 13155
SWIDTH 960 0
DWIDTH 16 0
BBX 16 16 0 -2
BITMAP
0010
7FD0
4010
4010
5F7F
4411
4411
5F11
4411
4411
7FA1
4021
4021
7FC2
4042
409C
ENDCHAR

STARTCHAR jisx0212_3364
ENCODING 13156
SWIDTH 960 0
DWIDTH 16 0
BBX 16 16 0 -2
BITMAP
0002
7FA2
0822
1F22
2122
5222
0C22
0802
310E
4100
7FFE
0202
0202
0402
1804
E038
ENDCHAR

STARTCHAR jisx0212_3365
ENCODING 13157
SWIDTH 960 0
DWIDTH 16 0
BBX 16 16 0 -2
BITMAP
0810
0810
FF90
0810
087F
7F11
4111
4111
7F11
2411
2421
2421
25A1
4642
5882
811C
ENDCHAR

STARTCHAR jisx0212_3366
ENCODING 13158
SWIDTH 960 0
DWIDTH 16 0
BBX 16 16 0 -2
BITMAP
1010
1010
3F90
2010
407F
BF11
2911
2511
2111
FFD1
5221
4A21
4221
FF42
8282
0D1C
ENDCHAR

STARTCHAR jisx0212_3367
ENCODING 13159
SWIDTH 960 0
DWIDTH 16 0
BBX 16 16 0 -2
BITMAP
0810
0810
7F10
4110
417F
7F11
4111
4111
7F11
4091
4921
4621
4221
4D42
7082
C11C
ENDCHAR

STARTCHAR jisx0212_3368
ENCODING 13160
SWIDTH 960 0
DWIDTH 16 0
BBX 16 16 0 -2
BITMAP
0010
FF10
2110
1610
087F
7F11
4911
4911
7F11
4911
4911
7F21
4921
4922
4942
4B5C
ENDCHAR

STARTCHAR jisx0212_3369
ENCODING 13161
SWIDTH 960 0
DWIDTH 16 0
BBX 16 16 0 -2
BITMAP
0808
2A08
2908
7F88
923F
1209
FFC9
2109
2109
7E89
A251
2211
2611
2022
2122
1F4C
ENDCHAR

STARTCHAR jisx0212_336A
ENCODING 13162
SWIDTH 960 0
DWIDTH 16 0
BBX 16 16 0 -2
BITMAP
0810
0810
FF90
0010
427F
2211
2411
FF91
0011
7F11
4121
4121
4121
4142
7F42
409C
ENDCHAR

STARTCHAR jisx0212_336B
ENCODING 13163
SWIDTH 960 0
DWIDTH 16 0
BBX 16 16 0 -2
BITMAP
0810
0810
0810
FF90
087F
4911
4911
4911
AA91
AA91
1C21
1A21
2921
4842
8882
091C
ENDCHAR

STARTCHAR jisx0212_336C
ENCODING 13164
SWIDTH 960 0
DWIDTH 16 0
BBX 16 16 0 -2
BITMAP
0008
FFC8
0808
0808
103F
7F89
5489
5489
5C89
5489
5491
5C91
5491
54A2
7FA2
404C
ENDCHAR

STARTCHAR jisx0212_336D
ENCODING 13165
SWIDTH 960 0
DWIDTH 16 0
BBX 16 16 0 -2
BITMAP
0008
FF88
8088
BE88
80BF
BE89
8089
0009
7F09
4109
7F11
4111
7F11
4122
7F22
404C
ENDCHAR

STARTCHAR jisx0212_336E
ENCODING 13166
SWIDTH 960 0
DWIDTH 16 0
BBX 16 16 0 -2
BITMAP
0008
3F08
2108
3F08
003F
7F89
4089
7F89
4089
7F89
4091
4091
7F91
1222
6122
804C
ENDCHAR

STARTCHAR jisx0212_336F
ENCODING 13167
SWIDTH 960 0
DWIDTH 16 0
BBX 16 16 0 -2
BITMAP
3E08
0208
2108
4888
8A7F
1109
7E89
0009
F789
3189
5291
9491
3191
52A2
94C2
318C
ENDCHAR

STARTCHAR jisx0212_3370
ENCODING 13168
SWIDTH 960 0
DWIDTH 16 0
BBX 16 16 0 -2
BITMAP
0010
FF90
1410
7F10
557F
5511
7F11
0011
7F11
0011
FFA1
0821
2A21
4942
8842
389C
ENDCHAR

STARTCHAR jisx0212_3371
ENCODING 13169
SWIDTH 960 0
DWIDTH 16 0
BBX 16 16 0 -2
BITMAP
0020
7C44
05FE
7C11
40FE
FC92
84FE
0414
39FE
0101
0100
7FFE
0202
0402
1804
E038
ENDCHAR

STARTCHAR jisx0212_3372
ENCODING 13170
SWIDTH 960 0
DWIDTH 16 0
BBX 16 16 0 -2
BITMAP
1008
3E08
2208
4408
FFBF
4889
4889
7F89
1089
2909
CE11
3511
CC91
34A2
C442
188C
ENDCHAR

STARTCHAR jisx0212_3373
ENCODING 13171
SWIDTH 960 0
DWIDTH 16 0
BBX 16 16 0 -2
BITMAP
4A10
4A10
FFD0
4A10
4A7F
4E11
4011
7F91
4111
7F11
4111
7F21
4121
7F22
2242
C15C
ENDCHAR

STARTCHAR jisx0212_3374
ENCODING 13172
SWIDTH 960 0
DWIDTH 16 0
BBX 16 16 0 -2
BITMAP
0308
7C08
1008
FFC8
213F
7E89
A249
3E09
0009
FF89
8091
BE91
A291
BEA2
A0C2
838C
ENDCHAR

STARTCHAR jisx0212_3375
ENCODING 13173
SWIDTH 960 0
DWIDTH 16 0
BBX 16 16 0 -2
BITMAP
0808
2908
4888
BF48
123F
FFC9
2109
4889
B249
1409
0911
FF91
2891
2A22
4922
884C
ENDCHAR

STARTCHAR jisx0212_3376
ENCODING 13174
SWIDTH 960 0
DWIDTH 16 0
BBX 16 16 0 -2
BITMAP
1000
107F
FF49
1149
217F
2149
4E49
8049
447F
4410
FF08
5552
5551
5551
9992
AA1E
ENDCHAR

STARTCHAR jisx0212_3377
ENCODING 13175
SWIDTH 960 0
DWIDTH 16 0
BBX 16 16 0 -2
BITMAP
2208
2208
FF88
2208
7F3F
4909
7F09
4909
7F09
0809
FF91
8891
8A91
BDA2
80C2
838C
ENDCHAR

STARTCHAR jisx0212_3378
ENCODING 13176
SWIDTH 960 0
DWIDTH 16 0
BBX 16 16 0 -2
BITMAP
0808
0F08
0808
7FC8
48BF
7E09
4889
5F89
5489
5F89
5491
5F91
4411
8AA2
A962
AF4C
ENDCHAR

STARTCHAR jisx0212_3379
ENCODING 13177
SWIDTH 960 0
DWIDTH 16 0
BBX 16 16 0 -2
BITMAP
1108
2FE8
424F
9FF2
2012
67EA
A44A
27C4
244C
27D2
2461
0100
FFFF
0201
0C02
F03C
ENDCHAR

STARTCHAR jisx0212_337A
ENCODING 13178
SWIDTH 960 0
DWIDTH 16 0
BBX 16 16 0 -2
BITMAP
0408
FFC8
0008
7388
52BF
7389
1209
7F89
1209
7F89
1211
FFD1
3491
5322
9D22
70CC
ENDCHAR

STARTCHAR jisx0212_337B
ENCODING 13179
SWIDTH 960 0
DWIDTH 16 0
BBX 16 16 0 -2
BITMAP
0800
0800
1FFE
1002
2002
2002
4002
BFE2
0002
0002
0062
0782
7802
0004
0004
0038
ENDCHAR

STARTCHAR jisx0212_337C
ENCODING 13180
SWIDTH 960 0
DWIDTH 16 0
BBX 16 16 0 -2
BITMAP
0800
0800
1FFE
1002
2082
2082
4082
A102
21C2
2222
2412
2812
2002
3FF4
2004
0038
ENDCHAR

STARTCHAR jisx0212_337D
ENCODING 13181
SWIDTH 960 0
DWIDTH 16 0
BBX 16 16 0 -2
BITMAP
0800
0800
1FFF
1001
2111
3111
4921
8921
7FF9
0101
0381
0561
0911
310A
4102
010C
ENDCHAR

STARTCHAR jisx0212_337E
ENCODING 13182
SWIDTH 960 0
DWIDTH 16 0
BBX 16 16 0 -2
BITMAP
0800
0800
1FFF
1401
2401
2FF1
4901
9101
3FF9
0101
1111
1111
1111
1FF2
1002
001C
ENDCHAR

STARTCHAR jisx0212_3421
ENCODING 13345
SWIDTH 960 0
DWIDTH 16 0
BBX 16 16 0 -2
BITMAP
0800
0800
1FFE
1002
2302
4482
8842
1022
6F92
800A
1FC2
1042
1042
1044
1FC4
1018
ENDCHAR

STARTCHAR jisx0212_3422
ENCODING 13346
SWIDTH 960 0
DWIDTH 16 0
BBX 16 16 0 -2
BITMAP
1000
1000
3FFF
2401
4879
BE09
2209
3E79
2241
3E41
2379
2E09
F609
0A09
3212
CE6C
ENDCHAR

STARTCHAR jisx0212_3423
ENCODING 13347
SWIDTH 960 0
DWIDTH 16 0
BBX 16 16 0 -2
BITMAP
1000
1000
3FFF
2801
50F1
BE91
2295
3E9D
2301
3EF9
0049
2649
3831
2031
224A
1E8C
ENDCHAR

STARTCHAR jisx0212_3424
ENCODING 13348
SWIDTH 960 0
DWIDTH 16 0
BBX 16 16 0 -2
BITMAP
4092
4092
4124
4248
4524
4892
5092
6020
41FF
4105
4169
4111
4529
4545
3DFF
0101
ENDCHAR

STARTCHAR jisx0212_3425
ENCODING 13349
SWIDTH 960 0
DWIDTH 16 0
BBX 16 16 0 -2
BITMAP
0000
7FFE
4200
4200
43E0
4420
4440
4840
48A0
50A0
4110
4210
4408
4804
7FFF
4000
ENDCHAR

STARTCHAR jisx0212_3426
ENCODING 13350
SWIDTH 960 0
DWIDTH 16 0
BBX 16 16 0 -2
BITMAP
0000
7FFE
4080
4480
44B8
47C8
5C88
4488
44B0
4404
4404
43FC
4000
4000
7FFF
4000
ENDCHAR

STARTCHAR jisx0212_3427
ENCODING 13351
SWIDTH 960 0
DWIDTH 16 0
BBX 16 16 0 -2
BITMAP
0000
7FFE
4000
4000
4FF8
4080
4080
4080
4080
4080
4080
5FFC
4000
4000
7FFF
4000
ENDCHAR

STARTCHAR jisx0212_3428
ENCODING 13352
SWIDTH 960 0
DWIDTH 16 0
BBX 16 16 0 -2
BITMAP
0000
7FFF
4080
4080
5FFE
4000
43E0
4220
4220
4220
4422
4422
481E
5000
7FFF
4000
ENDCHAR

STARTCHAR jisx0212_3429
ENCODING 13353
SWIDTH 960 0
DWIDTH 16 0
BBX 16 16 0 -2
BITMAP
0000
7FFF
4080
4110
4208
4FFC
4002
4110
4110
5FFE
4110
4110
4210
4410
7FFF
4000
ENDCHAR

STARTCHAR jisx0212_342A
ENCODING 13354
SWIDTH 960 0
DWIDTH 16 0
BBX 16 16 0 -2
BITMAP
0000
7FFF
4080
4080
5FFE
4080
4488
4488
4A94
4952
5162
4220
4418
4804
7FFF
4000
ENDCHAR

STARTCHAR jisx0212_342B
ENCODING 13355
SWIDTH 960 0
DWIDTH 16 0
BBX 16 16 0 -2
BITMAP
0000
7FFF
4000
4908
4908
4908
4F7F
4908
4108
5F08
4908
4908
493E
5100
7FFF
4000
ENDCHAR

STARTCHAR jisx0212_342C
ENCODING 13356
SWIDTH 960 0
DWIDTH 16 0
BBX 16 16 0 -2
BITMAP
0000
7FFF
4040
4444
4444
47FC
4444
4000
4FFE
4040
47FC
4040
4FFE
4000
7FFF
4000
ENDCHAR

STARTCHAR jisx0212_342D
ENCODING 13357
SWIDTH 960 0
DWIDTH 16 0
BBX 16 16 0 -2
BITMAP
0000
7FFF
4200
47FC
4524
4924
5244
4498
4FFC
4404
47FC
4404
47FC
4000
7FFF
4000
ENDCHAR

STARTCHAR jisx0212_342E
ENCODING 13358
SWIDTH 960 0
DWIDTH 16 0
BBX 16 16 0 -2
BITMAP
0000
7FFF
4000
47E0
4210
4DEC
7003
4F12
4924
4D24
4B48
4D48
4B24
4912
7FFF
4000
ENDCHAR

STARTCHAR jisx0212_342F
ENCODING 13359
SWIDTH 960 0
DWIDTH 16 0
BBX 16 16 0 -2
BITMAP
0000
7FFF
4420
7FA0
4420
5FFC
5524
5F24
5524
5F24
4425
7FC5
4447
4480
7FFF
4000
ENDCHAR

STARTCHAR jisx0212_3430
ENCODING 13360
SWIDTH 960 0
DWIDTH 16 0
BBX 16 16 0 -2
BITMAP
0000
7FFF
4000
4FBE
48A2
4FBE
4000
47FC
4444
47FC
4444
5FFF
4040
4040
7FFF
4000
ENDCHAR

STARTCHAR jisx0212_3431
ENCODING 13361
SWIDTH 960 0
DWIDTH 16 0
BBX 16 16 0 -2
BITMAP
0000
7FFF
4080
4100
5FFF
4208
47FC
5A0B
63F8
4000
4FBE
48A2
4FBE
4000
7FFF
4000
ENDCHAR

STARTCHAR jisx0212_3432
ENCODING 13362
SWIDTH 960 0
DWIDTH 16 0
BBX 16 16 0 -2
BITMAP
0000
7FFF
4040
4FFE
4040
4FFE
4922
4FFE
4404
47FC
4404
47FC
420C
4C02
7FFF
4000
ENDCHAR

STARTCHAR jisx0212_3433
ENCODING 13363
SWIDTH 960 0
DWIDTH 16 0
BBX 16 16 0 -2
BITMAP
0000
FFFF
4000
40C0
4120
4210
47FC
5803
4000
47F8
4408
4408
47F8
4408
4000
3FFF
ENDCHAR

STARTCHAR jisx0212_3434
ENCODING 13364
SWIDTH 960 0
DWIDTH 16 0
BBX 16 16 0 -2
BITMAP
0000
7FFF
4000
47F8
4408
47F8
4408
47F8
4100
5FFE
4210
47A0
48D8
4704
7FFF
4000
ENDCHAR

STARTCHAR jisx0212_3435
ENCODING 13365
SWIDTH 960 0
DWIDTH 16 0
BBX 16 16 0 -2
BITMAP
0000
FFFF
4006
4FF8
4800
4FFE
4802
4FFE
4800
4FFE
5492
57FE
6492
4496
4000
3FFF
ENDCHAR

STARTCHAR jisx0212_3436
ENCODING 13366
SWIDTH 960 0
DWIDTH 16 0
BBX 16 16 0 -2
BITMAP
0000
FFF8
0008
0408
0408
0408
0408
0408
FFE8
0408
0408
0405
0405
0405
0403
0401
ENDCHAR

STARTCHAR jisx0212_3437
ENCODING 13367
SWIDTH 960 0
DWIDTH 16 0
BBX 16 16 0 -2
BITMAP
1248
1248
1248
1248
1248
1248
FFFF
1248
1248
1248
1248
1248
1248
1248
1248
1248
ENDCHAR

STARTCHAR jisx0212_3438
ENCODING 13368
SWIDTH 960 0
DWIDTH 16 0
BBX 16 16 0 -2
BITMAP
0100
0100
0100
7FFE
0100
1108
1108
1008
FFFF
1008
1008
1008
1008
1008
1FF8
1008
ENDCHAR

STARTCHAR jisx0212_3439
ENCODING 13369
SWIDTH 960 0
DWIDTH 16 0
BBX 16 16 0 -2
BITMAP
2108
2108
FFC8
2108
3F08
217F
3F08
2108
2108
FFC8
4A08
4A48
53C8
6008
7FC8
4008
ENDCHAR

STARTCHAR jisx0212_343A
ENCODING 13370
SWIDTH 960 0
DWIDTH 16 0
BBX 16 16 0 -2
BITMAP
2004
43C8
9012
67EC
4809
FBDF
2004
ABD5
AA55
ABD5
2104
0100
FFFF
0100
0100
0100
ENDCHAR

STARTCHAR jisx0212_343B
ENCODING 13371
SWIDTH 960 0
DWIDTH 16 0
BBX 16 16 0 -2
BITMAP
0100
0100
0100
01FE
0100
0100
0100
FFFF
0100
0160
0118
0104
0102
0100
0100
0100
ENDCHAR

STARTCHAR jisx0212_343C
ENCODING 13372
SWIDTH 960 0
DWIDTH 16 0
BBX 16 16 0 -2
BITMAP
0100
0100
01FF
0100
0100
7FFE
4002
4002
7F82
4082
4082
7F82
4002
4002
7FFE
4002
ENDCHAR

STARTCHAR jisx0212_343D
ENCODING 13373
SWIDTH 960 0
DWIDTH 16 0
BBX 16 16 0 -2
BITMAP
0100
01FF
0100
0100
7FFE
4082
4112
5912
4622
45A2
4842
50A2
4312
4402
7FFE
4002
ENDCHAR

STARTCHAR jisx0212_343E
ENCODING 13374
SWIDTH 960 0
DWIDTH 16 0
BBX 16 16 0 -2
BITMAP
0300
3C7E
2042
2042
2042
2042
2042
2042
2042
2042
2642
384E
E040
0040
0040
0040
ENDCHAR

STARTCHAR jisx0212_343F
ENCODING 13375
SWIDTH 960 0
DWIDTH 16 0
BBX 16 16 0 -2
BITMAP
0000
FF7E
1042
1042
1042
1042
1042
1042
1042
1042
1342
1C4E
E040
0040
0040
0040
ENDCHAR

STARTCHAR jisx0212_3440
ENCODING 13376
SWIDTH 960 0
DWIDTH 16 0
BBX 16 16 0 -2
BITMAP
0000
FF3F
1121
1121
1121
2121
2121
4621
8021
7F21
4121
4127
4120
4120
7F20
4120
ENDCHAR

STARTCHAR jisx0212_3441
ENCODING 13377
SWIDTH 960 0
DWIDTH 16 0
BBX 16 16 0 -2
BITMAP
0800
0800
103E
7F22
5522
5522
5522
5522
5522
5522
5522
5522
55AE
5E20
E020
0020
ENDCHAR

STARTCHAR jisx0212_3442
ENCODING 13378
SWIDTH 960 0
DWIDTH 16 0
BBX 16 16 0 -2
BITMAP
0000
F7BE
94A2
94A2
F7A2
0022
7F22
0022
FFA2
2022
2022
7E2E
4220
4220
0220
1C20
ENDCHAR

STARTCHAR jisx0212_3443
ENCODING 13379
SWIDTH 960 0
DWIDTH 16 0
BBX 16 16 0 -2
BITMAP
0400
0400
0FE0
0820
1040
3FFF
5000
9000
1000
1000
1000
1000
2000
2000
4000
8000
ENDCHAR

STARTCHAR jisx0212_3444
ENCODING 13380
SWIDTH 960 0
DWIDTH 16 0
BBX 16 16 0 -2
BITMAP
0000
3FFF
2000
200C
2070
27C0
2040
2040
207F
3FC0
2040
2040
2040
4041
4041
803F
ENDCHAR

STARTCHAR jisx0212_3445
ENCODING 13381
SWIDTH 960 0
DWIDTH 16 0
BBX 16 16 0 -2
BITMAP
0000
7FFF
4000
4000
4FFE
4040
4040
4040
4040
5FFF
4040
4040
4040
8040
8040
8040
ENDCHAR

STARTCHAR jisx0212_3446
ENCODING 13382
SWIDTH 960 0
DWIDTH 16 0
BBX 16 16 0 -2
BITMAP
0000
7FFF
4000
400C
47F0
4420
4420
4420
47FE
4410
4410
4410
45C8
BE09
8005
9FF3
ENDCHAR

STARTCHAR jisx0212_3447
ENCODING 13383
SWIDTH 960 0
DWIDTH 16 0
BBX 16 16 0 -2
BITMAP
0000
7FFF
4000
4040
4040
47FC
4040
4040
4FFE
4000
4040
4040
47FC
8040
8040
9FFF
ENDCHAR

STARTCHAR jisx0212_3448
ENCODING 13384
SWIDTH 960 0
DWIDTH 16 0
BBX 16 16 0 -2
BITMAP
0000
7FFF
4000
4000
4FFE
4080
4110
4108
427C
4F82
4040
4040
4FFE
8040
8040
9FFF
ENDCHAR

STARTCHAR jisx0212_3449
ENCODING 13385
SWIDTH 960 0
DWIDTH 16 0
BBX 16 16 0 -2
BITMAP
0000
7FFF
4040
4040
5FFF
4040
47FC
4444
47FC
4444
4444
47FC
4040
9FFF
8040
8040
ENDCHAR

STARTCHAR jisx0212_344A
ENCODING 13386
SWIDTH 960 0
DWIDTH 16 0
BBX 16 16 0 -2
BITMAP
0000
7FFF
4110
4110
4FFE
4110
4110
5FFF
4000
4000
47FC
4404
47FC
8404
87FC
8404
ENDCHAR

STARTCHAR jisx0212_344B
ENCODING 13387
SWIDTH 960 0
DWIDTH 16 0
BBX 16 16 0 -2
BITMAP
0000
7FFF
4040
4080
47FC
4404
47FC
4404
47FC
4042
4F64
4168
4250
8C4C
B043
81C0
ENDCHAR

STARTCHAR jisx0212_344C
ENCODING 13388
SWIDTH 960 0
DWIDTH 16 0
BBX 16 16 0 -2
BITMAP
0000
7FFF
4000
4186
5E78
4410
4410
5F7F
4438
4E38
4D54
5454
5492
A511
8410
8410
ENDCHAR

STARTCHAR jisx0212_344D
ENCODING 13389
SWIDTH 960 0
DWIDTH 16 0
BBX 16 16 0 -2
BITMAP
0000
7FFF
4208
5FFF
4208
43F8
4040
4FFE
4842
4FFE
4040
4FFE
4040
8FFC
8040
BFFF
ENDCHAR

STARTCHAR jisx0212_344E
ENCODING 13390
SWIDTH 960 0
DWIDTH 16 0
BBX 16 16 0 -2
BITMAP
0000
7FFF
4410
4410
5F10
443F
7FA4
4424
7FE4
48A4
4814
4F18
4908
9114
9162
A681
ENDCHAR

STARTCHAR jisx0212_344F
ENCODING 13391
SWIDTH 960 0
DWIDTH 16 0
BBX 16 16 0 -2
BITMAP
0000
7FFF
4410
4410
7FFE
4410
4E38
5554
6492
4410
4100
4488
4444
8412
8412
83F0
ENDCHAR

STARTCHAR jisx0212_3450
ENCODING 13392
SWIDTH 960 0
DWIDTH 16 0
BBX 16 16 0 -2
BITMAP
0000
7FFF
4110
5FFF
4110
47FC
4444
47FC
4444
47FC
4040
5FFF
5051
9079
97C5
9003
ENDCHAR

STARTCHAR jisx0212_3451
ENCODING 13393
SWIDTH 960 0
DWIDTH 16 0
BBX 16 16 0 -2
BITMAP
0000
7FFF
490A
5F89
50FF
5F88
5094
5FA2
50C1
4FFE
4842
4FFE
4842
8FFE
8040
8040
ENDCHAR

STARTCHAR jisx0212_3452
ENCODING 13394
SWIDTH 960 0
DWIDTH 16 0
BBX 16 16 0 -2
BITMAP
1FFE
1040
17FC
1404
17FC
1150
224C
4CC2
0000
7F7F
4848
5E5E
5252
5E5E
AAA9
AAA9
ENDCHAR

STARTCHAR jisx0212_3453
ENCODING 13395
SWIDTH 960 0
DWIDTH 16 0
BBX 16 16 0 -2
BITMAP
0200
0200
0200
FFFF
0400
0440
0440
0880
0880
1080
1110
2108
2204
427C
9F82
0002
ENDCHAR

STARTCHAR jisx0212_3454
ENCODING 13396
SWIDTH 960 0
DWIDTH 16 0
BBX 16 16 0 -2
BITMAP
0000
0808
0808
0808
1010
1010
1010
1010
2828
2424
2424
4242
4242
5E5F
E2E1
0001
ENDCHAR

STARTCHAR jisx0212_3455
ENCODING 13397
SWIDTH 960 0
DWIDTH 16 0
BBX 16 16 0 -2
BITMAP
0200
0200
0200
7FFE
0420
0810
0910
1108
2204
4202
8221
0410
0408
09F8
7E04
0004
ENDCHAR

STARTCHAR jisx0212_3456
ENCODING 13398
SWIDTH 960 0
DWIDTH 16 0
BBX 16 16 0 -2
BITMAP
0100
0200
0220
0410
0408
08F8
7F04
0004
1010
1010
2020
2424
4242
4E4E
F1F1
0101
ENDCHAR

STARTCHAR jisx0212_3457
ENCODING 13399
SWIDTH 960 0
DWIDTH 16 0
BBX 16 16 0 -2
BITMAP
0100
0100
FFFF
0100
3FFC
2104
3FFC
2104
2104
3FFC
2200
0410
0808
11FC
FE02
0001
ENDCHAR

STARTCHAR jisx0212_3458
ENCODING 13400
SWIDTH 960 0
DWIDTH 16 0
BBX 16 16 0 -2
BITMAP
0100
0220
0410
3FE8
1004
2108
4A92
FC7F
0821
1218
6206
9291
1248
2224
4222
0E00
ENDCHAR

STARTCHAR jisx0212_3459
ENCODING 13401
SWIDTH 960 0
DWIDTH 16 0
BBX 16 16 0 -2
BITMAP
0100
0100
3FF8
0108
0108
0108
FFFF
0100
0100
3FF8
0808
0410
0220
01C0
0E38
F007
ENDCHAR

STARTCHAR jisx0212_345A
ENCODING 13402
SWIDTH 960 0
DWIDTH 16 0
BBX 16 16 0 -2
BITMAP
0000
3FF0
0810
0420
0240
0180
0E70
700E
0000
FEFE
4242
4444
2828
1010
6C6C
8283
ENDCHAR

STARTCHAR jisx0212_345B
ENCODING 13403
SWIDTH 960 0
DWIDTH 16 0
BBX 16 16 0 -2
BITMAP
0100
0100
FFFF
0100
3FFC
2104
2104
3FFC
0100
3FF8
0808
0410
0220
01C0
0E38
F007
ENDCHAR

STARTCHAR jisx0212_345C
ENCODING 13404
SWIDTH 960 0
DWIDTH 16 0
BBX 16 16 0 -2
BITMAP
0000
FEFE
4242
4444
2828
1010
6C6C
8283
0000
FEFE
4242
4444
2828
1010
6C6C
8283
ENDCHAR

STARTCHAR jisx0212_345D
ENCODING 13405
SWIDTH 960 0
DWIDTH 16 0
BBX 16 16 0 -2
BITMAP
0000
7E7E
4202
4202
4202
7E7E
4000
4000
7EFE
4042
4042
4024
7E18
4028
40C6
4301
ENDCHAR

STARTCHAR jisx0212_345E
ENCODING 13406
SWIDTH 960 0
DWIDTH 16 0
BBX 16 16 0 -2
BITMAP
1000
10FE
1082
7E82
1082
108E
1080
FFFE
10A2
14A2
2494
2294
5F08
E114
0262
0481
ENDCHAR

STARTCHAR jisx0212_345F
ENCODING 13407
SWIDTH 960 0
DWIDTH 16 0
BBX 16 16 0 -2
BITMAP
0000
7F7E
4122
4122
7F22
4022
4022
5F14
4014
7F94
4408
5508
5494
A4A4
A442
9C81
ENDCHAR

STARTCHAR jisx0212_3460
ENCODING 13408
SWIDTH 960 0
DWIDTH 16 0
BBX 16 16 0 -2
BITMAP
1FF8
0010
0E60
03C0
FE7E
2222
1C1C
3432
C2C1
FFFF
9009
9FF9
1008
1FF8
1008
FFFF
ENDCHAR

STARTCHAR jisx0212_3461
ENCODING 13409
SWIDTH 960 0
DWIDTH 16 0
BBX 16 16 0 -2
BITMAP
0000
1FFC
1004
1004
1004
1004
1FFC
0100
0100
7FFE
0102
0202
0202
0402
1804
E078
ENDCHAR

STARTCHAR jisx0212_3462
ENCODING 13410
SWIDTH 960 0
DWIDTH 16 0
BBX 16 16 0 -2
BITMAP
0000
1FFC
1004
1004
1004
1004
1FFC
0000
0000
7FFE
0202
0202
0402
0802
3004
C078
ENDCHAR

STARTCHAR jisx0212_3463
ENCODING 13411
SWIDTH 960 0
DWIDTH 16 0
BBX 16 16 0 -2
BITMAP
0000
7FFE
4000
4000
4000
43F8
4208
4208
4208
4208
43F8
4200
4000
4000
7FFF
4000
ENDCHAR

STARTCHAR jisx0212_3464
ENCODING 13412
SWIDTH 960 0
DWIDTH 16 0
BBX 16 16 0 -2
BITMAP
0100
0100
7FFE
4000
4000
4000
3FFE
0000
0000
3FFC
2004
2004
2004
2004
3FFC
2004
ENDCHAR

STARTCHAR jisx0212_3465
ENCODING 13413
SWIDTH 960 0
DWIDTH 16 0
BBX 16 16 0 -2
BITMAP
0000
0000
FBFF
8820
8820
8820
8820
8838
8824
8822
F821
8020
8020
0020
0020
0020
ENDCHAR

STARTCHAR jisx0212_3466
ENCODING 13414
SWIDTH 960 0
DWIDTH 16 0
BBX 16 16 0 -2
BITMAP
0000
03FC
F044
9044
9044
97FF
9044
9044
9044
93FC
F044
8044
8080
0080
0300
0C00
ENDCHAR

STARTCHAR jisx0212_3467
ENCODING 13415
SWIDTH 960 0
DWIDTH 16 0
BBX 16 16 0 -2
BITMAP
0210
0210
F210
9210
9211
9212
93D4
9218
9210
9210
9210
F210
8210
8251
0391
1C0F
ENDCHAR

STARTCHAR jisx0212_3468
ENCODING 13416
SWIDTH 960 0
DWIDTH 16 0
BBX 16 16 0 -2
BITMAP
0000
03FE
F222
9222
9222
9222
9222
9222
93FE
9202
9200
F200
8201
8201
0201
01FF
ENDCHAR

STARTCHAR jisx0212_3469
ENCODING 13417
SWIDTH 960 0
DWIDTH 16 0
BBX 16 16 0 -2
BITMAP
0020
0022
F03C
97E0
9020
9222
9222
9222
9222
9222
93FE
F220
8220
8021
0021
001F
ENDCHAR

STARTCHAR jisx0212_346A
ENCODING 13418
SWIDTH 960 0
DWIDTH 16 0
BBX 16 16 0 -2
BITMAP
0090
0090
F090
9110
9111
9112
9314
9318
9530
9950
9110
F110
8110
8111
0111
010F
ENDCHAR

STARTCHAR jisx0212_346B
ENCODING 13419
SWIDTH 960 0
DWIDTH 16 0
BBX 16 16 0 -2
BITMAP
000E
3FF0
2000
2000
3FFE
2002
2002
3FFE
2000
2000
2FFE
2802
4802
4802
4FFE
8802
ENDCHAR

STARTCHAR jisx0212_346C
ENCODING 13420
SWIDTH 960 0
DWIDTH 16 0
BBX 16 16 0 -2
BITMAP
0020
0020
F820
8BFF
8820
8820
8820
8BFE
8882
8884
8844
F848
8030
8050
018C
0E03
ENDCHAR

STARTCHAR jisx0212_346D
ENCODING 13421
SWIDTH 960 0
DWIDTH 16 0
BBX 16 16 0 -2
BITMAP
0000
3FFC
2004
2004
2004
3FFC
0000
0000
7FFE
0100
0100
FFFF
0280
0460
1818
E007
ENDCHAR

STARTCHAR jisx0212_346E
ENCODING 13422
SWIDTH 960 0
DWIDTH 16 0
BBX 16 16 0 -2
BITMAP
0020
0020
F820
8928
8924
8922
8A22
8A21
8C25
8824
88E8
F810
8020
80C0
0300
0C00
ENDCHAR

STARTCHAR jisx0212_346F
ENCODING 13423
SWIDTH 960 0
DWIDTH 16 0
BBX 16 16 0 -2
BITMAP
0000
03FF
F200
9200
9200
927E
9242
9242
9242
9242
9242
F24E
8440
8441
0841
103F
ENDCHAR

STARTCHAR jisx0212_3470
ENCODING 13424
SWIDTH 960 0
DWIDTH 16 0
BBX 16 16 0 -2
BITMAP
0000
7FE0
0420
047E
0842
1002
611C
8100
FFFF
0100
0100
3FFC
2004
2004
3FFC
2004
ENDCHAR

STARTCHAR jisx0212_3471
ENCODING 13425
SWIDTH 960 0
DWIDTH 16 0
BBX 16 16 0 -2
BITMAP
0100
0104
7D88
0590
0960
0920
1110
210C
C702
0000
3FF8
2008
2008
2008
3FF8
2008
ENDCHAR

STARTCHAR jisx0212_3472
ENCODING 13426
SWIDTH 960 0
DWIDTH 16 0
BBX 16 16 0 -2
BITMAP
0000
03FE
F800
8800
8800
8800
8FFF
8840
8840
8880
8888
F904
8102
823E
0FC1
0001
ENDCHAR

STARTCHAR jisx0212_3473
ENCODING 13427
SWIDTH 960 0
DWIDTH 16 0
BBX 16 16 0 -2
BITMAP
0024
0044
F184
9684
9084
9084
9084
97FF
9084
9084
9084
F084
8104
8104
0204
0404
ENDCHAR

STARTCHAR jisx0212_3474
ENCODING 13428
SWIDTH 960 0
DWIDTH 16 0
BBX 16 16 0 -2
BITMAP
0000
03FF
F801
8801
8BF9
8801
8801
89F1
8911
8911
8911
F9F1
8101
8001
0001
000F
ENDCHAR

STARTCHAR jisx0212_3475
ENCODING 13429
SWIDTH 960 0
DWIDTH 16 0
BBX 16 16 0 -2
BITMAP
0000
03FE
F202
9202
93FE
9200
9240
9240
9242
924C
9270
F240
8440
8441
0841
103F
ENDCHAR

STARTCHAR jisx0212_3476
ENCODING 13430
SWIDTH 960 0
DWIDTH 16 0
BBX 16 16 0 -2
BITMAP
0020
0050
F888
8904
8A02
8DFD
8800
8800
8BFE
8842
8842
F842
8042
804E
0040
0040
ENDCHAR

STARTCHAR jisx0212_3477
ENCODING 13431
SWIDTH 960 0
DWIDTH 16 0
BBX 16 16 0 -2
BITMAP
0088
0088
F108
9108
9A48
947F
9289
9289
9109
9109
9291
F251
85D1
9E22
0042
009C
ENDCHAR

STARTCHAR jisx0212_3478
ENCODING 13432
SWIDTH 960 0
DWIDTH 16 0
BBX 16 16 0 -2
BITMAP
0002
001C
F3F0
9210
9210
9210
93FF
9210
9210
9208
9208
F268
8385
8C05
0003
07F9
ENDCHAR

STARTCHAR jisx0212_3479
ENCODING 13433
SWIDTH 960 0
DWIDTH 16 0
BBX 16 16 0 -2
BITMAP
0000
01FE
F800
8800
8800
8800
8BFF
8820
8820
8924
8922
FA22
8221
8421
0821
00E0
ENDCHAR

STARTCHAR jisx0212_347A
ENCODING 13434
SWIDTH 960 0
DWIDTH 16 0
BBX 16 16 0 -2
BITMAP
0020
0020
F820
883F
8820
8820
8820
8820
8BFE
8A02
8A02
FA02
8202
8202
03FE
0202
ENDCHAR

STARTCHAR jisx0212_347B
ENCODING 13435
SWIDTH 960 0
DWIDTH 16 0
BBX 16 16 0 -2
BITMAP
0048
0248
F248
9248
9248
9FFF
9248
9248
9248
9248
9278
F200
8200
8200
03FE
0200
ENDCHAR

STARTCHAR jisx0212_347C
ENCODING 13436
SWIDTH 960 0
DWIDTH 16 0
BBX 16 16 0 -2
BITMAP
0000
03FE
F202
9202
9202
9202
9202
9202
9202
93FE
F000
8088
8104
0202
0C01
1001
ENDCHAR

STARTCHAR jisx0212_347D
ENCODING 13437
SWIDTH 960 0
DWIDTH 16 0
BBX 16 16 0 -2
BITMAP
0080
0080
F9FF
8901
8A01
8A01
8DF1
8911
8911
8911
F911
81F1
8101
0102
0002
001C
ENDCHAR

STARTCHAR jisx0212_347E
ENCODING 13438
SWIDTH 960 0
DWIDTH 16 0
BBX 16 16 0 -2
BITMAP
0020
0020
F820
8BFE
8820
8820
8820
8FFF
8840
8840
8888
F884
8102
813E
0FC1
0001
ENDCHAR

STARTCHAR jisx0212_3521
ENCODING 13601
SWIDTH 960 0
DWIDTH 16 0
BBX 16 16 0 -2
BITMAP
0104
0104
F904
8FFF
8904
8904
8904
8904
89FC
8904
8904
F904
8104
8104
01FC
0104
ENDCHAR

STARTCHAR jisx0212_3522
ENCODING 13602
SWIDTH 960 0
DWIDTH 16 0
BBX 16 16 0 -2
BITMAP
0110
0150
F150
9256
925A
9272
96D2
9652
9A52
9252
9256
F250
8250
8241
0241
023F
ENDCHAR

STARTCHAR jisx0212_3523
ENCODING 13603
SWIDTH 960 0
DWIDTH 16 0
BBX 16 16 0 -2
BITMAP
0100
0100
7FFE
0810
0810
0420
0420
FFFF
0000
0000
1FF8
1008
1008
1008
1FF8
1008
ENDCHAR

STARTCHAR jisx0212_3524
ENCODING 13604
SWIDTH 960 0
DWIDTH 16 0
BBX 16 16 0 -2
BITMAP
0090
0090
F7FE
9092
9092
93FE
9290
9290
9490
97FF
9491
F091
8111
8116
0210
0410
ENDCHAR

STARTCHAR jisx0212_3525
ENCODING 13605
SWIDTH 960 0
DWIDTH 16 0
BBX 16 16 0 -2
BITMAP
0020
0020
F020
93FE
9222
9222
9222
9222
9222
9FFF
9020
F020
8050
8088
0306
0C01
ENDCHAR

STARTCHAR jisx0212_3526
ENCODING 13606
SWIDTH 960 0
DWIDTH 16 0
BBX 16 16 0 -2
BITMAP
0020
0020
F840
8848
8884
889E
8FE1
8801
8800
89FE
8902
F902
8102
8102
01FE
0102
ENDCHAR

STARTCHAR jisx0212_3527
ENCODING 13607
SWIDTH 960 0
DWIDTH 16 0
BBX 16 16 0 -2
BITMAP
0100
0100
F13F
9104
97E4
9104
9104
9104
91E4
9704
9104
F104
8104
8104
0104
071C
ENDCHAR

STARTCHAR jisx0212_3528
ENCODING 13608
SWIDTH 960 0
DWIDTH 16 0
BBX 16 16 0 -2
BITMAP
0020
0020
F820
8820
8FFF
8820
8820
8820
8820
8BFE
8A02
FA02
8202
8202
03FE
0202
ENDCHAR

STARTCHAR jisx0212_3529
ENCODING 13609
SWIDTH 960 0
DWIDTH 16 0
BBX 16 16 0 -2
BITMAP
0200
0200
0200
F20F
97C9
9249
9249
9249
9249
9249
9249
F449
8449
848F
0889
1308
ENDCHAR

STARTCHAR jisx0212_352A
ENCODING 13610
SWIDTH 960 0
DWIDTH 16 0
BBX 16 16 0 -2
BITMAP
0020
0020
F820
8BFF
8A01
8A01
8A81
8880
8886
8898
88E0
F880
8080
8081
0081
007F
ENDCHAR

STARTCHAR jisx0212_352B
ENCODING 13611
SWIDTH 960 0
DWIDTH 16 0
BBX 16 16 0 -2
BITMAP
0000
03FF
F820
8820
8840
89FE
8902
8902
8902
89FE
8902
F902
8102
8102
01FE
0102
ENDCHAR

STARTCHAR jisx0212_352C
ENCODING 13612
SWIDTH 960 0
DWIDTH 16 0
BBX 16 16 0 -2
BITMAP
0000
07FF
F904
8904
8904
89FC
8904
8904
89FC
8904
8904
F90F
81F4
8F04
0004
0004
ENDCHAR

STARTCHAR jisx0212_352D
ENCODING 13613
SWIDTH 960 0
DWIDTH 16 0
BBX 16 16 0 -2
BITMAP
0040
0040
F7FE
9040
9040
97FC
9044
93FC
9240
9440
97FE
F042
80AE
8110
060C
1803
ENDCHAR

STARTCHAR jisx0212_352E
ENCODING 13614
SWIDTH 960 0
DWIDTH 16 0
BBX 16 16 0 -2
BITMAP
0002
07E2
F102
9112
9112
93D2
9252
9252
9652
9592
9892
F112
8102
8202
0402
080E
ENDCHAR

STARTCHAR jisx0212_352F
ENCODING 13615
SWIDTH 960 0
DWIDTH 16 0
BBX 16 16 0 -2
BITMAP
0104
0084
F888
8BFF
8820
8820
8820
89FE
8820
8820
F820
87FF
8020
0020
0020
0020
ENDCHAR

STARTCHAR jisx0212_3530
ENCODING 13616
SWIDTH 960 0
DWIDTH 16 0
BBX 16 16 0 -2
BITMAP
0020
0020
F222
9222
9124
9124
9020
97FF
9070
90A8
90A8
F124
8224
8422
0821
0020
ENDCHAR

STARTCHAR jisx0212_3531
ENCODING 13617
SWIDTH 960 0
DWIDTH 16 0
BBX 16 16 0 -2
BITMAP
0020
0020
F020
97FF
9020
9020
9020
93FE
9000
9000
93FE
F202
8202
8202
03FE
0202
ENDCHAR

STARTCHAR jisx0212_3532
ENCODING 13618
SWIDTH 960 0
DWIDTH 16 0
BBX 16 16 0 -2
BITMAP
0020
0120
F120
93FE
9220
9420
9020
97FF
9070
90A8
90A8
F124
8222
8421
0820
0020
ENDCHAR

STARTCHAR jisx0212_3533
ENCODING 13619
SWIDTH 960 0
DWIDTH 16 0
BBX 16 16 0 -2
BITMAP
0020
0040
F9FE
8902
8902
8902
89FE
8902
8902
8902
89FE
F902
8102
8102
01FE
0102
ENDCHAR

STARTCHAR jisx0212_3534
ENCODING 13620
SWIDTH 960 0
DWIDTH 16 0
BBX 16 16 0 -2
BITMAP
0090
0090
F491
9492
9294
9298
9290
9090
9098
9394
9C92
F111
8110
8211
0411
080F
ENDCHAR

STARTCHAR jisx0212_3535
ENCODING 13621
SWIDTH 960 0
DWIDTH 16 0
BBX 16 16 0 -2
BITMAP
0020
0020
F020
97FF
9401
9441
9040
97FF
9088
9088
F108
81D0
8230
002C
00C2
0701
ENDCHAR

STARTCHAR jisx0212_3536
ENCODING 13622
SWIDTH 960 0
DWIDTH 16 0
BBX 16 16 0 -2
BITMAP
0000
03FF
F800
8800
89FE
8902
8902
8902
89FE
8902
8902
F902
81FE
8000
0000
07FF
ENDCHAR

STARTCHAR jisx0212_3537
ENCODING 13623
SWIDTH 960 0
DWIDTH 16 0
BBX 16 16 0 -2
BITMAP
0110
0110
F110
9210
92FF
9210
9638
9638
9A54
9254
9292
F292
8311
8210
0210
0210
ENDCHAR

STARTCHAR jisx0212_3538
ENCODING 13624
SWIDTH 960 0
DWIDTH 16 0
BBX 16 16 0 -2
BITMAP
0100
0100
F1FC
9224
9224
93FF
9624
9624
9A24
92FC
9224
F220
8220
8240
0240
0280
ENDCHAR

STARTCHAR jisx0212_3539
ENCODING 13625
SWIDTH 960 0
DWIDTH 16 0
BBX 16 16 0 -2
BITMAP
0020
0040
F0FC
9104
9688
9050
9060
9188
961F
9021
90C2
F324
8018
8030
00C0
0700
ENDCHAR

STARTCHAR jisx0212_353A
ENCODING 13626
SWIDTH 960 0
DWIDTH 16 0
BBX 16 16 0 -2
BITMAP
0020
0020
FBFF
8840
8880
88FE
8982
8982
8AFE
8882
8882
F8FE
8082
8082
0082
008E
ENDCHAR

STARTCHAR jisx0212_353B
ENCODING 13627
SWIDTH 960 0
DWIDTH 16 0
BBX 16 16 0 -2
BITMAP
0020
0020
F040
93FF
9201
9201
9279
9249
9249
9249
F249
8279
8241
0201
0201
0207
ENDCHAR

STARTCHAR jisx0212_353C
ENCODING 13628
SWIDTH 960 0
DWIDTH 16 0
BBX 16 16 0 -2
BITMAP
0088
0088
F7FF
9088
9088
9000
9104
9104
9288
9288
9450
F020
8050
8088
0306
0C01
ENDCHAR

STARTCHAR jisx0212_353D
ENCODING 13629
SWIDTH 960 0
DWIDTH 16 0
BBX 16 16 0 -2
BITMAP
0010
0090
F890
88FE
8910
8910
8810
8BFF
8810
8800
89FE
F902
8102
8102
01FE
0102
ENDCHAR

STARTCHAR jisx0212_353E
ENCODING 13630
SWIDTH 960 0
DWIDTH 16 0
BBX 16 16 0 -2
BITMAP
0000
0FDF
F251
9252
9252
9FF4
9254
9252
9252
9FF1
9251
F251
8451
8456
0890
1310
ENDCHAR

STARTCHAR jisx0212_353F
ENCODING 13631
SWIDTH 960 0
DWIDTH 16 0
BBX 16 16 0 -2
BITMAP
0100
0100
F1FF
9202
9202
9202
9672
9652
9A52
9252
9252
F272
8242
8202
0202
020E
ENDCHAR

STARTCHAR jisx0212_3540
ENCODING 13632
SWIDTH 960 0
DWIDTH 16 0
BBX 16 16 0 -2
BITMAP
0000
01FE
F902
8902
89FE
8902
8902
89FE
8902
8902
89FE
F848
8048
8089
0309
0C0F
ENDCHAR

STARTCHAR jisx0212_3541
ENCODING 13633
SWIDTH 960 0
DWIDTH 16 0
BBX 16 16 0 -2
BITMAP
0088
0088
F78F
9088
9088
9000
93FE
9020
9020
9020
97FF
F020
8020
8020
0020
0020
ENDCHAR

STARTCHAR jisx0212_3542
ENCODING 13634
SWIDTH 960 0
DWIDTH 16 0
BBX 16 16 0 -2
BITMAP
0020
0020
F7FF
9000
93FE
9202
9202
93FE
9000
97FF
9006
F038
8020
8020
0020
00E0
ENDCHAR

STARTCHAR jisx0212_3543
ENCODING 13635
SWIDTH 960 0
DWIDTH 16 0
BBX 16 16 0 -2
BITMAP
0000
00F8
F008
9108
9204
97FE
9A05
9204
9204
93FC
9090
F090
8090
8111
0611
180F
ENDCHAR

STARTCHAR jisx0212_3544
ENCODING 13636
SWIDTH 960 0
DWIDTH 16 0
BBX 16 16 0 -2
BITMAP
1000
107E
FE42
1242
2242
2242
4C7E
8000
FFFF
0004
1F84
1084
1084
1F84
1004
003C
ENDCHAR

STARTCHAR jisx0212_3545
ENCODING 13637
SWIDTH 960 0
DWIDTH 16 0
BBX 16 16 0 -2
BITMAP
0006
03F8
F020
9020
97FF
9070
90A8
9326
9401
93FC
9044
F048
808F
8111
0201
040E
ENDCHAR

STARTCHAR jisx0212_3546
ENCODING 13638
SWIDTH 960 0
DWIDTH 16 0
BBX 16 16 0 -2
BITMAP
0000
01FE
F800
8800
8FFF
8800
89FE
8800
89FE
8800
8800
F9FE
8102
8102
01FE
0102
ENDCHAR

STARTCHAR jisx0212_3547
ENCODING 13639
SWIDTH 960 0
DWIDTH 16 0
BBX 16 16 0 -2
BITMAP
0060
0090
F108
9204
95FA
9801
93FC
9004
9008
9010
93FE
F202
8202
8202
03FE
0202
ENDCHAR

STARTCHAR jisx0212_3548
ENCODING 13640
SWIDTH 960 0
DWIDTH 16 0
BBX 16 16 0 -2
BITMAP
0000
01FE
F902
8902
89FE
8800
8BFF
8A21
8A21
8A21
8BFF
FA00
8200
8201
0201
01FF
ENDCHAR

STARTCHAR jisx0212_3549
ENCODING 13641
SWIDTH 960 0
DWIDTH 16 0
BBX 16 16 0 -2
BITMAP
0040
0080
F088
9104
97FA
9101
9100
93FE
9220
9420
97FF
F020
8050
8088
0306
1C01
ENDCHAR

STARTCHAR jisx0212_354A
ENCODING 13642
SWIDTH 960 0
DWIDTH 16 0
BBX 16 16 0 -2
BITMAP
0000
0783
F0BC
9108
9108
9228
93AF
94A8
90A8
94A8
F4A8
8AA8
891F
0300
04C0
183F
ENDCHAR

STARTCHAR jisx0212_354B
ENCODING 13643
SWIDTH 960 0
DWIDTH 16 0
BBX 16 16 0 -2
BITMAP
0020
0020
F7FF
9401
9401
93FE
9000
9000
97FF
9088
9088
F088
8088
8109
0209
0C07
ENDCHAR

STARTCHAR jisx0212_354C
ENCODING 13644
SWIDTH 960 0
DWIDTH 16 0
BBX 16 16 0 -2
BITMAP
0061
0781
F109
9109
9109
97E9
9109
9109
9389
9349
F529
8529
8909
1101
0101
0107
ENDCHAR

STARTCHAR jisx0212_354D
ENCODING 13645
SWIDTH 960 0
DWIDTH 16 0
BBX 16 16 0 -2
BITMAP
0020
0040
F3FE
9202
9202
93FE
9202
9202
93FE
9020
9020
F7FF
8020
8020
0020
0020
ENDCHAR

STARTCHAR jisx0212_354E
ENCODING 13646
SWIDTH 960 0
DWIDTH 16 0
BBX 16 16 0 -2
BITMAP
0040
0040
F7FE
9040
93FE
9090
9FFF
9108
9124
9222
95FD
F820
83FE
8020
0020
0020
ENDCHAR

STARTCHAR jisx0212_354F
ENCODING 13647
SWIDTH 960 0
DWIDTH 16 0
BBX 16 16 0 -2
BITMAP
0020
0050
0088
F904
8A02
8DFD
8820
8820
8BFE
8820
8A22
8922
F924
8128
8020
07FF
ENDCHAR

STARTCHAR jisx0212_3550
ENCODING 13648
SWIDTH 960 0
DWIDTH 16 0
BBX 16 16 0 -2
BITMAP
0020
00C0
F31E
9202
9202
93DE
9202
9202
9202
93FE
9090
F090
8090
8111
0211
0C0F
ENDCHAR

STARTCHAR jisx0212_3551
ENCODING 13649
SWIDTH 960 0
DWIDTH 16 0
BBX 16 16 0 -2
BITMAP
0080
0080
F7FF
9110
9108
9244
9442
9BFD
9244
93FC
9244
F244
83FC
8041
0041
003F
ENDCHAR

STARTCHAR jisx0212_3552
ENCODING 13650
SWIDTH 960 0
DWIDTH 16 0
BBX 16 16 0 -2
BITMAP
0084
0084
FBFF
8884
8884
8884
8FFF
8800
89FE
8902
8902
F9FE
8102
8102
01FE
0102
ENDCHAR

STARTCHAR jisx0212_3553
ENCODING 13651
SWIDTH 960 0
DWIDTH 16 0
BBX 16 16 0 -2
BITMAP
0020
0020
F7FF
9020
9124
9124
9124
92AA
92AA
9470
9068
F0A8
8124
8622
1821
0020
ENDCHAR

STARTCHAR jisx0212_3554
ENCODING 13652
SWIDTH 960 0
DWIDTH 16 0
BBX 16 16 0 -2
BITMAP
0020
0020
F3FF
9108
9088
9090
97FF
9040
9080
97FF
9088
F108
81D0
8238
00C6
0701
ENDCHAR

STARTCHAR jisx0212_3555
ENCODING 13653
SWIDTH 960 0
DWIDTH 16 0
BBX 16 16 0 -2
BITMAP
0103
011C
F110
9110
97D0
911F
9112
9392
9392
9352
9552
F512
8912
8122
0122
0142
ENDCHAR

STARTCHAR jisx0212_3556
ENCODING 13654
SWIDTH 960 0
DWIDTH 16 0
BBX 16 16 0 -2
BITMAP
0000
03FF
F201
9221
92F9
9221
9221
92F9
9221
9201
92F9
F289
8489
84F9
0881
1007
ENDCHAR

STARTCHAR jisx0212_3557
ENCODING 13655
SWIDTH 960 0
DWIDTH 16 0
BBX 16 16 0 -2
BITMAP
0100
0100
FFFF
0810
0420
7FFE
4102
4102
5FFA
4102
4FF2
4812
4812
4FF2
4802
400E
ENDCHAR

STARTCHAR jisx0212_3558
ENCODING 13656
SWIDTH 960 0
DWIDTH 16 0
BBX 16 16 0 -2
BITMAP
0108
0108
F108
9108
97FF
9108
911C
939C
935C
932A
952A
F549
8949
8188
0108
0108
ENDCHAR

STARTCHAR jisx0212_3559
ENCODING 13657
SWIDTH 960 0
DWIDTH 16 0
BBX 16 16 0 -2
BITMAP
0000
07FF
F482
9502
9502
963A
952A
952A
94AA
94AA
94BA
F4A2
8702
8402
0402
040E
ENDCHAR

STARTCHAR jisx0212_355A
ENCODING 13658
SWIDTH 960 0
DWIDTH 16 0
BBX 16 16 0 -2
BITMAP
0020
0020
F7FF
9000
93FE
9202
93FE
9000
93FE
900C
9030
F020
87FF
8020
0020
00E0
ENDCHAR

STARTCHAR jisx0212_355B
ENCODING 13659
SWIDTH 960 0
DWIDTH 16 0
BBX 16 16 0 -2
BITMAP
0020
0020
F7FE
9000
9108
9108
9318
9294
9462
9842
9020
F7FF
8020
8020
0020
0020
ENDCHAR

STARTCHAR jisx0212_355C
ENCODING 13660
SWIDTH 960 0
DWIDTH 16 0
BBX 16 16 0 -2
BITMAP
0040
0040
F7FF
9040
93FC
9044
97FF
9044
9044
93FC
9040
F240
827E
8640
0940
10FF
ENDCHAR

STARTCHAR jisx0212_355D
ENCODING 13661
SWIDTH 960 0
DWIDTH 16 0
BBX 16 16 0 -2
BITMAP
0020
0020
F7FF
9401
9501
911E
91D2
9252
9252
9252
9552
F896
8090
8111
0211
040F
ENDCHAR

STARTCHAR jisx0212_355E
ENCODING 13662
SWIDTH 960 0
DWIDTH 16 0
BBX 16 16 0 -2
BITMAP
0000
3FF8
2008
2008
3FF8
0100
FFFE
0000
7FFC
4004
4FE4
4824
4FE4
4004
7FFC
4004
ENDCHAR

STARTCHAR jisx0212_355F
ENCODING 13663
SWIDTH 960 0
DWIDTH 16 0
BBX 16 16 0 -2
BITMAP
0040
0040
F7FF
9040
93FC
9044
9FFF
9044
93FC
9080
97FF
F108
83D0
8428
00C6
0F01
ENDCHAR

STARTCHAR jisx0212_3560
ENCODING 13664
SWIDTH 960 0
DWIDTH 16 0
BBX 16 16 0 -2
BITMAP
0000
0FFF
F090
9090
9090
979E
9492
9402
9402
9402
979E
F492
8090
8090
0090
0FFF
ENDCHAR

STARTCHAR jisx0212_3561
ENCODING 13665
SWIDTH 960 0
DWIDTH 16 0
BBX 16 16 0 -2
BITMAP
0306
3C78
2040
2040
3F7F
2444
2444
4484
4484
8100
1FFC
1004
1004
1004
1FFC
1004
ENDCHAR

STARTCHAR jisx0212_3562
ENCODING 13666
SWIDTH 960 0
DWIDTH 16 0
BBX 16 16 0 -2
BITMAP
0090
0090
F090
979F
9090
9090
9090
979E
9090
9090
F0D0
879F
9910
0110
0210
0410
ENDCHAR

STARTCHAR jisx0212_3563
ENCODING 13667
SWIDTH 960 0
DWIDTH 16 0
BBX 16 16 0 -2
BITMAP
0040
0080
F3FE
9222
9222
93FE
9222
9222
93FE
9050
9090
F110
8FFF
8010
0010
0010
ENDCHAR

STARTCHAR jisx0212_3564
ENCODING 13668
SWIDTH 960 0
DWIDTH 16 0
BBX 16 16 0 -2
BITMAP
0208
0208
F208
927F
9F80
9242
9242
9222
93A2
9E24
9224
F224
8224
8228
0208
0EFF
ENDCHAR

STARTCHAR jisx0212_3565
ENCODING 13669
SWIDTH 960 0
DWIDTH 16 0
BBX 16 16 0 -2
BITMAP
0108
0108
F7FF
9108
91F8
9108
91F8
9108
9FFF
9250
9252
F292
831E
8200
03FF
0200
ENDCHAR

STARTCHAR jisx0212_3566
ENCODING 13670
SWIDTH 960 0
DWIDTH 16 0
BBX 16 16 0 -2
BITMAP
0000
03FE
F222
9222
93FE
9222
9222
93FE
9020
97FF
9429
F425
843D
85C3
0401
0407
ENDCHAR

STARTCHAR jisx0212_3567
ENCODING 13671
SWIDTH 960 0
DWIDTH 16 0
BBX 16 16 0 -2
BITMAP
0000
03FE
F222
9222
93FE
9222
9222
93FE
9000
97FF
9122
F124
8118
8108
01E6
0E01
ENDCHAR

STARTCHAR jisx0212_3568
ENCODING 13672
SWIDTH 960 0
DWIDTH 16 0
BBX 16 16 0 -2
BITMAP
1010
1010
1010
FEFF
1010
1010
1010
FE7E
0000
0000
7E7E
4242
4242
4242
7E7E
4242
ENDCHAR

STARTCHAR jisx0212_3569
ENCODING 13673
SWIDTH 960 0
DWIDTH 16 0
BBX 16 16 0 -2
BITMAP
0210
0211
F3D6
9218
9211
92D1
972F
9040
93FE
9202
9202
F3FE
8202
8202
03FE
0202
ENDCHAR

STARTCHAR jisx0212_356A
ENCODING 13674
SWIDTH 960 0
DWIDTH 16 0
BBX 16 16 0 -2
BITMAP
0000
01FC
F104
9104
913C
9124
9124
97FF
9401
9401
94F9
F489
8489
84F9
0481
0407
ENDCHAR

STARTCHAR jisx0212_356B
ENCODING 13675
SWIDTH 960 0
DWIDTH 16 0
BBX 16 16 0 -2
BITMAP
0088
0088
F7FF
9088
9088
9040
9040
97FF
9080
9100
91FE
F302
8502
8902
01FE
0102
ENDCHAR

STARTCHAR jisx0212_356C
ENCODING 13676
SWIDTH 960 0
DWIDTH 16 0
BBX 16 16 0 -2
BITMAP
0040
0040
F7FE
9208
9108
9110
9FFF
9000
93FC
9204
9204
F3FC
8204
8204
03FC
0204
ENDCHAR

STARTCHAR jisx0212_356D
ENCODING 13677
SWIDTH 960 0
DWIDTH 16 0
BBX 16 16 0 -2
BITMAP
0108
0108
F1C8
924F
9248
9588
9088
9160
921F
9400
93FE
F202
83FE
8202
03FE
0202
ENDCHAR

STARTCHAR jisx0212_356E
ENCODING 13678
SWIDTH 960 0
DWIDTH 16 0
BBX 16 16 0 -2
BITMAP
0000
07FF
F050
9050
93FE
9252
9252
9272
9282
9080
97FF
F108
83E8
8218
0066
0F81
ENDCHAR

STARTCHAR jisx0212_356F
ENCODING 13679
SWIDTH 960 0
DWIDTH 16 0
BBX 16 16 0 -2
BITMAP
0000
07FE
F402
9402
97FE
9400
97FF
9448
9444
949A
97E2
F420
89FE
8820
1020
27FF
ENDCHAR

STARTCHAR jisx0212_3570
ENCODING 13680
SWIDTH 960 0
DWIDTH 16 0
BBX 16 16 0 -2
BITMAP
0000
07FF
F421
9421
93FE
9020
93FE
9222
93FE
9222
93FE
F020
8020
8FFF
0020
0020
ENDCHAR

STARTCHAR jisx0212_3571
ENCODING 13681
SWIDTH 960 0
DWIDTH 16 0
BBX 16 16 0 -2
BITMAP
0080
7C80
44FE
4502
45F2
4692
4492
4492
7CF2
4084
4018
0000
2444
2222
4221
8221
ENDCHAR

STARTCHAR jisx0212_3572
ENCODING 13682
SWIDTH 960 0
DWIDTH 16 0
BBX 16 16 0 -2
BITMAP
0020
0040
F3FE
9202
93FE
9202
9202
93FE
9000
97FF
9020
F020
83FE
8020
0020
0FFF
ENDCHAR

STARTCHAR jisx0212_3573
ENCODING 13683
SWIDTH 960 0
DWIDTH 16 0
BBX 16 16 0 -2
BITMAP
0020
0020
F7FF
90C8
9030
90C8
9304
97FF
9408
9432
95C4
F418
85E1
8806
0838
13C0
ENDCHAR

STARTCHAR jisx0212_3574
ENCODING 13684
SWIDTH 960 0
DWIDTH 16 0
BBX 16 16 0 -2
BITMAP
0210
0210
F490
98BF
9521
9241
9201
9481
9F7D
9201
F281
8A81
8A41
1242
1202
021C
ENDCHAR

STARTCHAR jisx0212_3575
ENCODING 13685
SWIDTH 960 0
DWIDTH 16 0
BBX 16 16 0 -2
BITMAP
0000
0FF0
0810
0810
0FF0
0000
7E7E
4242
4242
7E7E
0100
FFFF
0540
0930
310C
C103
ENDCHAR

STARTCHAR jisx0212_3576
ENCODING 13686
SWIDTH 960 0
DWIDTH 16 0
BBX 16 16 0 -2
BITMAP
0006
07F8
F420
943E
9420
95FE
9522
953C
95E2
953E
9500
F528
8928
8A29
1249
2487
ENDCHAR

STARTCHAR jisx0212_3577
ENCODING 13687
SWIDTH 960 0
DWIDTH 16 0
BBX 16 16 0 -2
BITMAP
0020
0020
F7FF
9000
91FC
9104
91FC
9000
97FF
9401
94F9
F489
8489
84F9
0481
0407
ENDCHAR

STARTCHAR jisx0212_3578
ENCODING 13688
SWIDTH 960 0
DWIDTH 16 0
BBX 16 16 0 -2
BITMAP
0060
0090
F108
92F4
9402
9BFD
9204
93FC
9204
93FC
9200
F3FE
8502
8502
09FE
1102
ENDCHAR

STARTCHAR jisx0212_3579
ENCODING 13689
SWIDTH 960 0
DWIDTH 16 0
BBX 16 16 0 -2
BITMAP
0020
0020
F7FF
9020
93FE
9020
97FF
9048
9190
90A4
9042
F7FD
8021
8124
0222
0C21
ENDCHAR

STARTCHAR jisx0212_357A
ENCODING 13690
SWIDTH 960 0
DWIDTH 16 0
BBX 16 16 0 -2
BITMAP
0040
03FE
F082
971C
9104
97DF
9249
9249
9596
9BFE
9202
F3FE
8202
83FE
0202
020E
ENDCHAR

STARTCHAR jisx0212_357B
ENCODING 13691
SWIDTH 960 0
DWIDTH 16 0
BBX 16 16 0 -2
BITMAP
0000
0078
0108
F104
92FA
9401
9078
9108
9108
9204
97FE
FAA5
82A4
82A4
02A4
0FFF
ENDCHAR

STARTCHAR jisx0212_357C
ENCODING 13692
SWIDTH 960 0
DWIDTH 16 0
BBX 16 16 0 -2
BITMAP
0000
03FF
F220
9220
93FE
9220
93FE
9220
9220
93FF
9001
F2A9
82A9
84A9
0482
080C
ENDCHAR

STARTCHAR jisx0212_357D
ENCODING 13693
SWIDTH 960 0
DWIDTH 16 0
BBX 16 16 0 -2
BITMAP
0020
0020
F3FE
9020
9020
97FF
9048
9084
97FA
9001
9000
F3FE
8252
8252
0252
0FFF
ENDCHAR

STARTCHAR jisx0212_357E
ENCODING 13694
SWIDTH 960 0
DWIDTH 16 0
BBX 16 16 0 -2
BITMAP
0108
0108
F7FE
9108
9108
9060
9090
9108
92F4
9402
9801
F3FC
8204
8204
03FC
0204
ENDCHAR

STARTCHAR jisx0212_3621
ENCODING 13857
SWIDTH 960 0
DWIDTH 16 0
BBX 16 16 0 -2
BITMAP
0000
03FE
F08C
9070
90C8
9304
97FF
9252
918C
9252
9421
F7FF
8070
80A8
0326
0C21
ENDCHAR

STARTCHAR jisx0212_3622
ENCODING 13858
SWIDTH 960 0
DWIDTH 16 0
BBX 16 16 0 -2
BITMAP
0000
01FC
F104
913C
9124
9124
97FF
9401
95FD
9104
91FC
F104
81FC
8104
0104
011C
ENDCHAR

STARTCHAR jisx0212_3623
ENCODING 13859
SWIDTH 960 0
DWIDTH 16 0
BBX 16 16 0 -2
BITMAP
000E
03F8
F224
9212
9451
9A88
9110
90A4
9042
97FD
9020
F7FF
8050
8088
0306
0C01
ENDCHAR

STARTCHAR jisx0212_3624
ENCODING 13860
SWIDTH 960 0
DWIDTH 16 0
BBX 16 16 0 -2
BITMAP
0022
00CC
F3B0
9090
97FF
9090
93FE
9092
97FF
9092
93FE
F198
8294
8492
0891
1090
ENDCHAR

STARTCHAR jisx0212_3625
ENCODING 13861
SWIDTH 960 0
DWIDTH 16 0
BBX 16 16 0 -2
BITMAP
0108
0108
F7FF
9108
9108
9104
9208
9249
9CB2
9492
930C
F208
828A
8492
1F7D
0041
ENDCHAR

STARTCHAR jisx0212_3626
ENCODING 13862
SWIDTH 960 0
DWIDTH 16 0
BBX 16 16 0 -2
BITMAP
0000
03FC
F224
9224
9254
928C
9304
93FC
9000
97FE
9492
F492
8492
8492
0492
1FFF
ENDCHAR

STARTCHAR jisx0212_3627
ENCODING 13863
SWIDTH 960 0
DWIDTH 16 0
BBX 16 16 0 -2
BITMAP
0040
0148
F244
9442
9BFD
9204
9204
93FC
9204
93FC
9204
F204
83FC
8108
0606
1801
ENDCHAR

STARTCHAR jisx0212_3628
ENCODING 13864
SWIDTH 960 0
DWIDTH 16 0
BBX 16 16 0 -2
BITMAP
0000
03FE
F222
93FE
9222
93FE
9124
9124
97FF
9124
9124
F7FF
8020
83FE
0020
0020
ENDCHAR

STARTCHAR jisx0212_3629
ENCODING 13865
SWIDTH 960 0
DWIDTH 16 0
BBX 16 16 0 -2
BITMAP
0060
0090
F108
96F6
9801
93FC
9008
93FC
9204
93FC
9204
F3FC
8204
83FC
030C
1C03
ENDCHAR

STARTCHAR jisx0212_362A
ENCODING 13866
SWIDTH 960 0
DWIDTH 16 0
BBX 16 16 0 -2
BITMAP
0100
023F
F7C4
9454
97D4
9454
9454
97DF
9014
944C
958C
F614
8454
87E5
0045
0087
ENDCHAR

STARTCHAR jisx0212_362B
ENCODING 13867
SWIDTH 960 0
DWIDTH 16 0
BBX 16 16 0 -2
BITMAP
0050
0050
F7FF
9050
93FE
9252
93FE
9252
93FE
9000
91FC
F104
81FC
8104
01FC
0104
ENDCHAR

STARTCHAR jisx0212_362C
ENCODING 13868
SWIDTH 960 0
DWIDTH 16 0
BBX 16 16 0 -2
BITMAP
0020
0222
F222
93FE
9000
97FF
9410
94FE
9410
9410
95FF
F410
84FE
8810
0810
13FF
ENDCHAR

STARTCHAR jisx0212_362D
ENCODING 13869
SWIDTH 960 0
DWIDTH 16 0
BBX 16 16 0 -2
BITMAP
0020
03FE
F222
97FF
9222
93FE
9020
93FE
9222
93FE
9080
F7FF
8108
83D0
006C
0F83
ENDCHAR

STARTCHAR jisx0212_362E
ENCODING 13870
SWIDTH 960 0
DWIDTH 16 0
BBX 16 16 0 -2
BITMAP
0000
07FF
F040
93FE
9202
93FE
9202
93FE
9202
93FE
9044
F07F
87A8
8011
00ED
0F03
ENDCHAR

STARTCHAR jisx0212_362F
ENCODING 13871
SWIDTH 960 0
DWIDTH 16 0
BBX 16 16 0 -2
BITMAP
2000
23DE
2242
2242
FE42
23DE
2200
2200
7BBE
4A12
4A12
4BD4
4A08
4A14
7A22
4241
ENDCHAR

STARTCHAR jisx0212_3630
ENCODING 13872
SWIDTH 960 0
DWIDTH 16 0
BBX 16 16 0 -2
BITMAP
0000
07DE
F14A
9252
94E6
914A
9252
94E2
9110
962C
98C3
F718
8062
878C
0070
0780
ENDCHAR

STARTCHAR jisx0212_3631
ENCODING 13873
SWIDTH 960 0
DWIDTH 16 0
BBX 16 16 0 -2
BITMAP
0040
007E
F040
97FF
9441
9478
95C2
947E
940C
95F2
9492
F454
85FF
8810
0810
1070
ENDCHAR

STARTCHAR jisx0212_3632
ENCODING 13874
SWIDTH 960 0
DWIDTH 16 0
BBX 16 16 0 -2
BITMAP
0104
0104
F7DF
9104
97DF
9104
91DF
9704
9104
9000
97FE
F002
87FF
8002
07FE
0002
ENDCHAR

STARTCHAR jisx0212_3633
ENCODING 13875
SWIDTH 960 0
DWIDTH 16 0
BBX 16 16 0 -2
BITMAP
0010
0410
F2FE
9892
94FC
90A4
92A4
9298
9524
9AC3
9080
F7FF
8108
83D0
006C
0F82
ENDCHAR

STARTCHAR jisx0212_3634
ENCODING 13876
SWIDTH 960 0
DWIDTH 16 0
BBX 16 16 0 -2
BITMAP
0000
03FC
F204
93FC
9204
93FC
9000
9FFF
9480
97FE
9492
F794
8488
8794
1CA2
00C1
ENDCHAR

STARTCHAR jisx0212_3635
ENCODING 13877
SWIDTH 960 0
DWIDTH 16 0
BBX 16 16 0 -2
BITMAP
0020
0122
FA34
94A9
9326
9224
94A9
9FFF
9024
97FF
9420
F622
8514
8919
0865
1183
ENDCHAR

STARTCHAR jisx0212_3636
ENCODING 13878
SWIDTH 960 0
DWIDTH 16 0
BBX 16 16 0 -2
BITMAP
0020
03FE
F222
93FE
9020
97FF
9000
93FE
9202
93FE
9202
F3FE
8202
83FE
018C
0E03
ENDCHAR

STARTCHAR jisx0212_3637
ENCODING 13879
SWIDTH 960 0
DWIDTH 16 0
BBX 16 16 0 -2
BITMAP
0020
0020
F3FE
9020
97FF
9104
97DF
9104
97FF
9000
97FF
F090
8090
8111
0211
0C0F
ENDCHAR

STARTCHAR jisx0212_3638
ENCODING 13880
SWIDTH 960 0
DWIDTH 16 0
BBX 16 16 0 -2
BITMAP
0020
0040
F3FE
9202
93FE
9202
93FE
9020
97AF
9020
97AF
F020
87FF
8020
0020
0020
ENDCHAR

STARTCHAR jisx0212_3639
ENCODING 13881
SWIDTH 960 0
DWIDTH 16 0
BBX 16 16 0 -2
BITMAP
0020
0020
F7FF
9050
928A
9104
93FE
9505
91FC
9104
91FC
F020
8124
8622
1821
00E0
ENDCHAR

STARTCHAR jisx0212_363A
ENCODING 13882
SWIDTH 960 0
DWIDTH 16 0
BBX 16 16 0 -2
BITMAP
0020
0020
F7FF
9020
93FE
9000
93FE
9202
93FE
9088
97FF
F000
83FE
8202
03FE
0202
ENDCHAR

STARTCHAR jisx0212_363B
ENCODING 13883
SWIDTH 960 0
DWIDTH 16 0
BBX 16 16 0 -2
BITMAP
0000
7E7E
4242
7E7E
0000
3FFC
2104
3FFC
2104
3FFC
0000
FFFF
0000
3FFC
2004
3FFC
ENDCHAR

STARTCHAR jisx0212_363C
ENCODING 13884
SWIDTH 960 0
DWIDTH 16 0
BBX 16 16 0 -2
BITMAP
0000
07DF
F451
9451
97DF
9000
93FE
9222
93FE
9222
93FE
F020
8FFF
8020
0020
0020
ENDCHAR

STARTCHAR jisx0212_363D
ENCODING 13885
SWIDTH 960 0
DWIDTH 16 0
BBX 16 16 0 -2
BITMAP
0000
03FE
F222
932A
92B2
9222
93FE
9220
9020
93FE
9020
F7FF
8000
8292
0449
0849
ENDCHAR

STARTCHAR jisx0212_363E
ENCODING 13886
SWIDTH 960 0
DWIDTH 16 0
BBX 16 16 0 -2
BITMAP
0000
079E
F492
979E
9410
9451
97DF
9088
9088
97FF
9088
F088
8FFF
8108
0606
1801
ENDCHAR

STARTCHAR jisx0212_363F
ENCODING 13887
SWIDTH 960 0
DWIDTH 16 0
BBX 16 16 0 -2
BITMAP
0000
07FF
F050
9050
93DE
9252
9202
93DE
9252
9050
97FF
F020
8492
8481
0489
0878
ENDCHAR

STARTCHAR jisx0212_3640
ENCODING 13888
SWIDTH 960 0
DWIDTH 16 0
BBX 16 16 0 -2
BITMAP
0006
07F8
F224
9124
9128
97FF
9070
90A8
9326
9401
93FE
F222
83FE
8222
03FE
0202
ENDCHAR

STARTCHAR jisx0212_3641
ENCODING 13889
SWIDTH 960 0
DWIDTH 16 0
BBX 16 16 0 -2
BITMAP
0100
01DF
F709
91C9
9709
91D1
9716
9148
9290
9124
90C2
F7FD
8020
8124
0222
0C21
ENDCHAR

STARTCHAR jisx0212_3642
ENCODING 13890
SWIDTH 960 0
DWIDTH 16 0
BBX 16 16 0 -2
BITMAP
0084
03DF
F294
9294
97FF
918C
9295
92D5
95A7
9000
93FE
F202
83FE
8202
03FE
0202
ENDCHAR

STARTCHAR jisx0212_3643
ENCODING 13891
SWIDTH 960 0
DWIDTH 16 0
BBX 16 16 0 -2
BITMAP
0008
07C8
F108
9110
9FFF
9492
9492
97B2
94B2
94D2
9794
F48C
8488
8794
1CA2
00C1
ENDCHAR

STARTCHAR jisx0212_3644
ENCODING 13892
SWIDTH 960 0
DWIDTH 16 0
BBX 16 16 0 -2
BITMAP
0108
0108
FFE8
9010
97DF
9452
97D2
9032
97D2
9092
9114
F1CC
8F08
8114
0122
0741
ENDCHAR

STARTCHAR jisx0212_3645
ENCODING 13893
SWIDTH 960 0
DWIDTH 16 0
BBX 16 16 0 -2
BITMAP
0088
0110
F1FF
9310
9510
99FE
9110
91FE
9110
9110
91FF
F000
8294
8292
0449
0849
ENDCHAR

STARTCHAR jisx0212_3646
ENCODING 13894
SWIDTH 960 0
DWIDTH 16 0
BBX 16 16 0 -2
BITMAP
0060
0090
F108
96F6
9801
93FC
9204
93FC
9000
97BE
928A
F492
89A6
828A
0492
09A6
ENDCHAR

STARTCHAR jisx0212_3647
ENCODING 13895
SWIDTH 960 0
DWIDTH 16 0
BBX 16 16 0 -2
BITMAP
0020
0792
F094
9909
950A
9204
95FA
9801
93FC
9204
9204
F3FC
8108
8088
0090
0FFF
ENDCHAR

STARTCHAR jisx0212_3648
ENCODING 13896
SWIDTH 960 0
DWIDTH 16 0
BBX 16 16 0 -2
BITMAP
0020
0050
F088
9104
92FA
9401
9000
93DE
9252
9252
93DE
F108
8108
8294
0462
0841
ENDCHAR

STARTCHAR jisx0212_3649
ENCODING 13897
SWIDTH 960 0
DWIDTH 16 0
BBX 16 16 0 -2
BITMAP
0010
0410
F2FE
9010
91FF
9444
9228
91FF
9010
9EFE
9210
F3FF
8210
8210
0500
08FF
ENDCHAR

STARTCHAR jisx0212_364A
ENCODING 13898
SWIDTH 960 0
DWIDTH 16 0
BBX 16 16 0 -2
BITMAP
0080
01F8
F210
97FF
9252
929E
9300
92FE
9200
93FF
9200
F2FE
8400
84FE
0882
10FE
ENDCHAR

STARTCHAR jisx0212_364B
ENCODING 13899
SWIDTH 960 0
DWIDTH 16 0
BBX 16 16 0 -2
BITMAP
0020
0040
F3FE
921A
92E2
92AA
93FE
9272
92AA
9302
9020
F7FF
8020
8050
018C
0E03
ENDCHAR

STARTCHAR jisx0212_364C
ENCODING 13900
SWIDTH 960 0
DWIDTH 16 0
BBX 16 16 0 -2
BITMAP
0000
03FE
F252
9252
93FE
9080
91FF
9241
9441
9BF9
9249
F3F9
8051
8079
0789
0006
ENDCHAR

STARTCHAR jisx0212_364D
ENCODING 13901
SWIDTH 960 0
DWIDTH 16 0
BBX 16 16 0 -2
BITMAP
0020
0120
F13E
9120
97FF
9014
97FF
9410
9410
97F2
9492
F5B4
8AAD
8CCD
1193
2621
ENDCHAR

STARTCHAR jisx0212_364E
ENCODING 13902
SWIDTH 960 0
DWIDTH 16 0
BBX 16 16 0 -2
BITMAP
0000
FFFF
0100
793C
4924
4924
793C
0100
7FFE
0100
793C
4924
4924
793C
0100
FFFF
ENDCHAR

STARTCHAR jisx0212_364F
ENCODING 13903
SWIDTH 960 0
DWIDTH 16 0
BBX 16 16 0 -2
BITMAP
0108
0208
F7C8
9450
97DF
9452
97D2
9132
9152
9FD2
9214
F3CC
8448
8454
08A2
1341
ENDCHAR

STARTCHAR jisx0212_3650
ENCODING 13904
SWIDTH 960 0
DWIDTH 16 0
BBX 16 16 0 -2
BITMAP
0006
07F8
F242
9124
97FF
9441
94A5
928A
94F8
9040
90FC
F184
8648
8830
01CC
0E03
ENDCHAR

STARTCHAR jisx0212_3651
ENCODING 13905
SWIDTH 960 0
DWIDTH 16 0
BBX 16 16 0 -2
BITMAP
0040
007E
F040
97FE
9442
95F8
9442
97FF
9410
9462
9594
F468
859C
8A6A
0989
1670
ENDCHAR

STARTCHAR jisx0212_3652
ENCODING 13906
SWIDTH 960 0
DWIDTH 16 0
BBX 16 16 0 -2
BITMAP
0060
0090
F108
9204
95FA
9801
97FE
964A
9552
97FE
9000
F3FC
8204
83FC
0204
03FC
ENDCHAR

STARTCHAR jisx0212_3653
ENCODING 13907
SWIDTH 960 0
DWIDTH 16 0
BBX 16 16 0 -2
BITMAP
2108
1090
47FF
2040
03FE
7202
13FE
1202
13FE
2A02
47FF
8000
3FFE
2002
2002
3FFE
ENDCHAR

STARTCHAR jisx0212_3654
ENCODING 13908
SWIDTH 960 0
DWIDTH 16 0
BBX 16 16 0 -2
BITMAP
0088
07FF
F088
9110
93FF
9510
99FE
9110
91FE
9110
91FF
F000
83FE
8084
0078
0F87
ENDCHAR

STARTCHAR jisx0212_3655
ENCODING 13909
SWIDTH 960 0
DWIDTH 16 0
BBX 16 16 0 -2
BITMAP
0000
03FF
F020
97FF
9421
95AD
9020
93AE
9000
97FF
9040
F7FF
8491
8491
0491
0497
ENDCHAR

STARTCHAR jisx0212_3656
ENCODING 13910
SWIDTH 960 0
DWIDTH 16 0
BBX 16 16 0 -2
BITMAP
0000
07FF
F400
95E4
9526
95E5
953F
95E4
9404
95E4
9524
F5EA
852A
89EA
0931
1161
ENDCHAR

STARTCHAR jisx0212_3657
ENCODING 13911
SWIDTH 960 0
DWIDTH 16 0
BBX 16 16 0 -2
BITMAP
0040
07FE
F040
93FC
9000
97FF
9001
93F9
9040
97FE
9004
FF7F
8944
8924
0F04
081C
ENDCHAR

STARTCHAR jisx0212_3658
ENCODING 13912
SWIDTH 960 0
DWIDTH 16 0
BBX 16 16 0 -2
BITMAP
0040
0040
F7FF
90A2
9F5C
9554
9552
9B7D
9040
9204
93FC
F204
83FC
8204
0404
0804
ENDCHAR

STARTCHAR jisx0212_3659
ENCODING 13913
SWIDTH 960 0
DWIDTH 16 0
BBX 16 16 0 -2
BITMAP
0100
01F8
F210
97FE
9A22
93FE
9222
93FE
9292
9449
9BFE
F202
83FE
8202
03FE
0202
ENDCHAR

STARTCHAR jisx0212_365A
ENCODING 13914
SWIDTH 960 0
DWIDTH 16 0
BBX 16 16 0 -2
BITMAP
0020
0120
F13E
9120
9FFF
9088
948A
9556
9622
97FE
948A
F48A
8556
8622
07FE
0402
ENDCHAR

STARTCHAR jisx0212_365B
ENCODING 13915
SWIDTH 960 0
DWIDTH 16 0
BBX 16 16 0 -2
BITMAP
0000
7E7E
4242
7E7E
0000
7FFF
4100
7FFC
4004
7FFC
4100
7FFF
0000
7E7E
4242
7E7E
ENDCHAR

STARTCHAR jisx0212_365C
ENCODING 13916
SWIDTH 960 0
DWIDTH 16 0
BBX 16 16 0 -2
BITMAP
0020
0020
F7FF
9484
97FF
9484
94FC
9400
97FF
9522
95FE
F522
85FE
8800
08CE
1301
ENDCHAR

STARTCHAR jisx0212_365D
ENCODING 13917
SWIDTH 960 0
DWIDTH 16 0
BBX 16 16 0 -2
BITMAP
0100
FFFE
0100
7FFC
0000
3FF8
2008
3FF8
1010
FEFF
1010
FE7E
0000
FC7E
8442
FC7E
ENDCHAR

STARTCHAR jisx0212_365E
ENCODING 13918
SWIDTH 960 0
DWIDTH 16 0
BBX 16 16 0 -2
BITMAP
0048
0788
F11F
97D5
9125
9389
9551
9906
90E0
9110
F64C
9953
80E0
0358
0C46
01C1
ENDCHAR

STARTCHAR jisx0212_365F
ENCODING 13919
SWIDTH 960 0
DWIDTH 16 0
BBX 16 16 0 -2
BITMAP
0000
07FF
F400
9466
9798
9488
97FF
9488
95DC
96AA
F488
8420
853E
0920
0920
17FF
ENDCHAR

STARTCHAR jisx0212_3660
ENCODING 13920
SWIDTH 960 0
DWIDTH 16 0
BBX 16 16 0 -2
BITMAP
0040
007C
F040
97FF
9441
947A
97C2
947E
9400
95FC
F524
85FC
8924
0BFE
1252
27FF
ENDCHAR

STARTCHAR jisx0212_3661
ENCODING 13921
SWIDTH 960 0
DWIDTH 16 0
BBX 16 16 0 -2
BITMAP
0110
0110
F7DF
9450
925F
9281
9FFF
9010
97DF
9450
F7DF
8450
87DF
0450
0451
05CF
ENDCHAR

STARTCHAR jisx0212_3662
ENCODING 13922
SWIDTH 960 0
DWIDTH 16 0
BBX 16 16 0 -2
BITMAP
010A
0209
F47F
9888
957F
9249
927F
9549
9FCB
9202
F77F
86A2
8A92
0A92
1202
020E
ENDCHAR

STARTCHAR jisx0212_3663
ENCODING 13923
SWIDTH 960 0
DWIDTH 16 0
BBX 16 16 0 -2
BITMAP
0200
023E
FFE2
94A2
94BE
9522
9FE2
923E
9222
9FE2
F23E
8714
8694
0A25
1245
0287
ENDCHAR

STARTCHAR jisx0212_3664
ENCODING 13924
SWIDTH 960 0
DWIDTH 16 0
BBX 16 16 0 -2
BITMAP
0100
017F
F508
95D0
953E
9522
9FE2
903E
9222
967E
FAA2
8AA2
973E
0214
0C22
3041
ENDCHAR

STARTCHAR jisx0212_3665
ENCODING 13925
SWIDTH 960 0
DWIDTH 16 0
BBX 16 16 0 -2
BITMAP
1000
10FF
FF08
1010
7E14
0032
7E51
4291
7E10
2400
FF7E
0042
7E42
4242
7E7E
4242
ENDCHAR

STARTCHAR jisx0212_3666
ENCODING 13926
SWIDTH 960 0
DWIDTH 16 0
BBX 16 16 0 -2
BITMAP
0108
01CC
E10A
AFE9
A928
AFDF
A928
A9E9
A809
AFEA
EA4A
8BC4
9045
128B
22D3
4F21
ENDCHAR

STARTCHAR jisx0212_3667
ENCODING 13927
SWIDTH 960 0
DWIDTH 16 0
BBX 16 16 0 -2
BITMAP
0540
38BC
2344
3C3C
2144
3CBC
2344
FFFF
8901
9FFD
2100
FFFF
0100
3FFC
2004
3FFC
ENDCHAR

STARTCHAR jisx0212_3668
ENCODING 13928
SWIDTH 960 0
DWIDTH 16 0
BBX 16 16 0 -2
BITMAP
0020
07FF
F000
93DE
9252
93DE
9088
97FF
9088
93FE
9088
F7FF
8192
868C
18B4
03C3
ENDCHAR

STARTCHAR jisx0212_3669
ENCODING 13929
SWIDTH 960 0
DWIDTH 16 0
BBX 16 16 0 -2
BITMAP
0090
079E
F090
979E
9492
979E
9110
9120
93FE
9220
F7FC
8A20
93FC
0220
03FF
0200
ENDCHAR

STARTCHAR jisx0212_366A
ENCODING 13930
SWIDTH 960 0
DWIDTH 16 0
BBX 16 16 0 -2
BITMAP
0000
EEFE
AA82
AA82
EEFE
0094
7CFE
5494
7C94
54FF
7CA9
10AA
FFA4
1124
113A
12E1
ENDCHAR

STARTCHAR jisx0212_366B
ENCODING 13931
SWIDTH 960 0
DWIDTH 16 0
BBX 16 16 0 -2
BITMAP
0000
07FE
F492
9492
97FE
9200
9492
9324
927F
94A8
FF7E
8228
8ABE
0AA8
12BF
0220
ENDCHAR

STARTCHAR jisx0212_366C
ENCODING 13932
SWIDTH 960 0
DWIDTH 16 0
BBX 16 16 0 -2
BITMAP
0100
7FFE
1108
1FF8
0100
FFFF
9249
9E79
0420
7FFE
0420
FFFF
0244
1C28
E5D8
1E07
ENDCHAR

STARTCHAR jisx0212_366D
ENCODING 13933
SWIDTH 960 0
DWIDTH 16 0
BBX 16 16 0 -2
BITMAP
0108
0528
F7FF
9948
97FF
9295
94A7
9BFC
9204
93FC
F204
83FC
8204
03FC
018C
0E03
ENDCHAR

STARTCHAR jisx0212_366E
ENCODING 13934
SWIDTH 960 0
DWIDTH 16 0
BBX 16 16 0 -2
BITMAP
4410
4410
FFFF
4410
7CFE
1000
FEFE
9282
FEFE
1044
FFFF
1000
FEFE
2882
4482
82FE
ENDCHAR

STARTCHAR jisx0212_366F
ENCODING 13935
SWIDTH 960 0
DWIDTH 16 0
BBX 16 16 0 -2
BITMAP
0104
01C4
E106
AFE5
A924
AFDF
A924
AFE4
AA44
AA44
EFE4
8D2A
96EA
152A
1531
2561
ENDCHAR

STARTCHAR jisx0212_3670
ENCODING 13936
SWIDTH 960 0
DWIDTH 16 0
BBX 16 16 0 -2
BITMAP
0110
0110
FFFF
9110
9206
93B8
9508
97C8
9D7F
97C8
F55C
855C
87EA
0809
0AA8
12A8
ENDCHAR

STARTCHAR jisx0212_3671
ENCODING 13937
SWIDTH 960 0
DWIDTH 16 0
BBX 16 16 0 -2
BITMAP
1010
1010
FFFF
1010
7E7E
0000
7E7E
4242
7E7E
2424
FFFF
0000
7E7E
4242
7E7E
4242
ENDCHAR

STARTCHAR jisx0212_3672
ENCODING 13938
SWIDTH 960 0
DWIDTH 16 0
BBX 16 16 0 -2
BITMAP
0000
7FFE
4002
4002
4002
7FC2
4042
4042
4042
4042
7FC2
4042
4002
4002
7FFE
4002
ENDCHAR

STARTCHAR jisx0212_3673
ENCODING 13939
SWIDTH 960 0
DWIDTH 16 0
BBX 16 16 0 -2
BITMAP
FFFE
8002
8102
8102
8202
8202
8242
8422
8412
8812
89EA
BE0A
800A
8002
FFFE
8002
ENDCHAR

STARTCHAR jisx0212_3674
ENCODING 13940
SWIDTH 960 0
DWIDTH 16 0
BBX 16 16 0 -2
BITMAP
FFFE
8002
8002
9FF2
8022
80C2
8102
8102
BFFA
8102
8102
8102
8702
8002
FFFE
8002
ENDCHAR

STARTCHAR jisx0212_3675
ENCODING 13941
SWIDTH 960 0
DWIDTH 16 0
BBX 16 16 0 -2
BITMAP
0100
0200
7FFE
4002
4012
4022
5822
4642
4182
40C2
4122
4212
4C0A
5002
7FFE
4002
ENDCHAR

STARTCHAR jisx0212_3676
ENCODING 13942
SWIDTH 960 0
DWIDTH 16 0
BBX 16 16 0 -2
BITMAP
FFFE
8102
8102
8202
BFFA
8422
8422
8842
8E42
9182
8162
8612
B80A
8002
FFFE
8002
ENDCHAR

STARTCHAR jisx0212_3677
ENCODING 13943
SWIDTH 960 0
DWIDTH 16 0
BBX 16 16 0 -2
BITMAP
FFFE
8202
8262
BF82
8202
9222
9222
9222
9FE2
9222
8212
8212
81F2
8002
FFFE
8002
ENDCHAR

STARTCHAR jisx0212_3678
ENCODING 13944
SWIDTH 960 0
DWIDTH 16 0
BBX 16 16 0 -2
BITMAP
FFFE
8102
8102
BFFA
8002
87C2
8442
8442
8442
8442
884A
884A
907A
A002
FFFE
8002
ENDCHAR

STARTCHAR jisx0212_3679
ENCODING 13945
SWIDTH 960 0
DWIDTH 16 0
BBX 16 16 0 -2
BITMAP
FFFE
8002
8102
8102
810A
BD92
85A2
8542
8942
8922
9112
A10A
C706
8002
FFFE
8002
ENDCHAR

STARTCHAR jisx0212_367A
ENCODING 13946
SWIDTH 960 0
DWIDTH 16 0
BBX 16 16 0 -2
BITMAP
FFFE
8442
8442
8442
884A
884A
907A
A002
8FE2
8822
8822
8822
8822
8822
FFFE
8002
ENDCHAR

STARTCHAR jisx0212_367B
ENCODING 13947
SWIDTH 960 0
DWIDTH 16 0
BBX 16 16 0 -2
BITMAP
FFFE
8002
8002
BFFA
8082
8102
8102
8342
8522
9912
A10A
8102
8102
8002
FFFE
8002
ENDCHAR

STARTCHAR jisx0212_367C
ENCODING 13948
SWIDTH 960 0
DWIDTH 16 0
BBX 16 16 0 -2
BITMAP
0100
0200
7FFE
4102
4102
41F2
5A12
4622
45A2
4842
50A2
4312
4C0A
4002
7FFE
4002
ENDCHAR

STARTCHAR jisx0212_367D
ENCODING 13949
SWIDTH 960 0
DWIDTH 16 0
BBX 16 16 0 -2
BITMAP
FFFE
8402
8402
8802
8FFA
924A
924A
A44A
848A
888A
910A
8212
84E2
8002
FFFE
8002
ENDCHAR

STARTCHAR jisx0212_367E
ENCODING 13950
SWIDTH 960 0
DWIDTH 16 0
BBX 16 16 0 -2
BITMAP
FFFE
8002
8002
9FF2
8002
8002
BFFA
8482
8482
8482
848A
888A
B07A
8002
FFFE
8002
ENDCHAR

STARTCHAR jisx0212_3721
ENCODING 14113
SWIDTH 960 0
DWIDTH 16 0
BBX 16 16 0 -2
BITMAP
FFFE
8002
87C2
8042
8422
8822
9012
A10A
8102
9FF2
8102
8102
BFFA
8002
FFFE
8002
ENDCHAR

STARTCHAR jisx0212_3722
ENCODING 14114
SWIDTH 960 0
DWIDTH 16 0
BBX 16 16 0 -2
BITMAP
FFFE
8002
8072
9F82
8102
8102
BFFA
8382
8542
8922
9112
A10A
8102
8002
FFFE
8002
ENDCHAR

STARTCHAR jisx0212_3723
ENCODING 14115
SWIDTH 960 0
DWIDTH 16 0
BBX 16 16 0 -2
BITMAP
FFFE
8002
8FE2
8002
BFFA
8002
8FE2
8002
8FE2
8002
8FE2
8822
8FE2
8002
FFFE
8002
ENDCHAR

STARTCHAR jisx0212_3724
ENCODING 14116
SWIDTH 960 0
DWIDTH 16 0
BBX 16 16 0 -2
BITMAP
FFFE
8002
BFFA
8102
860A
B912
8322
8CC2
B1C2
82A2
8C9A
B086
8302
8002
FFFE
8002
ENDCHAR

STARTCHAR jisx0212_3725
ENCODING 14117
SWIDTH 960 0
DWIDTH 16 0
BBX 16 16 0 -2
BITMAP
FFFE
8002
8302
8482
8842
B7B2
C00E
9FF2
9292
9FF2
9292
9292
92B2
8002
FFFE
8002
ENDCHAR

STARTCHAR jisx0212_3726
ENCODING 14118
SWIDTH 960 0
DWIDTH 16 0
BBX 16 16 0 -2
BITMAP
FFFE
8102
9FF2
8102
8FE2
8102
BFFA
8002
8FE2
8922
8FE2
8822
88E2
8002
FFFE
8002
ENDCHAR

STARTCHAR jisx0212_3727
ENCODING 14119
SWIDTH 960 0
DWIDTH 16 0
BBX 16 16 0 -2
BITMAP
FFFE
8102
9112
9112
9FF2
8002
BFFA
8102
9FF2
9292
9292
9292
92B2
8002
FFFE
8002
ENDCHAR

STARTCHAR jisx0212_3728
ENCODING 14120
SWIDTH 960 0
DWIDTH 16 0
BBX 16 16 0 -2
BITMAP
FFFE
8122
BFFA
9112
9FF2
9112
9FF2
9112
8022
BFFA
8822
8422
80E2
8002
FFFE
8002
ENDCHAR

STARTCHAR jisx0212_3729
ENCODING 14121
SWIDTH 960 0
DWIDTH 16 0
BBX 16 16 0 -2
BITMAP
FFFE
8202
9FE2
8222
FFFA
8222
9FE2
8202
FFFA
9022
9FE2
9022
9FE2
8002
FFFE
8002
ENDCHAR

STARTCHAR jisx0212_372A
ENCODING 14122
SWIDTH 960 0
DWIDTH 16 0
BBX 16 16 0 -2
BITMAP
FFFE
8102
8FE2
8922
8FE2
8102
BFFA
8822
8FE2
8822
8FE2
8822
8FE2
9012
FFFE
8002
ENDCHAR

STARTCHAR jisx0212_372B
ENCODING 14123
SWIDTH 960 0
DWIDTH 16 0
BBX 16 16 0 -2
BITMAP
FFFE
8002
BFFA
A48A
BFFA
8102
9FFA
8422
8242
FFFE
8102
BFFA
8102
8102
FFFE
8002
ENDCHAR

STARTCHAR jisx0212_372C
ENCODING 14124
SWIDTH 960 0
DWIDTH 16 0
BBX 16 16 0 -2
BITMAP
FFFE
8002
8B8A
9012
E7E6
A82A
9392
A82A
F7F6
9012
9B9A
B6B6
D3D2
9212
FFFE
8002
ENDCHAR

STARTCHAR jisx0212_372D
ENCODING 14125
SWIDTH 960 0
DWIDTH 16 0
BBX 16 16 0 -2
BITMAP
0040
1040
1040
1040
1040
FE40
1040
1040
1040
1040
1040
1640
1841
E041
0041
003F
ENDCHAR

STARTCHAR jisx0212_372E
ENCODING 14126
SWIDTH 960 0
DWIDTH 16 0
BBX 16 16 0 -2
BITMAP
1000
11FF
1008
1008
1008
FE08
1008
1008
1008
1008
1008
1608
1808
E008
0008
0078
ENDCHAR

STARTCHAR jisx0212_372F
ENCODING 14127
SWIDTH 960 0
DWIDTH 16 0
BBX 16 16 0 -2
BITMAP
0000
7FF8
1008
0810
0660
0180
0660
181C
E103
0100
7FFC
0100
0100
0100
FFFF
0000
ENDCHAR

STARTCHAR jisx0212_3730
ENCODING 14128
SWIDTH 960 0
DWIDTH 16 0
BBX 16 16 0 -2
BITMAP
0020
1020
1020
1020
1020
FE20
1030
1028
1024
1022
1021
1620
1820
E020
0020
0020
ENDCHAR

STARTCHAR jisx0212_3731
ENCODING 14129
SWIDTH 960 0
DWIDTH 16 0
BBX 16 16 0 -2
BITMAP
0100
0100
0100
7FFC
0100
0100
0100
FFFF
0440
0440
0440
0440
0841
0841
3041
C03F
ENDCHAR

STARTCHAR jisx0212_3732
ENCODING 14130
SWIDTH 960 0
DWIDTH 16 0
BBX 16 16 0 -2
BITMAP
2000
21FE
2010
2010
2010
FC10
2010
23FF
2010
2010
2010
3C10
E010
0010
0010
0070
ENDCHAR

STARTCHAR jisx0212_3733
ENCODING 14131
SWIDTH 960 0
DWIDTH 16 0
BBX 16 16 0 -2
BITMAP
0080
2080
2080
20FF
2100
F900
2200
25FC
2008
2010
2020
3840
E081
0101
0101
00FF
ENDCHAR

STARTCHAR jisx0212_3734
ENCODING 14132
SWIDTH 960 0
DWIDTH 16 0
BBX 16 16 0 -2
BITMAP
2000
21FE
2000
2000
2000
FBFF
2040
2080
2080
20FE
2102
3902
E002
0004
0004
0038
ENDCHAR

STARTCHAR jisx0212_3735
ENCODING 14133
SWIDTH 960 0
DWIDTH 16 0
BBX 16 16 0 -2
BITMAP
2000
21FE
2002
2002
2002
FC02
2002
21FE
2102
2100
2100
3D00
E101
0101
0101
00FF
ENDCHAR

STARTCHAR jisx0212_3736
ENCODING 14134
SWIDTH 960 0
DWIDTH 16 0
BBX 16 16 0 -2
BITMAP
2000
21FE
2102
2102
2102
FD02
2102
21FE
2102
2100
2100
3D00
E100
0101
0101
00FF
ENDCHAR

STARTCHAR jisx0212_3737
ENCODING 14135
SWIDTH 960 0
DWIDTH 16 0
BBX 16 16 0 -2
BITMAP
2102
2122
2122
2122
2122
F922
2122
2122
2122
2122
2122
3922
E222
0222
0402
0802
ENDCHAR

STARTCHAR jisx0212_3738
ENCODING 14136
SWIDTH 960 0
DWIDTH 16 0
BBX 16 16 0 -2
BITMAP
0080
2080
2080
21FF
2101
F901
2201
2401
21FD
2001
2001
3801
E001
0002
0002
001C
ENDCHAR

STARTCHAR jisx0212_3739
ENCODING 14137
SWIDTH 960 0
DWIDTH 16 0
BBX 16 16 0 -2
BITMAP
0080
2080
2100
21FF
2149
FA49
2249
2491
2091
2111
2121
3A21
E441
0082
0102
001C
ENDCHAR

STARTCHAR jisx0212_373A
ENCODING 14138
SWIDTH 960 0
DWIDTH 16 0
BBX 16 16 0 -2
BITMAP
2000
27FC
2104
2104
2108
F908
21FE
2142
2142
2144
2224
3A28
E210
0428
08C6
1301
ENDCHAR

STARTCHAR jisx0212_373B
ENCODING 14139
SWIDTH 960 0
DWIDTH 16 0
BBX 16 16 0 -2
BITMAP
0020
2050
2050
2088
2088
F904
2202
2489
2088
2088
2088
3888
E108
0108
0208
0408
ENDCHAR

STARTCHAR jisx0212_373C
ENCODING 14140
SWIDTH 960 0
DWIDTH 16 0
BBX 16 16 0 -2
BITMAP
0020
2050
2088
2088
2104
FA02
25FD
2000
2000
23FE
2002
3804
E004
0008
0008
0010
ENDCHAR

STARTCHAR jisx0212_373D
ENCODING 14141
SWIDTH 960 0
DWIDTH 16 0
BBX 16 16 0 -2
BITMAP
2040
2040
2080
2080
20FF
F984
2184
2284
2284
2448
2048
3830
E030
0048
0186
0601
ENDCHAR

STARTCHAR jisx0212_373E
ENCODING 14142
SWIDTH 960 0
DWIDTH 16 0
BBX 16 16 0 -2
BITMAP
0000
0FE0
0020
0810
1008
2FF4
C213
0210
0410
18E0
6000
0100
3FFC
0100
0100
FFFF
ENDCHAR

STARTCHAR jisx0212_373F
ENCODING 14143
SWIDTH 960 0
DWIDTH 16 0
BBX 16 16 0 -2
BITMAP
0000
21FC
2104
2144
2124
F924
2124
2104
27FF
2104
2104
3904
E204
0204
0404
081C
ENDCHAR

STARTCHAR jisx0212_3740
ENCODING 14144
SWIDTH 960 0
DWIDTH 16 0
BBX 16 16 0 -2
BITMAP
2040
2040
2041
3F46
2078
2040
2341
3C41
E03F
0100
0100
3FFC
0100
0100
0100
FFFF
ENDCHAR

STARTCHAR jisx0212_3741
ENCODING 14145
SWIDTH 960 0
DWIDTH 16 0
BBX 16 16 0 -2
BITMAP
0020
2020
2124
2122
2221
FA21
25FE
2020
2020
2020
27FF
3820
E020
0020
0020
0020
ENDCHAR

STARTCHAR jisx0212_3742
ENCODING 14146
SWIDTH 960 0
DWIDTH 16 0
BBX 16 16 0 -2
BITMAP
21FC
2104
2104
2104
2104
FDFC
2104
2104
2104
21FC
2104
3D04
E104
0104
07FF
0000
ENDCHAR

STARTCHAR jisx0212_3743
ENCODING 14147
SWIDTH 960 0
DWIDTH 16 0
BBX 16 16 0 -2
BITMAP
2000
23FF
2040
2040
2040
FC40
2080
20FE
2082
2182
2182
3A82
E482
0082
00FE
0082
ENDCHAR

STARTCHAR jisx0212_3744
ENCODING 14148
SWIDTH 960 0
DWIDTH 16 0
BBX 16 16 0 -2
BITMAP
0020
2020
2020
23FF
2201
FA01
2281
2080
2086
2098
20E0
3C80
E080
0081
0081
007F
ENDCHAR

STARTCHAR jisx0212_3745
ENCODING 14149
SWIDTH 960 0
DWIDTH 16 0
BBX 16 16 0 -2
BITMAP
0020
1020
1020
1020
103F
FE20
1020
1020
1020
11FE
1102
1D02
F102
0102
01FE
0102
ENDCHAR

STARTCHAR jisx0212_3746
ENCODING 14150
SWIDTH 960 0
DWIDTH 16 0
BBX 16 16 0 -2
BITMAP
2000
23FE
2202
2202
2202
FBFE
2200
2240
2242
224C
2270
3A40
E441
0441
0841
103F
ENDCHAR

STARTCHAR jisx0212_3747
ENCODING 14151
SWIDTH 960 0
DWIDTH 16 0
BBX 16 16 0 -2
BITMAP
2020
2040
2048
2084
2082
F93E
27C1
2001
2000
21FE
2102
3D02
E102
0102
01FE
0102
ENDCHAR

STARTCHAR jisx0212_3748
ENCODING 14152
SWIDTH 960 0
DWIDTH 16 0
BBX 16 16 0 -2
BITMAP
2000
27FF
2010
2020
2020
FC60
20A8
2124
2222
2421
2020
3C20
E020
0020
0000
0FFF
ENDCHAR

STARTCHAR jisx0212_3749
ENCODING 14153
SWIDTH 960 0
DWIDTH 16 0
BBX 16 16 0 -2
BITMAP
2000
23FF
2201
2201
2201
FA79
2249
2249
2249
2249
2249
3A79
E241
0201
0201
0207
ENDCHAR

STARTCHAR jisx0212_374A
ENCODING 14154
SWIDTH 960 0
DWIDTH 16 0
BBX 16 16 0 -2
BITMAP
0020
2020
2020
21FC
2124
FD24
2124
2124
2124
27FF
2020
3C50
E050
0088
0304
0C03
ENDCHAR

STARTCHAR jisx0212_374B
ENCODING 14155
SWIDTH 960 0
DWIDTH 16 0
BBX 16 16 0 -2
BITMAP
2088
2088
2108
2108
2648
FA7F
2189
2089
2109
2189
2251
3AD1
E751
0C22
0042
008C
ENDCHAR

STARTCHAR jisx0212_374C
ENCODING 14156
SWIDTH 960 0
DWIDTH 16 0
BBX 16 16 0 -2
BITMAP
0100
0100
3FFC
0100
0100
FFFF
0420
0421
0821
311F
C100
3FFC
0100
0100
0100
FFFF
ENDCHAR

STARTCHAR jisx0212_374D
ENCODING 14157
SWIDTH 960 0
DWIDTH 16 0
BBX 16 16 0 -2
BITMAP
0002
200C
21F0
2100
2100
FD00
2100
21FE
2108
2108
2108
3D08
E108
0108
0108
0FFF
ENDCHAR

STARTCHAR jisx0212_374E
ENCODING 14158
SWIDTH 960 0
DWIDTH 16 0
BBX 16 16 0 -2
BITMAP
2000
27FF
2004
2004
2004
F9E4
2124
2124
2124
2124
21E4
3904
E104
0004
0004
001C
ENDCHAR

STARTCHAR jisx0212_374F
ENCODING 14159
SWIDTH 960 0
DWIDTH 16 0
BBX 16 16 0 -2
BITMAP
2020
2020
2020
23FF
2201
FA01
2279
2008
2048
2048
2044
3884
E084
0102
0202
0401
ENDCHAR

STARTCHAR jisx0212_3750
ENCODING 14160
SWIDTH 960 0
DWIDTH 16 0
BBX 16 16 0 -2
BITMAP
2080
2088
2084
2080
23FF
F880
2084
20C4
20C4
2128
2128
3910
E218
0224
0442
0881
ENDCHAR

STARTCHAR jisx0212_3751
ENCODING 14161
SWIDTH 960 0
DWIDTH 16 0
BBX 16 16 0 -2
BITMAP
0002
200C
21F0
2110
2110
FD10
21FF
2110
2110
2108
2108
3D68
E185
0605
0003
03F9
ENDCHAR

STARTCHAR jisx0212_3752
ENCODING 14162
SWIDTH 960 0
DWIDTH 16 0
BBX 16 16 0 -2
BITMAP
0002
200C
21F0
2100
2100
FD00
21FF
2108
2108
2168
211C
3D0A
E209
0208
0408
0808
ENDCHAR

STARTCHAR jisx0212_3753
ENCODING 14163
SWIDTH 960 0
DWIDTH 16 0
BBX 16 16 0 -2
BITMAP
0010
2010
2010
23FF
2201
FA01
2000
23FF
2010
2010
2010
3810
E010
0010
0010
00F0
ENDCHAR

STARTCHAR jisx0212_3754
ENCODING 14164
SWIDTH 960 0
DWIDTH 16 0
BBX 16 16 0 -2
BITMAP
0080
2080
2080
21FE
2120
FD20
2220
2020
27FF
2020
2020
3C50
E050
0088
0304
0C03
ENDCHAR

STARTCHAR jisx0212_3755
ENCODING 14165
SWIDTH 960 0
DWIDTH 16 0
BBX 16 16 0 -2
BITMAP
2020
2020
2020
2020
27FF
F800
2004
2104
2104
2084
2088
3888
E088
0090
0010
0FFF
ENDCHAR

STARTCHAR jisx0212_3756
ENCODING 14166
SWIDTH 960 0
DWIDTH 16 0
BBX 16 16 0 -2
BITMAP
2000
23FF
2201
2201
22FD
FA01
2201
2279
2249
2249
2249
3A49
E279
0241
0201
0207
ENDCHAR

STARTCHAR jisx0212_3757
ENCODING 14167
SWIDTH 960 0
DWIDTH 16 0
BBX 16 16 0 -2
BITMAP
0000
FFFE
0480
0480
7FFC
4484
4894
70F4
4004
7FFC
0100
0100
7FFC
0100
0100
FFFE
ENDCHAR

STARTCHAR jisx0212_3758
ENCODING 14168
SWIDTH 960 0
DWIDTH 16 0
BBX 16 16 0 -2
BITMAP
2090
2090
2090
2491
2292
FA94
2298
2090
2198
2294
2492
2091
3910
E111
0211
0C0F
ENDCHAR

STARTCHAR jisx0212_3759
ENCODING 14169
SWIDTH 960 0
DWIDTH 16 0
BBX 16 16 0 -2
BITMAP
2020
2020
2222
2222
2124
F924
2020
27FF
2090
2090
2090
3890
E110
0111
0211
0C0F
ENDCHAR

STARTCHAR jisx0212_375A
ENCODING 14170
SWIDTH 960 0
DWIDTH 16 0
BBX 16 16 0 -2
BITMAP
0100
0100
3FFC
0100
0100
0100
FFFF
0000
1010
1010
FEFE
1010
1010
1010
1E10
F1FF
ENDCHAR

STARTCHAR jisx0212_375B
ENCODING 14171
SWIDTH 960 0
DWIDTH 16 0
BBX 16 16 0 -2
BITMAP
0000
23F8
2088
208F
2091
F901
2101
222E
2420
2020
27FF
3870
E0A8
0126
0621
1820
ENDCHAR

STARTCHAR jisx0212_375C
ENCODING 14172
SWIDTH 960 0
DWIDTH 16 0
BBX 16 16 0 -2
BITMAP
0080
2080
21F8
2108
2210
FBFF
2600
2A00
227C
2244
2244
3A44
E45C
0441
0841
103F
ENDCHAR

STARTCHAR jisx0212_375D
ENCODING 14173
SWIDTH 960 0
DWIDTH 16 0
BBX 16 16 0 -2
BITMAP
2020
2020
23FF
2201
2201
F81C
23E0
2020
2020
203F
23E0
3820
E020
0021
0021
001F
ENDCHAR

STARTCHAR jisx0212_375E
ENCODING 14174
SWIDTH 960 0
DWIDTH 16 0
BBX 16 16 0 -2
BITMAP
2108
2088
2090
23FF
2020
F820
2020
21FE
2020
2020
2020
3BFF
E020
0020
0020
0020
ENDCHAR

STARTCHAR jisx0212_375F
ENCODING 14175
SWIDTH 960 0
DWIDTH 16 0
BBX 16 16 0 -2
BITMAP
0888
0884
1080
10BF
37C0
3044
5048
9031
1051
118D
1683
0080
3FFE
0080
0080
7FFF
ENDCHAR

STARTCHAR jisx0212_3760
ENCODING 14176
SWIDTH 960 0
DWIDTH 16 0
BBX 16 16 0 -2
BITMAP
000E
7FF0
4000
4000
7FFF
4000
4FFC
4804
4804
4FFC
4040
4040
5FFE
8040
8040
BFFF
ENDCHAR

STARTCHAR jisx0212_3761
ENCODING 14177
SWIDTH 960 0
DWIDTH 16 0
BBX 16 16 0 -2
BITMAP
0020
2020
2040
23FF
2201
FA01
2279
2249
2249
2249
2249
3A79
E241
0201
0201
020F
ENDCHAR

STARTCHAR jisx0212_3762
ENCODING 14178
SWIDTH 960 0
DWIDTH 16 0
BBX 16 16 0 -2
BITMAP
0020
2020
23FF
2201
2209
F808
2008
23FF
2008
2108
2088
3848
E048
0008
0008
0038
ENDCHAR

STARTCHAR jisx0212_3763
ENCODING 14179
SWIDTH 960 0
DWIDTH 16 0
BBX 16 16 0 -2
BITMAP
0000
7FFE
0240
2244
1244
1248
0240
FFFF
0000
0100
0100
3FFC
0100
0100
0100
FFFF
ENDCHAR

STARTCHAR jisx0212_3764
ENCODING 14180
SWIDTH 960 0
DWIDTH 16 0
BBX 16 16 0 -2
BITMAP
2088
2088
2088
2088
23FF
F888
2088
2088
2088
2088
27FF
3800
E048
0084
0302
0C01
ENDCHAR

STARTCHAR jisx0212_3765
ENCODING 14181
SWIDTH 960 0
DWIDTH 16 0
BBX 16 16 0 -2
BITMAP
2020
2020
23FF
2201
2201
F8FC
2000
2000
23FF
2048
2048
3848
E048
0089
0109
060F
ENDCHAR

STARTCHAR jisx0212_3766
ENCODING 14182
SWIDTH 960 0
DWIDTH 16 0
BBX 16 16 0 -2
BITMAP
4006
21F8
1100
8100
41FF
2108
0908
1108
2208
4208
8480
0080
3FFE
0080
0080
FFFF
ENDCHAR

STARTCHAR jisx0212_3767
ENCODING 14183
SWIDTH 960 0
DWIDTH 16 0
BBX 16 16 0 -2
BITMAP
2000
21FE
2044
2028
2010
FDFF
2111
2111
21FF
2111
2111
3DFF
E111
0111
0111
0117
ENDCHAR

STARTCHAR jisx0212_3768
ENCODING 14184
SWIDTH 960 0
DWIDTH 16 0
BBX 16 16 0 -2
BITMAP
0040
2048
2084
20BA
23C2
F890
2092
211E
2640
2040
20FC
3984
E648
0030
00CC
0703
ENDCHAR

STARTCHAR jisx0212_3769
ENCODING 14185
SWIDTH 960 0
DWIDTH 16 0
BBX 16 16 0 -2
BITMAP
0020
2020
21FE
2102
2102
FDFE
2102
2102
21FE
2121
2112
3D14
E108
0134
01C2
0601
ENDCHAR

STARTCHAR jisx0212_376A
ENCODING 14186
SWIDTH 960 0
DWIDTH 16 0
BBX 16 16 0 -2
BITMAP
0000
2783
20BC
2108
2108
FA28
23AF
24A8
20A8
24A8
2AA8
22A8
391F
E300
04C0
183F
ENDCHAR

STARTCHAR jisx0212_376B
ENCODING 14187
SWIDTH 960 0
DWIDTH 16 0
BBX 16 16 0 -2
BITMAP
0000
23FE
2202
2202
2202
FBFE
2000
2006
23F8
2020
2020
3BFE
E020
0020
0020
07FF
ENDCHAR

STARTCHAR jisx0212_376C
ENCODING 14188
SWIDTH 960 0
DWIDTH 16 0
BBX 16 16 0 -2
BITMAP
0020
2050
2088
2104
22FA
FC01
23FC
2004
2008
2050
2020
3A94
E282
0489
0489
0878
ENDCHAR

STARTCHAR jisx0212_376D
ENCODING 14189
SWIDTH 960 0
DWIDTH 16 0
BBX 16 16 0 -2
BITMAP
0020
2020
23FF
2201
2201
F800
23FF
2020
2020
2120
213E
3920
E220
0320
04A0
087F
ENDCHAR

STARTCHAR jisx0212_376E
ENCODING 14190
SWIDTH 960 0
DWIDTH 16 0
BBX 16 16 0 -2
BITMAP
0020
2040
23FE
2222
2222
FBFE
2222
2222
23FE
2050
2890
3310
CFFF
0010
0010
0010
ENDCHAR

STARTCHAR jisx0212_376F
ENCODING 14191
SWIDTH 960 0
DWIDTH 16 0
BBX 16 16 0 -2
BITMAP
0020
2020
27FF
2401
2401
FA00
23DE
2252
2252
2252
2552
3896
E090
0111
0211
0C0F
ENDCHAR

STARTCHAR jisx0212_3770
ENCODING 14192
SWIDTH 960 0
DWIDTH 16 0
BBX 16 16 0 -2
BITMAP
21FC
2104
2104
21FC
2104
F904
21FC
2104
2104
21FC
2000
3BFF
E000
0088
0304
0C02
ENDCHAR

STARTCHAR jisx0212_3771
ENCODING 14193
SWIDTH 960 0
DWIDTH 16 0
BBX 16 16 0 -2
BITMAP
0006
21F8
2104
2122
2211
FA11
25FE
2022
2022
27FF
2022
3822
E3FE
0022
0020
00E0
ENDCHAR

STARTCHAR jisx0212_3772
ENCODING 14194
SWIDTH 960 0
DWIDTH 16 0
BBX 16 16 0 -2
BITMAP
0020
2020
23FE
2022
27FF
F822
2022
23FE
2020
2231
2132
382C
E0A8
0324
0C22
00E1
ENDCHAR

STARTCHAR jisx0212_3773
ENCODING 14195
SWIDTH 960 0
DWIDTH 16 0
BBX 16 16 0 -2
BITMAP
0006
21F8
2100
2144
2222
FA21
2400
2020
2020
27FF
2070
38A8
E124
0622
1821
0020
ENDCHAR

STARTCHAR jisx0212_3774
ENCODING 14196
SWIDTH 960 0
DWIDTH 16 0
BBX 16 16 0 -2
BITMAP
2006
23F8
2020
2020
27FF
F924
2124
2124
2FFF
2124
2124
2124
3FFF
E020
0020
07FF
ENDCHAR

STARTCHAR jisx0212_3775
ENCODING 14197
SWIDTH 960 0
DWIDTH 16 0
BBX 16 16 0 -2
BITMAP
0810
0810
7F10
0810
087E
FF92
2412
2492
47D2
8832
0812
7F2A
082A
0B43
1C83
E101
ENDCHAR

STARTCHAR jisx0212_3776
ENCODING 14198
SWIDTH 960 0
DWIDTH 16 0
BBX 16 16 0 -2
BITMAP
21FE
2102
2102
21FE
2102
F902
21FE
2080
2080
21FF
2129
3A49
E491
0121
0242
009C
ENDCHAR

STARTCHAR jisx0212_3777
ENCODING 14199
SWIDTH 960 0
DWIDTH 16 0
BBX 16 16 0 -2
BITMAP
0000
23FC
2004
27FF
2004
FBFC
2000
27FF
2421
2421
23FE
3A22
E222
0222
022E
0020
ENDCHAR

STARTCHAR jisx0212_3778
ENCODING 14200
SWIDTH 960 0
DWIDTH 16 0
BBX 16 16 0 -2
BITMAP
0000
FFFF
2200
3E7E
2222
3E22
2214
2218
2E26
F2C1
0280
0080
3FFE
0080
0080
7FFF
ENDCHAR

STARTCHAR jisx0212_3779
ENCODING 14201
SWIDTH 960 0
DWIDTH 16 0
BBX 16 16 0 -2
BITMAP
0000
63FE
1202
03FE
C200
2240
0A46
1278
2441
4441
893F
0100
3FFC
0100
0100
FFFF
ENDCHAR

STARTCHAR jisx0212_377A
ENCODING 14202
SWIDTH 960 0
DWIDTH 16 0
BBX 16 16 0 -2
BITMAP
1010
1010
FFFF
2020
2020
3E3E
2222
2222
2242
4242
4C8C
8100
3FFC
0100
0100
FFFF
ENDCHAR

STARTCHAR jisx0212_377B
ENCODING 14203
SWIDTH 960 0
DWIDTH 16 0
BBX 16 16 0 -2
BITMAP
0040
2080
231E
2202
2202
FBDE
2202
2202
2202
23FE
2090
3890
E090
0111
0211
0C0F
ENDCHAR

STARTCHAR jisx0212_377C
ENCODING 14204
SWIDTH 960 0
DWIDTH 16 0
BBX 16 16 0 -2
BITMAP
2000
23FF
2201
2289
2249
FA51
23FD
2221
22A9
22A9
22A9
3AA9
E2F9
0281
0201
0207
ENDCHAR

STARTCHAR jisx0212_377D
ENCODING 14205
SWIDTH 960 0
DWIDTH 16 0
BBX 16 16 0 -2
BITMAP
2020
2020
23FF
2040
2044
F8BA
23C1
2000
21FE
2102
21FE
3902
E1FE
0102
0102
010E
ENDCHAR

STARTCHAR jisx0212_377E
ENCODING 14206
SWIDTH 960 0
DWIDTH 16 0
BBX 16 16 0 -2
BITMAP
2000
27FF
2050
2050
2050
FBDE
2252
2202
2202
2202
23DE
3A52
E050
0050
0050
0FFF
ENDCHAR

STARTCHAR jisx0212_3821
ENCODING 14369
SWIDTH 960 0
DWIDTH 16 0
BBX 16 16 0 -2
BITMAP
2000
23FF
2201
2221
2221
FAFD
2221
2221
2279
2249
2249
3A49
E279
0201
03FF
0201
ENDCHAR

STARTCHAR jisx0212_3822
ENCODING 14370
SWIDTH 960 0
DWIDTH 16 0
BBX 16 16 0 -2
BITMAP
0080
2080
21F0
2110
2220
FBFE
2622
2A22
2222
23FE
2060
38A8
E0A4
0125
0621
181F
ENDCHAR

STARTCHAR jisx0212_3823
ENCODING 14371
SWIDTH 960 0
DWIDTH 16 0
BBX 16 16 0 -2
BITMAP
2000
27FF
2000
21FE
2102
F902
21FE
2000
23FF
2221
2221
3BFF
E221
0221
03FF
0201
ENDCHAR

STARTCHAR jisx0212_3824
ENCODING 14372
SWIDTH 960 0
DWIDTH 16 0
BBX 16 16 0 -2
BITMAP
2124
2124
27FF
2124
2124
F93C
2100
21FF
2020
2020
27FF
3870
E0A8
0324
0C23
0020
ENDCHAR

STARTCHAR jisx0212_3825
ENCODING 14373
SWIDTH 960 0
DWIDTH 16 0
BBX 16 16 0 -2
BITMAP
0080
20FC
2104
2108
23F8
F810
27FF
2040
2182
2644
20A8
3B38
EC54
0192
0E11
0060
ENDCHAR

STARTCHAR jisx0212_3826
ENCODING 14374
SWIDTH 960 0
DWIDTH 16 0
BBX 16 16 0 -2
BITMAP
0100
217C
2104
2204
22FF
FA00
2640
267E
2A90
2210
22FF
3A10
E210
0228
02C6
0301
ENDCHAR

STARTCHAR jisx0212_3827
ENCODING 14375
SWIDTH 960 0
DWIDTH 16 0
BBX 16 16 0 -2
BITMAP
0110
2110
2111
21DE
2110
FD11
21D1
270F
2020
2040
21FE
3D02
E1FE
0102
01FE
0102
ENDCHAR

STARTCHAR jisx0212_3828
ENCODING 14376
SWIDTH 960 0
DWIDTH 16 0
BBX 16 16 0 -2
BITMAP
2000
27FF
2020
2040
23FE
FA52
2252
2252
2252
2226
2020
3FFF
E020
0050
018C
0E03
ENDCHAR

STARTCHAR jisx0212_3829
ENCODING 14377
SWIDTH 960 0
DWIDTH 16 0
BBX 16 16 0 -2
BITMAP
0040
2080
23FE
2202
23FE
FA02
2202
23FE
2000
27FF
2020
3820
E3FE
0020
0020
0FFF
ENDCHAR

STARTCHAR jisx0212_382A
ENCODING 14378
SWIDTH 960 0
DWIDTH 16 0
BBX 16 16 0 -2
BITMAP
1000
7E7E
4242
7E42
4242
7E42
0042
4642
784E
4240
7E40
0080
3FFE
0080
0080
7FFF
ENDCHAR

STARTCHAR jisx0212_382B
ENCODING 14379
SWIDTH 960 0
DWIDTH 16 0
BBX 16 16 0 -2
BITMAP
200E
23F0
2020
27FF
2020
FBFE
2222
23FE
2222
2222
23FE
3820
E3FE
0020
0020
0FFF
ENDCHAR

STARTCHAR jisx0212_382C
ENCODING 14380
SWIDTH 960 0
DWIDTH 16 0
BBX 16 16 0 -2
BITMAP
2010
2014
2012
23FF
2210
FA10
23F2
2212
22EA
22AC
22AC
3AE8
E495
0425
0843
1081
ENDCHAR

STARTCHAR jisx0212_382D
ENCODING 14381
SWIDTH 960 0
DWIDTH 16 0
BBX 16 16 0 -2
BITMAP
2020
2020
27AF
2020
27AF
F850
2088
2306
2DFD
2104
21FC
3904
E1FC
0104
0104
013C
ENDCHAR

STARTCHAR jisx0212_382E
ENCODING 14382
SWIDTH 960 0
DWIDTH 16 0
BBX 16 16 0 -2
BITMAP
2000
21FE
2102
21FE
2102
F9FE
2000
27DF
20C3
2145
2249
3CD3
E145
0249
0451
01C7
ENDCHAR

STARTCHAR jisx0212_382F
ENCODING 14383
SWIDTH 960 0
DWIDTH 16 0
BBX 16 16 0 -2
BITMAP
0020
78A4
4922
4A41
49FE
6850
5888
4BFF
4884
6922
5A21
4DFC
4820
4820
8820
BBFF
ENDCHAR

STARTCHAR jisx0212_3830
ENCODING 14384
SWIDTH 960 0
DWIDTH 16 0
BBX 16 16 0 -2
BITMAP
0020
2222
2222
2222
23FE
F800
27FF
2000
21FC
2104
2104
39FC
E104
0088
0088
0FFF
ENDCHAR

STARTCHAR jisx0212_3831
ENCODING 14385
SWIDTH 960 0
DWIDTH 16 0
BBX 16 16 0 -2
BITMAP
0020
2020
27FF
2020
23FE
F820
27FF
2048
2290
2124
20C2
3FFD
E021
0124
0622
0821
ENDCHAR

STARTCHAR jisx0212_3832
ENCODING 14386
SWIDTH 960 0
DWIDTH 16 0
BBX 16 16 0 -2
BITMAP
0078
2008
2104
2122
2249
FC84
23FA
2000
27DF
2145
2249
3CD3
E145
0249
0C51
01C7
ENDCHAR

STARTCHAR jisx0212_3833
ENCODING 14387
SWIDTH 960 0
DWIDTH 16 0
BBX 16 16 0 -2
BITMAP
0820
FFFE
0820
0000
FFFE
1040
1E46
2278
5442
8842
113E
6100
BFFC
0100
0100
FFFF
ENDCHAR

STARTCHAR jisx0212_3834
ENCODING 14388
SWIDTH 960 0
DWIDTH 16 0
BBX 16 16 0 -2
BITMAP
2106
21F8
2101
21FF
2000
F87E
2242
227E
2242
227E
2242
3A7E
E200
03FF
00CC
0703
ENDCHAR

STARTCHAR jisx0212_3835
ENCODING 14389
SWIDTH 960 0
DWIDTH 16 0
BBX 16 16 0 -2
BITMAP
21FC
2104
2104
21FC
2000
FBFE
2202
23FE
2202
23FE
2202
3A02
E3FE
0088
0306
0C01
ENDCHAR

STARTCHAR jisx0212_3836
ENCODING 14390
SWIDTH 960 0
DWIDTH 16 0
BBX 16 16 0 -2
BITMAP
20F8
2008
2104
2202
25F9
F800
20F8
2008
2104
2202
27FD
3AA4
E2A4
02A4
02A4
0FFF
ENDCHAR

STARTCHAR jisx0212_3837
ENCODING 14391
SWIDTH 960 0
DWIDTH 16 0
BBX 16 16 0 -2
BITMAP
0088
2088
23FE
2088
2088
F888
27FF
2090
2108
2246
2441
3A54
E24A
0449
0849
01C0
ENDCHAR

STARTCHAR jisx0212_3838
ENCODING 14392
SWIDTH 960 0
DWIDTH 16 0
BBX 16 16 0 -2
BITMAP
2000
23FF
2200
227C
2244
FA44
227C
2200
22EE
22AA
22AA
3AAA
E2EE
0200
03FF
0200
ENDCHAR

STARTCHAR jisx0212_3839
ENCODING 14393
SWIDTH 960 0
DWIDTH 16 0
BBX 16 16 0 -2
BITMAP
2020
27FF
2020
23FE
2222
FBFE
2222
23FE
2024
27FA
2009
3808
E7FF
0108
0088
0038
ENDCHAR

STARTCHAR jisx0212_383A
ENCODING 14394
SWIDTH 960 0
DWIDTH 16 0
BBX 16 16 0 -2
BITMAP
2020
23FE
2222
27FF
2222
FBFE
2020
23FE
2222
23FE
2040
3FFF
E108
03D0
006C
0F83
ENDCHAR

STARTCHAR jisx0212_383B
ENCODING 14395
SWIDTH 960 0
DWIDTH 16 0
BBX 16 16 0 -2
BITMAP
2000
23FE
2202
23FE
2200
FAD6
2210
22D6
2200
2290
22FE
3A90
E510
05FF
0810
1010
ENDCHAR

STARTCHAR jisx0212_383C
ENCODING 14396
SWIDTH 960 0
DWIDTH 16 0
BBX 16 16 0 -2
BITMAP
2000
21FE
2102
217A
2102
F97A
2000
23FF
2249
23FF
2000
3BFE
E084
0048
0078
0F87
ENDCHAR

STARTCHAR jisx0212_383D
ENCODING 14397
SWIDTH 960 0
DWIDTH 16 0
BBX 16 16 0 -2
BITMAP
2020
2020
23FE
2104
2088
FBFF
2000
23FE
2202
23FE
2202
3BFE
E020
07FF
0020
0020
ENDCHAR

STARTCHAR jisx0212_383E
ENCODING 14398
SWIDTH 960 0
DWIDTH 16 0
BBX 16 16 0 -2
BITMAP
0244
2244
2244
2FF4
2244
FBDF
2245
23C5
2245
2FF5
2545
3D55
E679
0409
07F1
0426
ENDCHAR

STARTCHAR jisx0212_383F
ENCODING 14399
SWIDTH 960 0
DWIDTH 16 0
BBX 16 16 0 -2
BITMAP
2020
27FF
2420
25FC
2424
FFFF
2424
25FC
2420
25FE
2522
3DFE
E522
09FE
0922
112E
ENDCHAR

STARTCHAR jisx0212_3840
ENCODING 14400
SWIDTH 960 0
DWIDTH 16 0
BBX 16 16 0 -2
BITMAP
0820
0820
7F20
08FC
FF24
22A4
FF64
0825
7F55
0893
0B01
0100
7FFE
0100
0100
FFFF
ENDCHAR

STARTCHAR jisx0212_3841
ENCODING 14401
SWIDTH 960 0
DWIDTH 16 0
BBX 16 16 0 -2
BITMAP
0020
2020
23FF
2200
2224
FA24
23FF
2224
2224
2224
223C
3A00
E4AA
04AA
0929
1229
ENDCHAR

STARTCHAR jisx0212_3842
ENCODING 14402
SWIDTH 960 0
DWIDTH 16 0
BBX 16 16 0 -2
BITMAP
1000
7E7F
4248
7E48
4248
7EFF
0018
4618
7829
4249
7E8F
0080
3FFE
0080
0080
7FFF
ENDCHAR

STARTCHAR jisx0212_3843
ENCODING 14403
SWIDTH 960 0
DWIDTH 16 0
BBX 16 16 0 -2
BITMAP
0820
487E
48C2
4B24
7898
4864
0984
FBFF
4884
4844
489C
8080
3FFE
0080
0080
FFFF
ENDCHAR

STARTCHAR jisx0212_3844
ENCODING 14404
SWIDTH 960 0
DWIDTH 16 0
BBX 16 16 0 -2
BITMAP
2088
2088
27FF
2088
20F8
F820
23FE
2222
2222
23FE
2020
3BFE
E020
03FE
0020
07FF
ENDCHAR

STARTCHAR jisx0212_3845
ENCODING 14405
SWIDTH 960 0
DWIDTH 16 0
BBX 16 16 0 -2
BITMAP
0020
2222
2222
2222
23FE
F888
2110
21FF
2310
25FE
2110
39FE
E110
0110
01FF
0100
ENDCHAR

STARTCHAR jisx0212_3846
ENCODING 14406
SWIDTH 960 0
DWIDTH 16 0
BBX 16 16 0 -2
BITMAP
0060
2090
2108
2206
24F9
F800
21FC
2104
21FC
2000
23FE
3A22
E3FE
0222
03FE
0202
ENDCHAR

STARTCHAR jisx0212_3847
ENCODING 14407
SWIDTH 960 0
DWIDTH 16 0
BBX 16 16 0 -2
BITMAP
0020
2020
23FE
2020
27FF
F904
27DF
2104
21C4
273F
2000
3FFF
E090
0091
0311
0C0F
ENDCHAR

STARTCHAR jisx0212_3848
ENCODING 14408
SWIDTH 960 0
DWIDTH 16 0
BBX 16 16 0 -2
BITMAP
2000
23DE
2252
2252
23DE
F800
23FE
2222
23FE
2222
23FE
3820
E020
07FF
0020
0020
ENDCHAR

STARTCHAR jisx0212_3849
ENCODING 14409
SWIDTH 960 0
DWIDTH 16 0
BBX 16 16 0 -2
BITMAP
2104
2088
27FF
2020
23FE
F820
27FF
2124
20A8
27FF
2000
3BFE
E202
0202
03FE
0202
ENDCHAR

STARTCHAR jisx0212_384A
ENCODING 14410
SWIDTH 960 0
DWIDTH 16 0
BBX 16 16 0 -2
BITMAP
2022
2794
2099
250A
2306
FFBD
28A4
20A5
27A7
2440
243E
3F82
E4B4
008C
0092
0761
ENDCHAR

STARTCHAR jisx0212_384B
ENCODING 14411
SWIDTH 960 0
DWIDTH 16 0
BBX 16 16 0 -2
BITMAP
200E
27F0
2022
2124
20A8
FFFF
2070
20A8
2326
2401
23FE
3A22
E3FE
0222
03FE
0202
ENDCHAR

STARTCHAR jisx0212_384C
ENCODING 14412
SWIDTH 960 0
DWIDTH 16 0
BBX 16 16 0 -2
BITMAP
0108
2108
2108
2FE8
201F
FFD2
2452
27D2
200A
27CA
208A
3904
E1E4
0F0A
0112
0721
ENDCHAR

STARTCHAR jisx0212_384D
ENCODING 14413
SWIDTH 960 0
DWIDTH 16 0
BBX 16 16 0 -2
BITMAP
2010
27D2
2054
2489
228A
F904
23FA
2401
29FC
2104
2104
39FC
E108
0088
0090
0FFF
ENDCHAR

STARTCHAR jisx0212_384E
ENCODING 14414
SWIDTH 960 0
DWIDTH 16 0
BBX 16 16 0 -2
BITMAP
2100
2100
23FF
2554
2154
F954
27FF
2154
2154
2154
2154
3FFF
E000
0292
0449
0849
ENDCHAR

STARTCHAR jisx0212_384F
ENCODING 14415
SWIDTH 960 0
DWIDTH 16 0
BBX 16 16 0 -2
BITMAP
2008
27C8
2248
F9BF
2108
77EC
693C
695A
A12A
A149
2708
0100
3FFC
0100
0100
FFFF
ENDCHAR

STARTCHAR jisx0212_3850
ENCODING 14416
SWIDTH 960 0
DWIDTH 16 0
BBX 16 16 0 -2
BITMAP
0800
FFBC
0824
7F25
4947
7F80
497E
FFA2
0814
491C
7F63
0100
0100
3FFC
0100
FFFF
ENDCHAR

STARTCHAR jisx0212_3851
ENCODING 14417
SWIDTH 960 0
DWIDTH 16 0
BBX 16 16 0 -2
BITMAP
0000
7F3C
4124
7F25
5447
7F00
547E
7F22
5414
921C
A163
0100
3FFC
0100
0100
FFFF
ENDCHAR

STARTCHAR jisx0212_3852
ENCODING 14418
SWIDTH 960 0
DWIDTH 16 0
BBX 16 16 0 -2
BITMAP
2020
27FF
2000
23FE
228A
FAFA
2202
23FE
200C
23F0
2020
3FFF
E070
00A8
0326
0C21
ENDCHAR

STARTCHAR jisx0212_3853
ENCODING 14419
SWIDTH 960 0
DWIDTH 16 0
BBX 16 16 0 -2
BITMAP
4201
2FDE
0210
8FD0
4A5F
0FD2
2A52
2FD2
4212
5FE2
8222
0080
3FFE
0080
0080
FFFF
ENDCHAR

STARTCHAR jisx0212_3854
ENCODING 14420
SWIDTH 960 0
DWIDTH 16 0
BBX 16 16 0 -2
BITMAP
200E
27F0
2020
27FF
2020
FBFE
232A
22B2
23FE
2020
23FE
3820
E7FF
0492
0449
0849
ENDCHAR

STARTCHAR jisx0212_3855
ENCODING 14421
SWIDTH 960 0
DWIDTH 16 0
BBX 16 16 0 -2
BITMAP
FFFE
1130
610C
FFFE
5554
4924
5554
5554
4924
5454
410C
0100
7FFE
0100
0100
FFFF
ENDCHAR

STARTCHAR jisx0212_3856
ENCODING 14422
SWIDTH 960 0
DWIDTH 16 0
BBX 16 16 0 -2
BITMAP
2088
2088
27FF
2088
2020
FBFE
2020
27FF
2048
2084
23FA
3801
E3FE
0252
0252
0FFF
ENDCHAR

STARTCHAR jisx0212_3857
ENCODING 14423
SWIDTH 960 0
DWIDTH 16 0
BBX 16 16 0 -2
BITMAP
2020
27FF
2020
23FE
2000
FBFF
2001
21FD
2020
27FF
2002
3FBF
E4A2
0492
0782
040E
ENDCHAR

STARTCHAR jisx0212_3858
ENCODING 14424
SWIDTH 960 0
DWIDTH 16 0
BBX 16 16 0 -2
BITMAP
23FE
2020
27FF
2421
25AD
F820
23AE
2020
27FF
2040
23FF
3A49
E249
0249
0249
0207
ENDCHAR

STARTCHAR jisx0212_3859
ENCODING 14425
SWIDTH 960 0
DWIDTH 16 0
BBX 16 16 0 -2
BITMAP
2020
203E
2020
23FF
2221
FA3A
22E2
223E
2200
22FE
2292
3CFE
E492
05FE
0952
13FF
ENDCHAR

STARTCHAR jisx0212_385A
ENCODING 14426
SWIDTH 960 0
DWIDTH 16 0
BBX 16 16 0 -2
BITMAP
0010
2410
227E
2052
247E
FA10
21FF
2042
2E7E
2242
227E
3A42
E27E
0224
0542
08FF
ENDCHAR

STARTCHAR jisx0212_385B
ENCODING 14427
SWIDTH 960 0
DWIDTH 16 0
BBX 16 16 0 -2
BITMAP
0800
0F7E
0822
FFA2
8094
9C88
4114
9CE3
2208
FF08
4208
7E7F
4208
7E08
4208
7EFF
ENDCHAR

STARTCHAR jisx0212_385C
ENCODING 14428
SWIDTH 960 0
DWIDTH 16 0
BBX 16 16 0 -2
BITMAP
2000
27FF
2422
25DC
2484
FFFF
25CC
25AE
2695
24A4
2410
3C90
E49E
0890
0890
17FF
ENDCHAR

STARTCHAR jisx0212_385D
ENCODING 14429
SWIDTH 960 0
DWIDTH 16 0
BBX 16 16 0 -2
BITMAP
23FE
2020
27FF
2421
25AD
F820
23AE
2240
2FEF
2249
27EF
3D29
E7EF
0111
1FF1
0127
ENDCHAR

STARTCHAR jisx0212_385E
ENCODING 14430
SWIDTH 960 0
DWIDTH 16 0
BBX 16 16 0 -2
BITMAP
0100
0100
FFFE
0100
0100
7FFC
0000
FFFE
8002
BFFA
0000
0FE0
0820
0822
1022
E01E
ENDCHAR

STARTCHAR jisx0212_385F
ENCODING 14431
SWIDTH 960 0
DWIDTH 16 0
BBX 16 16 0 -2
BITMAP
0200
0400
0FF0
1410
6220
01C0
0660
189C
E083
1FF8
1080
1080
FFFF
0080
0080
0080
ENDCHAR

STARTCHAR jisx0212_3860
ENCODING 14432
SWIDTH 960 0
DWIDTH 16 0
BBX 16 16 0 -2
BITMAP
0200
0400
0FF0
1420
6240
8180
0660
391C
C103
3FFC
0100
1FF8
0100
FFFF
0100
0100
ENDCHAR

STARTCHAR jisx0212_3861
ENCODING 14433
SWIDTH 960 0
DWIDTH 16 0
BBX 16 16 0 -2
BITMAP
0200
0420
0410
08E8
7F44
0441
0441
093F
3200
C7F0
0C10
1220
6140
01C0
0E38
F007
ENDCHAR

STARTCHAR jisx0212_3862
ENCODING 14434
SWIDTH 960 0
DWIDTH 16 0
BBX 16 16 0 -2
BITMAP
0100
0100
7FFC
0100
0100
FFFE
0440
0442
0A3E
3200
C7F0
0C10
3220
41C0
0E38
F007
ENDCHAR

STARTCHAR jisx0212_3863
ENCODING 14435
SWIDTH 960 0
DWIDTH 16 0
BBX 16 16 0 -2
BITMAP
FFFF
0100
13DE
5252
5FD2
525E
53D0
5E51
E3DF
0640
1A42
67FE
0A10
3120
01E0
FE1F
ENDCHAR

STARTCHAR jisx0212_3864
ENCODING 14436
SWIDTH 960 0
DWIDTH 16 0
BBX 16 16 0 -2
BITMAP
17E0
610E
47E2
4422
77EE
4422
47E2
742E
07E0
0C41
3241
C7FF
0A10
3120
01E0
FE1F
ENDCHAR

STARTCHAR jisx0212_3865
ENCODING 14437
SWIDTH 960 0
DWIDTH 16 0
BBX 16 16 0 -2
BITMAP
0810
0420
FFFF
1240
53DE
5E52
53DE
5250
5FD1
E45F
1A42
67FE
0A10
3120
01E0
FE1F
ENDCHAR

STARTCHAR jisx0212_3866
ENCODING 14438
SWIDTH 960 0
DWIDTH 16 0
BBX 16 16 0 -2
BITMAP
0240
7E7E
0240
FFFF
1240
53DE
5E52
53DE
5250
5FD1
E65F
1A42
67FE
1A10
01E0
FE1F
ENDCHAR

STARTCHAR jisx0212_3867
ENCODING 14439
SWIDTH 960 0
DWIDTH 16 0
BBX 16 16 0 -2
BITMAP
2010
2010
2090
3C90
44FF
4490
4510
6510
9A10
88FE
0810
1010
1010
2010
4010
83FF
ENDCHAR

STARTCHAR jisx0212_3868
ENCODING 14440
SWIDTH 960 0
DWIDTH 16 0
BBX 16 16 0 -2
BITMAP
1010
1E10
2210
65FF
9410
0810
1010
70FE
9E00
2200
44FE
A482
1882
1082
60FE
8082
ENDCHAR

STARTCHAR jisx0212_3869
ENCODING 14441
SWIDTH 960 0
DWIDTH 16 0
BBX 16 16 0 -2
BITMAP
0100
FFFF
0408
7FF4
0002
3FFC
2444
3FFC
0000
FFFF
8201
87F9
1C10
6260
0180
7E00
ENDCHAR

STARTCHAR jisx0212_386A
ENCODING 14442
SWIDTH 960 0
DWIDTH 16 0
BBX 16 16 0 -2
BITMAP
0200
07F8
1810
6460
0380
7C80
0080
7FFF
4081
5FFD
1084
1FFC
1084
1FFC
0C0C
7003
ENDCHAR

STARTCHAR jisx0212_386B
ENCODING 14443
SWIDTH 960 0
DWIDTH 16 0
BBX 16 16 0 -2
BITMAP
0800
0800
0800
1000
1000
1F80
2080
2080
0100
FFFE
0100
0280
0440
0820
3018
C006
ENDCHAR

STARTCHAR jisx0212_386C
ENCODING 14444
SWIDTH 960 0
DWIDTH 16 0
BBX 16 16 0 -2
BITMAP
0200
0200
0400
FFFE
0840
0820
1210
2208
4206
BFF9
0208
0408
0408
0808
3010
C0E0
ENDCHAR

STARTCHAR jisx0212_386D
ENCODING 14445
SWIDTH 960 0
DWIDTH 16 0
BBX 16 16 0 -2
BITMAP
0100
0100
0200
FFFE
0240
0420
0810
1008
6426
8421
0420
0420
0820
0820
1020
6020
ENDCHAR

STARTCHAR jisx0212_386E
ENCODING 14446
SWIDTH 960 0
DWIDTH 16 0
BBX 16 16 0 -2
BITMAP
0100
0100
0200
FFFE
0480
0840
0820
1010
200C
4003
9FF0
0000
0000
0000
0000
7FFE
ENDCHAR

STARTCHAR jisx0212_386F
ENCODING 14447
SWIDTH 960 0
DWIDTH 16 0
BBX 16 16 0 -2
BITMAP
0100
0100
0200
FFFE
0440
0820
0810
1108
2106
4101
8920
0910
1108
2104
C104
0700
ENDCHAR

STARTCHAR jisx0212_3870
ENCODING 14448
SWIDTH 960 0
DWIDTH 16 0
BBX 16 16 0 -2
BITMAP
1010
1010
1010
1010
1010
FF7F
1010
1010
1010
1828
2828
2428
2444
4244
4082
8101
ENDCHAR

STARTCHAR jisx0212_3871
ENCODING 14449
SWIDTH 960 0
DWIDTH 16 0
BBX 16 16 0 -2
BITMAP
0100
0200
FFFE
0440
0820
1010
3FFC
610B
A108
2108
3FF8
2008
2000
2002
2002
1FFE
ENDCHAR

STARTCHAR jisx0212_3872
ENCODING 14450
SWIDTH 960 0
DWIDTH 16 0
BBX 16 16 0 -2
BITMAP
0100
0200
7FFF
0420
0810
10E8
7F86
9081
1080
1FFC
1040
1040
11A1
1E11
600D
1FE3
ENDCHAR

STARTCHAR jisx0212_3873
ENCODING 14451
SWIDTH 960 0
DWIDTH 16 0
BBX 16 16 0 -2
BITMAP
0100
0200
FFFF
0420
0810
1008
7FF6
9001
1000
1FF8
1008
1008
1FF8
1000
1000
FFFF
ENDCHAR

STARTCHAR jisx0212_3874
ENCODING 14452
SWIDTH 960 0
DWIDTH 16 0
BBX 16 16 0 -2
BITMAP
0100
0200
FFFF
0420
0910
1108
7FFE
8201
1440
0888
0510
0620
1840
61A0
0618
7807
ENDCHAR

STARTCHAR jisx0212_3875
ENCODING 14453
SWIDTH 960 0
DWIDTH 16 0
BBX 16 16 0 -2
BITMAP
0100
0200
FFFF
0440
0920
1210
67CC
8883
1520
627E
0484
19C8
6630
0850
0188
1E00
ENDCHAR

STARTCHAR jisx0212_3876
ENCODING 14454
SWIDTH 960 0
DWIDTH 16 0
BBX 16 16 0 -2
BITMAP
0100
0220
0418
3FE4
0200
FFFF
0420
0910
3FFC
D10B
1FF8
1108
1FF8
1102
0102
00FE
ENDCHAR

STARTCHAR jisx0212_3877
ENCODING 14455
SWIDTH 960 0
DWIDTH 16 0
BBX 16 16 0 -2
BITMAP
0100
0200
FFFF
0420
0810
300C
FCFF
4484
4484
7CFC
4484
4484
7CFC
4084
0104
061C
ENDCHAR

STARTCHAR jisx0212_3878
ENCODING 14456
SWIDTH 960 0
DWIDTH 16 0
BBX 16 16 0 -2
BITMAP
0100
0200
FFFF
0820
1010
7FFC
A107
2FE4
2104
3FF4
2104
2FE4
2824
4FE4
4804
803C
ENDCHAR

STARTCHAR jisx0212_3879
ENCODING 14457
SWIDTH 960 0
DWIDTH 16 0
BBX 16 16 0 -2
BITMAP
0100
0200
FFFF
0420
0810
1448
6886
9FF9
1080
3080
5FF8
9080
1FF8
1080
1080
1FFE
ENDCHAR

STARTCHAR jisx0212_387A
ENCODING 14458
SWIDTH 960 0
DWIDTH 16 0
BBX 16 16 0 -2
BITMAP
0100
0200
FFFF
0820
1018
6006
BE7D
2244
2244
3A74
264C
2244
3A74
468C
4284
8F1C
ENDCHAR

STARTCHAR jisx0212_387B
ENCODING 14459
SWIDTH 960 0
DWIDTH 16 0
BBX 16 16 0 -2
BITMAP
FFFF
0100
1FF8
1008
1FF8
1008
1FF8
1008
1FF8
0400
FFFF
1008
6426
8421
0820
3020
ENDCHAR

STARTCHAR jisx0212_387C
ENCODING 14460
SWIDTH 960 0
DWIDTH 16 0
BBX 16 16 0 -2
BITMAP
3FFC
0100
0200
FFFF
0420
1818
FCFF
4484
4484
7CFC
4484
4484
7CFC
4084
0104
061C
ENDCHAR

STARTCHAR jisx0212_387D
ENCODING 14461
SWIDTH 960 0
DWIDTH 16 0
BBX 16 16 0 -2
BITMAP
0100
0200
FFFF
0420
0810
300C
C4A7
24A4
17BC
8404
57FC
1404
27BC
28A4
48A4
90A4
ENDCHAR

STARTCHAR jisx0212_387E
ENCODING 14462
SWIDTH 960 0
DWIDTH 16 0
BBX 16 16 0 -2
BITMAP
0100
0100
FFFF
0100
0100
FF7F
1110
7D3E
4522
7D3E
4522
7EBE
0240
0420
1818
E007
ENDCHAR

STARTCHAR jisx0212_3921
ENCODING 14625
SWIDTH 960 0
DWIDTH 16 0
BBX 16 16 0 -2
BITMAP
0200
FFFF
0420
1918
E9E7
0900
7FFE
0048
3FFE
2040
3FA2
2424
2C99
5519
4665
9983
ENDCHAR

STARTCHAR jisx0212_3922
ENCODING 14626
SWIDTH 960 0
DWIDTH 16 0
BBX 16 16 0 -2
BITMAP
1000
11EF
FF29
29EF
4400
92FE
7E92
14FE
FF92
1892
24FE
FE10
43FF
7E10
4210
7E10
ENDCHAR

STARTCHAR jisx0212_3923
ENCODING 14627
SWIDTH 960 0
DWIDTH 16 0
BBX 16 16 0 -2
BITMAP
1000
1000
23FF
2010
FC10
2410
4410
4410
4410
8810
E810
9810
1410
2210
4010
80F0
ENDCHAR

STARTCHAR jisx0212_3924
ENCODING 14628
SWIDTH 960 0
DWIDTH 16 0
BBX 16 16 0 -2
BITMAP
1000
13FC
2044
2044
FC44
2444
4448
444F
4449
8881
E881
9081
1901
2502
4202
843C
ENDCHAR

STARTCHAR jisx0212_3925
ENCODING 14629
SWIDTH 960 0
DWIDTH 16 0
BBX 16 16 0 -2
BITMAP
2020
2120
2120
2126
F93A
49E2
4B22
4922
8922
8922
C92E
B120
1900
2501
4101
80FF
ENDCHAR

STARTCHAR jisx0212_3926
ENCODING 14630
SWIDTH 960 0
DWIDTH 16 0
BBX 16 16 0 -2
BITMAP
1010
1010
2020
2020
FDFF
2424
4444
4444
4444
8884
E8C8
98A8
1418
2224
40C2
8301
ENDCHAR

STARTCHAR jisx0212_3927
ENCODING 14631
SWIDTH 960 0
DWIDTH 16 0
BBX 16 16 0 -2
BITMAP
1006
1018
23E0
2020
FC20
2420
4420
47FF
4420
8820
E820
9820
1421
2221
4021
801F
ENDCHAR

STARTCHAR jisx0212_3928
ENCODING 14632
SWIDTH 960 0
DWIDTH 16 0
BBX 16 16 0 -2
BITMAP
1010
1010
2010
2010
FCFE
2410
4410
4410
45FF
8810
E810
9828
1428
2244
4082
8301
ENDCHAR

STARTCHAR jisx0212_3929
ENCODING 14633
SWIDTH 960 0
DWIDTH 16 0
BBX 16 16 0 -2
BITMAP
1044
1044
2044
2044
FDFF
2444
4444
4444
4444
8BFF
E844
9044
1884
2484
4104
8204
ENDCHAR

STARTCHAR jisx0212_392A
ENCODING 14634
SWIDTH 960 0
DWIDTH 16 0
BBX 16 16 0 -2
BITMAP
1010
1028
2028
2044
FC44
2482
4501
4444
4444
8844
E844
9044
1884
2484
4104
8204
ENDCHAR

STARTCHAR jisx0212_392B
ENCODING 14635
SWIDTH 960 0
DWIDTH 16 0
BBX 16 16 0 -2
BITMAP
1000
1003
20FC
2080
FC80
24FF
4481
4481
4481
88FF
E881
9080
1900
2500
4200
8400
ENDCHAR

STARTCHAR jisx0212_392C
ENCODING 14636
SWIDTH 960 0
DWIDTH 16 0
BBX 16 16 0 -2
BITMAP
1010
1010
2010
2010
FDFF
2511
4511
4511
4511
89FF
E911
9810
1410
2210
4010
8010
ENDCHAR

STARTCHAR jisx0212_392D
ENCODING 14637
SWIDTH 960 0
DWIDTH 16 0
BBX 16 16 0 -2
BITMAP
1020
1050
2050
2088
FC88
2504
46FA
4401
4400
89FC
E804
9804
1408
2208
4010
8010
ENDCHAR

STARTCHAR jisx0212_392E
ENCODING 14638
SWIDTH 960 0
DWIDTH 16 0
BBX 16 16 0 -2
BITMAP
1FF8
1008
1008
1FF8
1008
1008
1FF8
1108
0200
FFFF
0410
0810
1720
00E0
0718
7806
ENDCHAR

STARTCHAR jisx0212_392F
ENCODING 14639
SWIDTH 960 0
DWIDTH 16 0
BBX 16 16 0 -2
BITMAP
1000
11FE
2002
2044
FC28
2410
45FF
4411
4412
8812
E814
9810
1410
2210
4010
80F0
ENDCHAR

STARTCHAR jisx0212_3930
ENCODING 14640
SWIDTH 960 0
DWIDTH 16 0
BBX 16 16 0 -2
BITMAP
1000
11FE
2000
2000
FC00
2400
47FF
4448
4448
8848
E848
9048
1889
2489
4109
8607
ENDCHAR

STARTCHAR jisx0212_3931
ENCODING 14641
SWIDTH 960 0
DWIDTH 16 0
BBX 16 16 0 -2
BITMAP
1040
1048
2044
2040
FDFF
2440
4442
4442
44A2
88A4
E894
9908
1518
2224
4442
8981
ENDCHAR

STARTCHAR jisx0212_3932
ENCODING 14642
SWIDTH 960 0
DWIDTH 16 0
BBX 16 16 0 -2
BITMAP
1000
11FE
2102
2102
FD02
25FE
4500
4520
4522
8924
E938
9120
1921
2621
4221
841F
ENDCHAR

STARTCHAR jisx0212_3933
ENCODING 14643
SWIDTH 960 0
DWIDTH 16 0
BBX 16 16 0 -2
BITMAP
1010
1010
2010
2010
FDFF
2511
4511
4511
4511
89FF
E911
9111
1911
2511
41FF
8101
ENDCHAR

STARTCHAR jisx0212_3934
ENCODING 14644
SWIDTH 960 0
DWIDTH 16 0
BBX 16 16 0 -2
BITMAP
1040
1040
2080
20FF
FCA0
2520
4520
463E
4420
8820
E820
983E
1420
2220
4020
8020
ENDCHAR

STARTCHAR jisx0212_3935
ENCODING 14645
SWIDTH 960 0
DWIDTH 16 0
BBX 16 16 0 -2
BITMAP
1040
1040
2080
20FF
FD01
2512
4614
4494
4492
8892
E892
9091
1911
2511
4210
80F0
ENDCHAR

STARTCHAR jisx0212_3936
ENCODING 14646
SWIDTH 960 0
DWIDTH 16 0
BBX 16 16 0 -2
BITMAP
1010
1010
2090
2090
FCFF
2510
4510
4410
45FF
8810
E810
9828
1428
2244
4082
8301
ENDCHAR

STARTCHAR jisx0212_3937
ENCODING 14647
SWIDTH 960 0
DWIDTH 16 0
BBX 16 16 0 -2
BITMAP
1010
1010
2010
23FF
FC10
2410
4410
45FE
4438
8838
E854
9854
1492
2111
4210
8010
ENDCHAR

STARTCHAR jisx0212_3938
ENCODING 14648
SWIDTH 960 0
DWIDTH 16 0
BBX 16 16 0 -2
BITMAP
1040
1022
2012
2044
FC44
2448
4448
4554
4552
8962
EA61
9241
18C4
2544
4244
843C
ENDCHAR

STARTCHAR jisx0212_3939
ENCODING 14649
SWIDTH 960 0
DWIDTH 16 0
BBX 16 16 0 -2
BITMAP
1040
1040
2080
20FF
FD01
2501
46F9
4489
4489
8889
E889
90F9
1881
2402
4002
803C
ENDCHAR

STARTCHAR jisx0212_393A
ENCODING 14650
SWIDTH 960 0
DWIDTH 16 0
BBX 16 16 0 -2
BITMAP
1000
13FF
2010
2010
FC10
2490
4490
449E
4490
8890
E890
9090
1890
2490
4090
87FF
ENDCHAR

ENDFONT
